font.ufo
<glyph name="exclam" format="1">
  <advance width="240"/>
  <unicode hex="0021"/>
  <outline>
    <contour>
      <point x="139" y="229" type="line"/>
      <point x="146" y="722" type="line"/>
      <point x="95" y="722" type="line"/>
      <point x="102" y="229" type="line"/>
    </contour>
    <contour>
      <point x="151" y="20" type="curve"/>
      <point x="151" y="37"/>
      <point x="138" y="46"/>
      <point x="120" y="46" type="curve"/>
      <point x="103" y="46"/>
      <point x="92" y="36"/>
      <point x="92" y="20" type="curve"/>
      <point x="133" y="20"/>
      <point x="110" y="20"/>
      <point x="151" y="20" type="curve"/>
      <point x="151" y="3"/>
      <point x="138" y="-7"/>
      <point x="120" y="-7" type="curve"/>
      <point x="102" y="-7"/>
      <point x="92" y="3"/>
      <point x="92" y="20" type="curve"/>
      <point x="133" y="20"/>
      <point x="110" y="20"/>
    </contour>
  </outline>
</glyph>
<glyph name="quotedbl" format="1">
  <advance width="455"/>
  <unicode hex="0022"/>
  <outline>
    <contour>
      <point x="139" y="641" type="line"/>
      <point x="143" y="836" type="line"/>
      <point x="92" y="836" type="line"/>
      <point x="96" y="641" type="line"/>
    </contour>
    <contour>
      <point x="361" y="641" type="line"/>
      <point x="365" y="836" type="line"/>
      <point x="313" y="836" type="line"/>
      <point x="317" y="641" type="line"/>
    </contour>
  </outline>
</glyph>
<glyph name="numbersign" format="1">
  <advance width="829"/>
  <unicode hex="0023"/>
  <outline>
    <contour>
      <point x="49" y="242" type="line"/>
      <point x="673" y="242" type="line"/>
      <point x="685" y="278" type="line"/>
      <point x="63" y="278" type="line"/>
    </contour>
    <contour>
      <point x="141" y="482" type="line"/>
      <point x="766" y="482" type="line"/>
      <point x="779" y="517" type="line"/>
      <point x="154" y="517" type="line"/>
    </contour>
    <contour>
      <point x="488" y="39" type="line"/>
      <point x="765" y="722" type="line"/>
      <point x="722" y="722" type="line"/>
      <point x="444" y="39" type="line"/>
    </contour>
    <contour>
      <point x="135" y="46" type="line"/>
      <point x="407" y="722" type="line"/>
      <point x="363" y="722" type="line"/>
      <point x="93" y="46" type="line"/>
    </contour>
  </outline>
</glyph>
<glyph name="dollar" format="1">
  <advance width="672"/>
  <unicode hex="0024"/>
  <outline>
    <contour>
      <point x="100" y="98" type="curve"/>
      <point x="100" y="218"/>
      <point x="100" y="102"/>
      <point x="100" y="222" type="curve"/>
      <point x="63" y="222"/>
      <point x="100" y="222"/>
      <point x="63" y="222" type="curve"/>
      <point x="63" y="102"/>
      <point x="63" y="218"/>
      <point x="63" y="98" type="curve"/>
      <point x="100" y="98"/>
      <point x="63" y="98"/>
    </contour>
    <contour>
      <point x="553" y="632" type="curve"/>
      <point x="553" y="512"/>
      <point x="553" y="628"/>
      <point x="553" y="508" type="curve"/>
      <point x="589" y="508"/>
      <point x="553" y="508"/>
      <point x="589" y="508" type="curve"/>
      <point x="589" y="628"/>
      <point x="589" y="512"/>
      <point x="589" y="632" type="curve"/>
      <point x="553" y="632"/>
      <point x="589" y="632"/>
    </contour>
    <contour>
      <point x="338" y="-42" type="curve"/>
      <point x="338" y="-9"/>
      <point x="338" y="32"/>
      <point x="338" y="65" type="curve"/>
      <point x="295" y="65"/>
      <point x="338" y="65"/>
      <point x="295" y="65" type="curve"/>
      <point x="295" y="32"/>
      <point x="295" y="-9"/>
      <point x="295" y="-42" type="curve"/>
      <point x="338" y="-42"/>
      <point x="295" y="-42"/>
    </contour>
    <contour>
      <point x="354" y="665" type="curve"/>
      <point x="354" y="698"/>
      <point x="354" y="740"/>
      <point x="354" y="773" type="curve"/>
      <point x="311" y="773"/>
      <point x="354" y="773"/>
      <point x="311" y="773" type="curve"/>
      <point x="311" y="740"/>
      <point x="311" y="698"/>
      <point x="311" y="665" type="curve"/>
      <point x="354" y="665"/>
      <point x="311" y="665"/>
    </contour>
    <contour>
      <point x="63" y="98" type="curve"/>
      <point x="134" y="70"/>
      <point x="219" y="47"/>
      <point x="315" y="47" type="curve"/>
      <point x="474" y="47"/>
      <point x="613" y="77"/>
      <point x="613" y="202" type="curve"/>
      <point x="613" y="321"/>
      <point x="479" y="347"/>
      <point x="348" y="391" type="curve"/>
      <point x="237" y="428"/>
      <point x="135" y="448"/>
      <point x="135" y="539" type="curve"/>
      <point x="135" y="623"/>
      <point x="228" y="649"/>
      <point x="337" y="649" type="curve"/>
      <point x="426" y="649"/>
      <point x="488" y="635"/>
      <point x="567" y="602" type="curve"/>
      <point x="589" y="632"/>
      <point x="567" y="602"/>
      <point x="589" y="632" type="curve"/>
      <point x="504" y="667"/>
      <point x="435" y="684"/>
      <point x="340" y="684" type="curve"/>
      <point x="203" y="684"/>
      <point x="92" y="648"/>
      <point x="92" y="539" type="curve"/>
      <point x="92" y="427"/>
      <point x="199" y="399"/>
      <point x="323" y="359" type="curve"/>
      <point x="441" y="321"/>
      <point x="569" y="299"/>
      <point x="569" y="200" type="curve"/>
      <point x="569" y="104"/>
      <point x="452" y="82"/>
      <point x="319" y="82" type="curve"/>
      <point x="231" y="82"/>
      <point x="152" y="105"/>
      <point x="87" y="129" type="curve"/>
      <point x="63" y="98"/>
      <point x="87" y="129"/>
    </contour>
  </outline>
</glyph>
<glyph name="percent" format="1">
  <advance width="1331"/>
  <unicode hex="0025"/>
  <outline>
    <contour>
      <point x="439" y="-84" type="line"/>
      <point x="984" y="749" type="line"/>
      <point x="940" y="749" type="line"/>
      <point x="395" y="-84" type="line"/>
    </contour>
    <contour>
      <point x="84" y="542" type="curve"/>
      <point x="84" y="651"/>
      <point x="151" y="717"/>
      <point x="260" y="717" type="curve"/>
      <point x="369" y="718"/>
      <point x="435" y="651"/>
      <point x="435" y="543" type="curve"/>
      <point x="435" y="434"/>
      <point x="371" y="366"/>
      <point x="263" y="366" type="curve"/>
      <point x="152" y="366"/>
      <point x="84" y="432"/>
      <point x="84" y="542" type="curve"/>
      <point x="69" y="542"/>
      <point x="59" y="542"/>
      <point x="43" y="542" type="curve"/>
      <point x="43" y="410"/>
      <point x="127" y="331"/>
      <point x="261" y="331" type="curve"/>
      <point x="395" y="331"/>
      <point x="479" y="411"/>
      <point x="479" y="545" type="curve"/>
      <point x="479" y="675"/>
      <point x="395" y="753"/>
      <point x="262" y="753" type="curve"/>
      <point x="128" y="753"/>
      <point x="43" y="674"/>
      <point x="43" y="542" type="curve"/>
      <point x="59" y="542"/>
      <point x="69" y="542"/>
    </contour>
    <contour>
      <point x="894" y="120" type="curve"/>
      <point x="894" y="229"/>
      <point x="961" y="295"/>
      <point x="1070" y="295" type="curve"/>
      <point x="1179" y="296"/>
      <point x="1245" y="230"/>
      <point x="1245" y="121" type="curve"/>
      <point x="1245" y="13"/>
      <point x="1182" y="-56"/>
      <point x="1073" y="-56" type="curve"/>
      <point x="962" y="-56"/>
      <point x="894" y="11"/>
      <point x="894" y="120" type="curve"/>
      <point x="878" y="120"/>
      <point x="868" y="120"/>
      <point x="852" y="120" type="curve"/>
      <point x="852" y="-12"/>
      <point x="937" y="-91"/>
      <point x="1071" y="-91" type="curve"/>
      <point x="1205" y="-91"/>
      <point x="1288" y="-11"/>
      <point x="1288" y="122" type="curve"/>
      <point x="1288" y="253"/>
      <point x="1204" y="331"/>
      <point x="1072" y="331" type="curve"/>
      <point x="937" y="331"/>
      <point x="852" y="252"/>
      <point x="852" y="120" type="curve"/>
      <point x="868" y="120"/>
      <point x="878" y="120"/>
    </contour>
  </outline>
</glyph>
<glyph name="ampersand" format="1">
  <advance width="824"/>
  <unicode hex="0026"/>
  <outline>
    <contour>
      <point x="799" y="21" type="line"/>
      <point x="657" y="132"/>
      <point x="520" y="241"/>
      <point x="376" y="354" type="curve"/>
      <point x="296" y="421"/>
      <point x="195" y="465"/>
      <point x="195" y="573" type="curve"/>
      <point x="195" y="649"/>
      <point x="257" y="691"/>
      <point x="337" y="691" type="curve"/>
      <point x="426" y="691"/>
      <point x="497" y="655"/>
      <point x="497" y="575" type="curve"/>
      <point x="497" y="469"/>
      <point x="399" y="436"/>
      <point x="298" y="392" type="curve"/>
      <point x="181" y="339"/>
      <point x="65" y="305"/>
      <point x="65" y="181" type="curve"/>
      <point x="65" y="50"/>
      <point x="185" y="-5"/>
      <point x="330" y="-5" type="curve"/>
      <point x="542" y="-5"/>
      <point x="680" y="118"/>
      <point x="760" y="317" type="curve"/>
      <point x="723" y="326"/>
      <point x="760" y="317"/>
      <point x="723" y="326" type="curve"/>
      <point x="649" y="144"/>
      <point x="524" y="30"/>
      <point x="332" y="30" type="curve"/>
      <point x="210" y="30"/>
      <point x="108" y="71"/>
      <point x="108" y="181" type="curve"/>
      <point x="108" y="290"/>
      <point x="212" y="317"/>
      <point x="316" y="364" type="curve"/>
      <point x="429" y="415"/>
      <point x="539" y="454"/>
      <point x="540" y="575" type="curve"/>
      <point x="540" y="678"/>
      <point x="452" y="726"/>
      <point x="339" y="726" type="curve"/>
      <point x="233" y="726"/>
      <point x="153" y="673"/>
      <point x="153" y="573" type="curve"/>
      <point x="153" y="456"/>
      <point x="258" y="405"/>
      <point x="347" y="332" type="curve"/>
      <point x="486" y="222"/>
      <point x="638" y="103"/>
      <point x="777" y="-6" type="curve"/>
    </contour>
  </outline>
</glyph>
<glyph name="quotesingle" format="1">
  <advance width="233"/>
  <unicode hex="0027"/>
  <outline>
    <contour>
      <point x="139" y="641" type="line"/>
      <point x="143" y="836" type="line"/>
      <point x="92" y="836" type="line"/>
      <point x="96" y="641" type="line"/>
    </contour>
  </outline>
</glyph>
<glyph name="parenleft" format="1">
  <advance width="415"/>
  <unicode hex="0028"/>
  <outline>
    <contour>
      <point x="401" y="-230" type="curve"/>
      <point x="207" y="-79"/>
      <point x="103" y="79"/>
      <point x="103" y="326" type="curve"/>
      <point x="103" y="573"/>
      <point x="208" y="729"/>
      <point x="400" y="884" type="curve"/>
      <point x="374" y="907"/>
      <point x="400" y="884"/>
      <point x="374" y="907" type="curve"/>
      <point x="170" y="749"/>
      <point x="59" y="585"/>
      <point x="59" y="326" type="curve"/>
      <point x="59" y="67"/>
      <point x="170" y="-96"/>
      <point x="376" y="-256" type="curve"/>
      <point x="401" y="-230"/>
      <point x="376" y="-256"/>
    </contour>
  </outline>
</glyph>
<glyph name="parenright" format="1">
  <advance width="429"/>
  <unicode hex="0029"/>
  <outline>
    <contour>
      <point x="38" y="-271" type="curve"/>
      <point x="247" y="-104"/>
      <point x="372" y="58"/>
      <point x="372" y="327" type="curve"/>
      <point x="372" y="590"/>
      <point x="254" y="751"/>
      <point x="43" y="908" type="curve"/>
      <point x="17" y="882"/>
      <point x="43" y="908"/>
      <point x="17" y="882" type="curve"/>
      <point x="215" y="729"/>
      <point x="327" y="576"/>
      <point x="327" y="326" type="curve"/>
      <point x="327" y="71"/>
      <point x="206" y="-83"/>
      <point x="11" y="-248" type="curve"/>
      <point x="38" y="-271"/>
      <point x="11" y="-248"/>
    </contour>
  </outline>
</glyph>
<glyph name="asterisk" format="1">
  <advance width="734"/>
  <unicode hex="002A"/>
  <outline>
    <contour>
      <point x="380" y="635" type="line"/>
      <point x="384" y="829" type="line"/>
      <point x="340" y="829" type="line"/>
      <point x="344" y="635" type="line"/>
    </contour>
    <contour>
      <point x="464" y="557" type="line"/>
      <point x="650" y="616" type="line"/>
      <point x="635" y="656" type="line"/>
      <point x="452" y="592" type="line"/>
    </contour>
    <contour>
      <point x="417" y="455" type="line"/>
      <point x="531" y="297" type="line"/>
      <point x="565" y="324" type="line"/>
      <point x="446" y="477" type="line"/>
    </contour>
    <contour>
      <point x="304" y="469" type="line"/>
      <point x="185" y="315" type="line"/>
      <point x="219" y="288" type="line"/>
      <point x="332" y="447" type="line"/>
    </contour>
    <contour>
      <point x="282" y="579" type="line"/>
      <point x="99" y="644" type="line"/>
      <point x="84" y="603" type="line"/>
      <point x="270" y="544" type="line"/>
    </contour>
  </outline>
</glyph>
<glyph name="plus" format="1">
  <advance width="727"/>
  <unicode hex="002B"/>
  <outline>
    <contour>
      <point x="57" y="290" type="curve"/>
      <point x="670" y="290" type="line"/>
      <point x="670" y="329"/>
      <point x="670" y="290"/>
      <point x="670" y="329" type="curve"/>
      <point x="57" y="329" type="line"/>
      <point x="57" y="290"/>
      <point x="57" y="329"/>
    </contour>
    <contour>
      <point x="381" y="19" type="curve"/>
      <point x="381" y="588" type="line"/>
      <point x="338" y="588"/>
      <point x="383" y="588"/>
      <point x="339" y="588" type="curve"/>
      <point x="339" y="19" type="line"/>
      <point x="383" y="19"/>
      <point x="338" y="19"/>
    </contour>
  </outline>
</glyph>
<glyph name="comma" format="1">
  <advance width="222"/>
  <unicode hex="002C"/>
  <outline>
    <contour>
      <point x="52" y="-120" type="line"/>
      <point x="95" y="-98"/>
      <point x="132" y="-58"/>
      <point x="132" y="4" type="curve"/>
      <point x="132" y="34"/>
      <point x="122" y="58"/>
      <point x="96" y="58" type="curve"/>
      <point x="77" y="58"/>
      <point x="66" y="49"/>
      <point x="66" y="32" type="curve"/>
      <point x="66" y="16"/>
      <point x="75" y="7"/>
      <point x="93" y="3" type="curve"/>
      <point x="92" y="-26"/>
      <point x="79" y="-68"/>
      <point x="39" y="-92" type="curve"/>
    </contour>
  </outline>
</glyph>
<glyph name="hyphen" format="1">
  <advance width="549"/>
  <unicode hex="002D"/>
  <outline>
    <contour>
      <point x="89" y="254" type="curve"/>
      <point x="212" y="254"/>
      <point x="337" y="254"/>
      <point x="461" y="254" type="curve"/>
      <point x="461" y="293"/>
      <point x="461" y="254"/>
      <point x="461" y="293" type="curve"/>
      <point x="337" y="293"/>
      <point x="212" y="293"/>
      <point x="89" y="293" type="curve"/>
      <point x="89" y="254"/>
      <point x="89" y="293"/>
    </contour>
  </outline>
</glyph>
<glyph name="period" format="1">
  <advance width="229"/>
  <unicode hex="002E"/>
  <outline>
    <contour>
      <point x="144" y="20" type="curve"/>
      <point x="144" y="37"/>
      <point x="131" y="46"/>
      <point x="114" y="46" type="curve"/>
      <point x="97" y="46"/>
      <point x="85" y="36"/>
      <point x="85" y="20" type="curve"/>
      <point x="126" y="20"/>
      <point x="103" y="20"/>
      <point x="144" y="20" type="curve"/>
      <point x="144" y="3"/>
      <point x="131" y="-7"/>
      <point x="114" y="-7" type="curve"/>
      <point x="96" y="-7"/>
      <point x="85" y="3"/>
      <point x="85" y="20" type="curve"/>
      <point x="126" y="20"/>
      <point x="103" y="20"/>
    </contour>
  </outline>
</glyph>
<glyph name="slash" format="1">
  <advance width="665"/>
  <unicode hex="002F"/>
  <outline>
    <contour>
      <point x="82" y="-59" type="curve"/>
      <point x="264" y="238"/>
      <point x="445" y="536"/>
      <point x="627" y="834" type="curve"/>
      <point x="583" y="834"/>
      <point x="627" y="834"/>
      <point x="583" y="834" type="curve"/>
      <point x="402" y="536"/>
      <point x="221" y="238"/>
      <point x="38" y="-59" type="curve"/>
      <point x="82" y="-59"/>
      <point x="38" y="-59"/>
    </contour>
  </outline>
</glyph>
<glyph name="zero" format="1">
  <advance width="869"/>
  <unicode hex="0030"/>
  <outline>
    <contour>
      <point x="114" y="360" type="curve"/>
      <point x="114" y="565"/>
      <point x="231" y="689"/>
      <point x="434" y="689" type="curve"/>
      <point x="636" y="689"/>
      <point x="754" y="564"/>
      <point x="754" y="362" type="curve"/>
      <point x="754" y="159"/>
      <point x="638" y="34"/>
      <point x="439" y="34" type="curve"/>
      <point x="235" y="34"/>
      <point x="114" y="156"/>
      <point x="114" y="360" type="curve"/>
      <point x="71" y="360"/>
      <point x="113" y="360"/>
      <point x="70" y="360" type="curve"/>
      <point x="70" y="131"/>
      <point x="207" y="-5"/>
      <point x="437" y="-5" type="curve"/>
      <point x="664" y="-5"/>
      <point x="798" y="134"/>
      <point x="798" y="363" type="curve"/>
      <point x="798" y="590"/>
      <point x="664" y="727"/>
      <point x="437" y="727" type="curve"/>
      <point x="207" y="727"/>
      <point x="70" y="590"/>
      <point x="70" y="360" type="curve"/>
      <point x="113" y="360"/>
      <point x="71" y="360"/>
    </contour>
  </outline>
</glyph>
<glyph name="one" format="1">
  <advance width="520"/>
  <unicode hex="0031"/>
  <outline>
    <contour>
      <point x="323" y="0" type="curve"/>
      <point x="378" y="0"/>
      <point x="433" y="0"/>
      <point x="490" y="0" type="curve"/>
      <point x="490" y="36"/>
      <point x="490" y="0"/>
      <point x="490" y="36" type="curve"/>
      <point x="323" y="36"/>
      <point x="490" y="36"/>
      <point x="323" y="36" type="curve"/>
      <point x="323" y="0"/>
      <point x="323" y="36"/>
    </contour>
    <contour>
      <point x="323" y="36" type="curve"/>
      <point x="154" y="36"/>
      <point x="323" y="36"/>
      <point x="154" y="36" type="curve"/>
      <point x="154" y="0"/>
      <point x="154" y="36"/>
      <point x="154" y="0" type="curve"/>
      <point x="210" y="0"/>
      <point x="266" y="0"/>
      <point x="323" y="0" type="curve"/>
      <point x="323" y="36"/>
      <point x="323" y="0"/>
    </contour>
    <contour>
      <point x="66" y="522" type="curve"/>
      <point x="332" y="697"/>
      <point x="66" y="522"/>
      <point x="332" y="697" type="curve"/>
      <point x="298" y="722"/>
      <point x="332" y="697"/>
      <point x="298" y="722" type="curve"/>
      <point x="44" y="554"/>
      <point x="298" y="722"/>
      <point x="44" y="554" type="curve"/>
      <point x="66" y="522"/>
      <point x="44" y="554"/>
    </contour>
    <contour>
      <point x="342" y="0" type="curve"/>
      <point x="342" y="241"/>
      <point x="342" y="481"/>
      <point x="342" y="722" type="curve"/>
      <point x="298" y="722"/>
      <point x="342" y="722"/>
      <point x="298" y="722" type="curve"/>
      <point x="298" y="481"/>
      <point x="298" y="241"/>
      <point x="298" y="0" type="curve"/>
      <point x="342" y="0"/>
      <point x="298" y="0"/>
    </contour>
  </outline>
</glyph>
<glyph name="two" format="1">
  <advance width="712"/>
  <unicode hex="0032"/>
  <outline>
    <contour>
      <point x="638" y="36" type="curve"/>
      <point x="638" y="155"/>
      <point x="638" y="36"/>
      <point x="638" y="155" type="curve"/>
      <point x="602" y="155"/>
      <point x="638" y="155"/>
      <point x="602" y="155" type="curve"/>
      <point x="602" y="36"/>
      <point x="602" y="155"/>
      <point x="602" y="36" type="curve"/>
      <point x="638" y="36"/>
      <point x="602" y="36"/>
    </contour>
    <contour>
      <point x="53" y="0" type="curve"/>
      <point x="260" y="0"/>
      <point x="442" y="0"/>
      <point x="638" y="0" type="curve"/>
      <point x="638" y="36"/>
      <point x="638" y="0"/>
      <point x="638" y="36" type="curve"/>
      <point x="434" y="36"/>
      <point x="254" y="36"/>
      <point x="53" y="36" type="curve"/>
      <point x="53" y="0"/>
      <point x="53" y="36"/>
    </contour>
    <contour>
      <point x="109" y="554" type="curve"/>
      <point x="173" y="642"/>
      <point x="242" y="688"/>
      <point x="348" y="688" type="curve"/>
      <point x="469" y="688"/>
      <point x="555" y="639"/>
      <point x="555" y="522" type="curve"/>
      <point x="555" y="394"/>
      <point x="456" y="321"/>
      <point x="343" y="245" type="curve"/>
      <point x="246" y="175"/>
      <point x="149" y="105"/>
      <point x="53" y="36" type="curve"/>
      <point x="63" y="0"/>
      <point x="53" y="36"/>
      <point x="63" y="0" type="curve"/>
      <point x="173" y="72"/>
      <point x="271" y="145"/>
      <point x="371" y="217" type="curve"/>
      <point x="494" y="299"/>
      <point x="597" y="372"/>
      <point x="597" y="524" type="curve"/>
      <point x="597" y="663"/>
      <point x="497" y="727"/>
      <point x="351" y="727" type="curve"/>
      <point x="230" y="727"/>
      <point x="141" y="674"/>
      <point x="78" y="576" type="curve"/>
      <point x="109" y="554"/>
      <point x="78" y="576"/>
    </contour>
  </outline>
</glyph>
<glyph name="three" format="1">
  <advance width="654"/>
  <unicode hex="0033"/>
  <outline>
    <contour>
      <point x="61" y="56" type="curve"/>
      <point x="137" y="17"/>
      <point x="206" y="-5"/>
      <point x="298" y="-5" type="curve"/>
      <point x="465" y="-5"/>
      <point x="589" y="42"/>
      <point x="589" y="199" type="curve"/>
      <point x="589" y="344"/>
      <point x="415" y="394"/>
      <point x="183" y="394" type="curve"/>
      <point x="183" y="364"/>
      <point x="183" y="393"/>
      <point x="183" y="363" type="curve"/>
      <point x="364" y="363"/>
      <point x="546" y="325"/>
      <point x="546" y="198" type="curve"/>
      <point x="546" y="66"/>
      <point x="425" y="36"/>
      <point x="300" y="36" type="curve"/>
      <point x="220" y="36"/>
      <point x="162" y="52"/>
      <point x="81" y="88" type="curve"/>
      <point x="61" y="56"/>
      <point x="81" y="88"/>
    </contour>
    <contour>
      <point x="93" y="614" type="curve"/>
      <point x="142" y="657"/>
      <point x="213" y="686"/>
      <point x="292" y="686" type="curve"/>
      <point x="412" y="686"/>
      <point x="504" y="656"/>
      <point x="504" y="551" type="curve"/>
      <point x="504" y="441"/>
      <point x="347" y="399"/>
      <point x="183" y="399" type="curve"/>
      <point x="183" y="370"/>
      <point x="183" y="399"/>
      <point x="183" y="369" type="curve"/>
      <point x="381" y="369"/>
      <point x="546" y="415"/>
      <point x="546" y="553" type="curve"/>
      <point x="546" y="681"/>
      <point x="439" y="727"/>
      <point x="296" y="727" type="curve"/>
      <point x="203" y="727"/>
      <point x="119" y="688"/>
      <point x="67" y="642" type="curve"/>
      <point x="93" y="614"/>
      <point x="67" y="642"/>
    </contour>
  </outline>
</glyph>
<glyph name="four" format="1">
  <advance width="775"/>
  <unicode hex="0034"/>
  <outline>
    <contour>
      <point x="469" y="36" type="line"/>
      <point x="308" y="36" type="line"/>
      <point x="308" y="0" type="line"/>
      <point x="469" y="0" type="line"/>
    </contour>
    <contour>
      <point x="469" y="0" type="line"/>
      <point x="630" y="0" type="line"/>
      <point x="630" y="36" type="line"/>
      <point x="469" y="36" type="line"/>
    </contour>
    <contour>
      <point x="55" y="262" type="line"/>
      <point x="482" y="698" type="line"/>
      <point x="449" y="718" type="line"/>
      <point x="34" y="297" type="line"/>
    </contour>
    <contour>
      <point x="723" y="297" type="line"/>
      <point x="34" y="297" type="line"/>
      <point x="34" y="258" type="line"/>
      <point x="723" y="258" type="line"/>
    </contour>
    <contour>
      <point x="493" y="8" type="line"/>
      <point x="493" y="718" type="line"/>
      <point x="449" y="718" type="line"/>
      <point x="449" y="8" type="line"/>
    </contour>
  </outline>
</glyph>
<glyph name="colon" format="1">
  <advance width="237"/>
  <unicode hex="003A"/>
  <outline>
    <contour>
      <point x="148" y="419" type="curve"/>
      <point x="148" y="436"/>
      <point x="135" y="446"/>
      <point x="118" y="446" type="curve"/>
      <point x="100" y="446"/>
      <point x="89" y="436"/>
      <point x="89" y="419" type="curve"/>
      <point x="130" y="419"/>
      <point x="107" y="419"/>
      <point x="148" y="419" type="curve"/>
      <point x="148" y="402"/>
      <point x="135" y="393"/>
      <point x="117" y="393" type="curve"/>
      <point x="100" y="393"/>
      <point x="89" y="403"/>
      <point x="89" y="419" type="curve"/>
      <point x="130" y="419"/>
      <point x="107" y="419"/>
    </contour>
    <contour>
      <point x="147" y="20" type="curve"/>
      <point x="147" y="37"/>
      <point x="135" y="46"/>
      <point x="117" y="46" type="curve"/>
      <point x="100" y="46"/>
      <point x="89" y="36"/>
      <point x="89" y="20" type="curve"/>
      <point x="129" y="20"/>
      <point x="107" y="20"/>
      <point x="147" y="20" type="curve"/>
      <point x="147" y="3"/>
      <point x="135" y="-7"/>
      <point x="117" y="-7" type="curve"/>
      <point x="100" y="-7"/>
      <point x="89" y="3"/>
      <point x="89" y="20" type="curve"/>
      <point x="129" y="20"/>
      <point x="107" y="20"/>
    </contour>
  </outline>
</glyph>
<glyph name="semicolon" format="1">
  <advance width="279"/>
  <unicode hex="003B"/>
  <outline>
    <contour>
      <point x="94" y="-89" type="line"/>
      <point x="138" y="-67"/>
      <point x="175" y="-27"/>
      <point x="175" y="35" type="curve"/>
      <point x="175" y="65"/>
      <point x="165" y="90"/>
      <point x="139" y="90" type="curve"/>
      <point x="120" y="90"/>
      <point x="108" y="81"/>
      <point x="108" y="63" type="curve"/>
      <point x="108" y="47"/>
      <point x="118" y="38"/>
      <point x="135" y="34" type="curve"/>
      <point x="135" y="5"/>
      <point x="121" y="-36"/>
      <point x="81" y="-61" type="curve"/>
    </contour>
    <contour>
      <point x="166" y="420" type="curve"/>
      <point x="166" y="437"/>
      <point x="154" y="447"/>
      <point x="135" y="447" type="curve"/>
      <point x="118" y="447"/>
      <point x="107" y="437"/>
      <point x="107" y="420" type="curve"/>
      <point x="147" y="420"/>
      <point x="126" y="420"/>
      <point x="166" y="420" type="curve"/>
      <point x="166" y="403"/>
      <point x="154" y="394"/>
      <point x="135" y="394" type="curve"/>
      <point x="118" y="394"/>
      <point x="107" y="404"/>
      <point x="107" y="420" type="curve"/>
      <point x="147" y="420"/>
      <point x="126" y="420"/>
    </contour>
  </outline>
</glyph>
<glyph name="less" format="1">
  <advance width="897"/>
  <unicode hex="003C"/>
  <outline>
    <contour>
      <point x="821" y="590" type="curve"/>
      <point x="562" y="500"/>
      <point x="303" y="410"/>
      <point x="43" y="320" type="curve"/>
      <point x="43" y="280"/>
      <point x="43" y="320"/>
      <point x="43" y="280" type="curve"/>
      <point x="303" y="370"/>
      <point x="562" y="460"/>
      <point x="821" y="550" type="curve"/>
      <point x="821" y="590"/>
      <point x="821" y="550"/>
    </contour>
    <contour>
      <point x="835" y="56" type="curve"/>
      <point x="571" y="144"/>
      <point x="307" y="232"/>
      <point x="43" y="320" type="curve"/>
      <point x="43" y="280"/>
      <point x="43" y="320"/>
      <point x="43" y="280" type="curve"/>
      <point x="307" y="192"/>
      <point x="571" y="104"/>
      <point x="835" y="16" type="curve"/>
      <point x="835" y="56"/>
      <point x="835" y="16"/>
    </contour>
  </outline>
</glyph>
<glyph name="equal" format="1">
  <advance width="986"/>
  <unicode hex="003D"/>
  <outline>
    <contour>
      <point x="91" y="199" type="curve"/>
      <point x="359" y="199"/>
      <point x="626" y="199"/>
      <point x="895" y="199" type="curve"/>
      <point x="895" y="236"/>
      <point x="895" y="199"/>
      <point x="895" y="236" type="curve"/>
      <point x="626" y="236"/>
      <point x="359" y="236"/>
      <point x="91" y="236" type="curve"/>
      <point x="91" y="199"/>
      <point x="91" y="236"/>
    </contour>
    <contour>
      <point x="91" y="421" type="curve"/>
      <point x="359" y="421"/>
      <point x="626" y="421"/>
      <point x="895" y="421" type="curve"/>
      <point x="895" y="458"/>
      <point x="895" y="421"/>
      <point x="895" y="458" type="curve"/>
      <point x="626" y="458"/>
      <point x="359" y="458"/>
      <point x="91" y="458" type="curve"/>
      <point x="91" y="421"/>
      <point x="91" y="458"/>
    </contour>
  </outline>
</glyph>
<glyph name="greater" format="1">
  <advance width="896"/>
  <unicode hex="003E"/>
  <outline>
    <contour>
      <point x="74" y="16" type="curve"/>
      <point x="334" y="106"/>
      <point x="594" y="196"/>
      <point x="853" y="286" type="curve"/>
      <point x="853" y="326"/>
      <point x="853" y="286"/>
      <point x="853" y="326" type="curve"/>
      <point x="594" y="236"/>
      <point x="334" y="146"/>
      <point x="74" y="56" type="curve"/>
      <point x="74" y="16"/>
      <point x="74" y="56"/>
    </contour>
    <contour>
      <point x="62" y="550" type="curve"/>
      <point x="325" y="462"/>
      <point x="590" y="374"/>
      <point x="853" y="286" type="curve"/>
      <point x="853" y="326"/>
      <point x="853" y="286"/>
      <point x="853" y="326" type="curve"/>
      <point x="590" y="414"/>
      <point x="325" y="502"/>
      <point x="62" y="590" type="curve"/>
      <point x="62" y="550"/>
      <point x="62" y="590"/>
    </contour>
  </outline>
</glyph>
<glyph name="B" format="1">
  <advance width="806"/>
  <unicode hex="0042"/>
  <outline>
    <contour>
      <point x="211" y="722" type="curve"/>
      <point x="155" y="722"/>
      <point x="103" y="722"/>
      <point x="47" y="722" type="curve"/>
      <point x="47" y="686"/>
      <point x="47" y="722"/>
      <point x="47" y="686" type="curve"/>
      <point x="212" y="686"/>
      <point x="45" y="686"/>
      <point x="211" y="686" type="curve"/>
      <point x="211" y="722"/>
      <point x="211" y="686"/>
    </contour>
    <contour>
      <point x="209" y="36" type="curve"/>
      <point x="44" y="36"/>
      <point x="211" y="36"/>
      <point x="46" y="36" type="curve"/>
      <point x="46" y="0"/>
      <point x="46" y="36"/>
      <point x="46" y="0" type="curve"/>
      <point x="101" y="0"/>
      <point x="154" y="0"/>
      <point x="209" y="0" type="curve"/>
      <point x="209" y="36"/>
      <point x="209" y="0"/>
    </contour>
    <contour>
      <point x="197" y="686" type="curve"/>
      <point x="288" y="686"/>
      <point x="378" y="686"/>
      <point x="469" y="686" type="curve"/>
      <point x="565" y="686"/>
      <point x="639" y="645"/>
      <point x="639" y="551" type="curve"/>
      <point x="639" y="453"/>
      <point x="531" y="427"/>
      <point x="422" y="427" type="curve"/>
      <point x="346" y="427"/>
      <point x="272" y="427"/>
      <point x="197" y="427" type="curve"/>
      <point x="197" y="393"/>
      <point x="197" y="425"/>
      <point x="197" y="391" type="curve"/>
      <point x="265" y="391"/>
      <point x="332" y="391"/>
      <point x="401" y="391" type="curve"/>
      <point x="537" y="391"/>
      <point x="683" y="424"/>
      <point x="683" y="551" type="curve"/>
      <point x="683" y="668"/>
      <point x="594" y="722"/>
      <point x="469" y="722" type="curve"/>
      <point x="378" y="722"/>
      <point x="288" y="722"/>
      <point x="197" y="722" type="curve"/>
      <point x="197" y="688"/>
      <point x="197" y="720"/>
    </contour>
    <contour>
      <point x="230" y="0" type="curve"/>
      <point x="230" y="241"/>
      <point x="230" y="481"/>
      <point x="230" y="722" type="curve"/>
      <point x="184" y="722"/>
      <point x="230" y="722"/>
      <point x="184" y="722" type="curve"/>
      <point x="184" y="481"/>
      <point x="184" y="241"/>
      <point x="184" y="0" type="curve"/>
      <point x="230" y="0"/>
      <point x="184" y="0"/>
    </contour>
    <contour>
      <point x="197" y="391" type="curve"/>
      <point x="272" y="391"/>
      <point x="346" y="391"/>
      <point x="422" y="391" type="curve"/>
      <point x="573" y="391"/>
      <point x="699" y="346"/>
      <point x="699" y="207" type="curve"/>
      <point x="699" y="85"/>
      <point x="602" y="36"/>
      <point x="468" y="36" type="curve"/>
      <point x="376" y="36"/>
      <point x="287" y="36"/>
      <point x="197" y="36" type="curve"/>
      <point x="197" y="2"/>
      <point x="197" y="34"/>
      <point x="197" y="0" type="curve"/>
      <point x="287" y="0"/>
      <point x="376" y="0"/>
      <point x="468" y="0" type="curve"/>
      <point x="628" y="0"/>
      <point x="742" y="61"/>
      <point x="742" y="207" type="curve"/>
      <point x="742" y="376"/>
      <point x="579" y="427"/>
      <point x="401" y="427" type="curve"/>
      <point x="332" y="427"/>
      <point x="265" y="427"/>
      <point x="197" y="427" type="curve"/>
      <point x="197" y="393"/>
      <point x="197" y="425"/>
    </contour>
  </outline>
</glyph>
<glyph name="D" format="1">
  <advance width="941"/>
  <unicode hex="0044"/>
  <outline>
    <contour>
      <point x="429" y="818" type="move" name="top"/>
    </contour>
    <contour>
      <point x="211" y="36" type="curve"/>
      <point x="46" y="36"/>
      <point x="213" y="36"/>
      <point x="48" y="36" type="curve"/>
      <point x="48" y="0"/>
      <point x="48" y="36"/>
      <point x="48" y="0" type="curve"/>
      <point x="103" y="0"/>
      <point x="156" y="0"/>
      <point x="211" y="0" type="curve"/>
      <point x="211" y="36"/>
      <point x="211" y="0"/>
    </contour>
    <contour>
      <point x="211" y="722" type="curve"/>
      <point x="156" y="722"/>
      <point x="103" y="722"/>
      <point x="48" y="722" type="curve"/>
      <point x="48" y="686"/>
      <point x="48" y="722"/>
      <point x="48" y="686" type="curve"/>
      <point x="213" y="686"/>
      <point x="46" y="686"/>
      <point x="211" y="686" type="curve"/>
      <point x="211" y="722"/>
      <point x="211" y="686"/>
    </contour>
    <contour>
      <point x="186" y="722" type="curve"/>
      <point x="186" y="481"/>
      <point x="186" y="241"/>
      <point x="186" y="0" type="curve"/>
      <point x="230" y="0"/>
      <point x="186" y="0"/>
      <point x="230" y="0" type="curve"/>
      <point x="230" y="241"/>
      <point x="230" y="481"/>
      <point x="230" y="722" type="curve"/>
      <point x="186" y="722"/>
      <point x="230" y="722"/>
    </contour>
    <contour>
      <point x="211" y="0" type="curve"/>
      <point x="296" y="0"/>
      <point x="379" y="0"/>
      <point x="464" y="0" type="curve"/>
      <point x="720" y="0"/>
      <point x="876" y="109"/>
      <point x="876" y="351" type="curve"/>
      <point x="876" y="606"/>
      <point x="716" y="722"/>
      <point x="449" y="722" type="curve"/>
      <point x="369" y="722"/>
      <point x="291" y="722"/>
      <point x="211" y="722" type="curve"/>
      <point x="211" y="687"/>
      <point x="211" y="721"/>
      <point x="211" y="686" type="curve"/>
      <point x="290" y="686"/>
      <point x="368" y="686"/>
      <point x="447" y="686" type="curve"/>
      <point x="688" y="686"/>
      <point x="833" y="581"/>
      <point x="833" y="351" type="curve"/>
      <point x="833" y="134"/>
      <point x="696" y="36"/>
      <point x="468" y="36" type="curve"/>
      <point x="382" y="36"/>
      <point x="298" y="36"/>
      <point x="211" y="36" type="curve"/>
      <point x="211" y="1"/>
      <point x="211" y="35"/>
    </contour>
  </outline>
</glyph>
<glyph name="G" format="1">
  <advance width="946"/>
  <unicode hex="0047"/>
  <outline>
    <contour>
      <point x="495" y="818" type="move" name="top"/>
    </contour>
    <contour>
      <point x="523" y="-1" type="move" name="bottom"/>
    </contour>
    <contour>
      <point x="814" y="643" type="curve"/>
      <point x="814" y="522"/>
      <point x="814" y="638"/>
      <point x="814" y="518" type="curve"/>
      <point x="851" y="518"/>
      <point x="814" y="518"/>
      <point x="851" y="518" type="curve"/>
      <point x="851" y="638"/>
      <point x="851" y="522"/>
      <point x="851" y="643" type="curve"/>
      <point x="814" y="643"/>
      <point x="851" y="643"/>
    </contour>
    <contour>
      <point x="859" y="327" type="curve"/>
      <point x="764" y="327"/>
      <point x="671" y="327"/>
      <point x="577" y="327" type="curve"/>
      <point x="577" y="291"/>
      <point x="577" y="327"/>
      <point x="577" y="291" type="curve"/>
      <point x="671" y="291"/>
      <point x="764" y="291"/>
      <point x="859" y="291" type="curve"/>
      <point x="859" y="327"/>
      <point x="859" y="291"/>
    </contour>
    <contour>
      <point x="872" y="77" type="curve"/>
      <point x="872" y="161"/>
      <point x="872" y="243"/>
      <point x="872" y="327" type="curve"/>
      <point x="832" y="327"/>
      <point x="872" y="327"/>
      <point x="832" y="327" type="curve"/>
      <point x="832" y="243"/>
      <point x="832" y="161"/>
      <point x="832" y="77" type="curve"/>
      <point x="872" y="77"/>
      <point x="832" y="77"/>
    </contour>
    <contour>
      <point x="851" y="643" type="curve"/>
      <point x="731" y="702"/>
      <point x="627" y="727"/>
      <point x="494" y="727" type="curve"/>
      <point x="238" y="727"/>
      <point x="67" y="608"/>
      <point x="67" y="364" type="curve"/>
      <point x="67" y="114"/>
      <point x="245" y="-5"/>
      <point x="508" y="-5" type="curve"/>
      <point x="651" y="-5"/>
      <point x="742" y="20"/>
      <point x="872" y="77" type="curve"/>
      <point x="850" y="104"/>
      <point x="872" y="77"/>
      <point x="850" y="104" type="curve"/>
      <point x="732" y="52"/>
      <point x="640" y="34"/>
      <point x="508" y="34" type="curve"/>
      <point x="271" y="34"/>
      <point x="110" y="141"/>
      <point x="110" y="368" type="curve"/>
      <point x="110" y="583"/>
      <point x="266" y="690"/>
      <point x="494" y="690" type="curve"/>
      <point x="619" y="690"/>
      <point x="717" y="667"/>
      <point x="829" y="613" type="curve"/>
      <point x="851" y="643"/>
      <point x="829" y="613"/>
    </contour>
  </outline>
</glyph>
<glyph name="H" format="1">
  <advance width="1057"/>
  <unicode hex="0048"/>
  <outline>
    <contour>
      <point x="852" y="686" type="curve"/>
      <point x="1022" y="686"/>
      <point x="847" y="686"/>
      <point x="1016" y="686" type="curve"/>
      <point x="1016" y="722"/>
      <point x="1016" y="686"/>
      <point x="1016" y="722" type="curve"/>
      <point x="960" y="722"/>
      <point x="909" y="722"/>
      <point x="852" y="722" type="curve"/>
      <point x="852" y="686"/>
      <point x="852" y="722"/>
    </contour>
    <contour>
      <point x="852" y="0" type="curve"/>
      <point x="909" y="0"/>
      <point x="960" y="0"/>
      <point x="1016" y="0" type="curve"/>
      <point x="1016" y="36"/>
      <point x="1016" y="0"/>
      <point x="1016" y="36" type="curve"/>
      <point x="847" y="36"/>
      <point x="1022" y="36"/>
      <point x="852" y="36" type="curve"/>
      <point x="852" y="0"/>
      <point x="852" y="36"/>
    </contour>
    <contour>
      <point x="852" y="36" type="curve"/>
      <point x="684" y="36"/>
      <point x="858" y="36"/>
      <point x="690" y="36" type="curve"/>
      <point x="690" y="0"/>
      <point x="690" y="36"/>
      <point x="690" y="0" type="curve"/>
      <point x="746" y="0"/>
      <point x="796" y="0"/>
      <point x="852" y="0" type="curve"/>
      <point x="852" y="36"/>
      <point x="852" y="0"/>
    </contour>
    <contour>
      <point x="852" y="722" type="curve"/>
      <point x="796" y="722"/>
      <point x="746" y="722"/>
      <point x="690" y="722" type="curve"/>
      <point x="690" y="686"/>
      <point x="690" y="722"/>
      <point x="690" y="686" type="curve"/>
      <point x="858" y="686"/>
      <point x="684" y="686"/>
      <point x="852" y="686" type="curve"/>
      <point x="852" y="722"/>
      <point x="852" y="686"/>
    </contour>
    <contour>
      <point x="205" y="686" type="curve"/>
      <point x="374" y="686"/>
      <point x="200" y="686"/>
      <point x="368" y="686" type="curve"/>
      <point x="368" y="722"/>
      <point x="368" y="686"/>
      <point x="368" y="722" type="curve"/>
      <point x="313" y="722"/>
      <point x="262" y="722"/>
      <point x="205" y="722" type="curve"/>
      <point x="205" y="686"/>
      <point x="205" y="722"/>
    </contour>
    <contour>
      <point x="205" y="722" type="curve"/>
      <point x="149" y="722"/>
      <point x="99" y="722"/>
      <point x="43" y="722" type="curve"/>
      <point x="43" y="686"/>
      <point x="43" y="722"/>
      <point x="43" y="686" type="curve"/>
      <point x="211" y="686"/>
      <point x="37" y="686"/>
      <point x="205" y="686" type="curve"/>
      <point x="205" y="722"/>
      <point x="205" y="686"/>
    </contour>
    <contour>
      <point x="205" y="0" type="curve"/>
      <point x="262" y="0"/>
      <point x="200" y="0"/>
      <point x="368" y="0" type="curve"/>
      <point x="368" y="36"/>
      <point x="368" y="0"/>
      <point x="368" y="36" type="curve"/>
      <point x="200" y="36"/>
      <point x="374" y="36"/>
      <point x="205" y="36" type="curve"/>
      <point x="205" y="0"/>
      <point x="205" y="36"/>
    </contour>
    <contour>
      <point x="205" y="36" type="curve"/>
      <point x="37" y="36"/>
      <point x="211" y="36"/>
      <point x="43" y="36" type="curve"/>
      <point x="43" y="0"/>
      <point x="43" y="36"/>
      <point x="43" y="0" type="curve"/>
      <point x="99" y="0"/>
      <point x="149" y="0"/>
      <point x="205" y="0" type="curve"/>
      <point x="205" y="36"/>
      <point x="205" y="0"/>
    </contour>
    <contour>
      <point x="227" y="0" type="curve"/>
      <point x="227" y="722" type="line"/>
      <point x="184" y="722"/>
      <point x="227" y="722"/>
      <point x="184" y="722" type="curve"/>
      <point x="184" y="481"/>
      <point x="184" y="241"/>
      <point x="184" y="0" type="curve"/>
      <point x="227" y="0"/>
      <point x="184" y="0"/>
    </contour>
    <contour>
      <point x="848" y="381" type="curve"/>
      <point x="634" y="381"/>
      <point x="419" y="381"/>
      <point x="205" y="381" type="curve"/>
      <point x="205" y="345"/>
      <point x="205" y="381"/>
      <point x="205" y="345" type="curve"/>
      <point x="419" y="345"/>
      <point x="634" y="345"/>
      <point x="848" y="345" type="curve"/>
      <point x="848" y="381"/>
      <point x="848" y="345"/>
    </contour>
    <contour>
      <point x="873" y="8" type="curve"/>
      <point x="873" y="243"/>
      <point x="873" y="479"/>
      <point x="873" y="714" type="curve"/>
      <point x="830" y="714"/>
      <point x="873" y="714"/>
      <point x="830" y="714" type="curve"/>
      <point x="830" y="8" type="line"/>
      <point x="873" y="8"/>
      <point x="830" y="8"/>
    </contour>
  </outline>
</glyph>
<glyph name="J" format="1">
  <advance width="578"/>
  <unicode hex="004A"/>
  <outline>
    <contour>
      <point x="403" y="722" type="curve"/>
      <point x="350" y="722"/>
      <point x="301" y="722"/>
      <point x="248" y="722" type="curve"/>
      <point x="248" y="686"/>
      <point x="248" y="722"/>
      <point x="248" y="686" type="curve"/>
      <point x="409" y="686"/>
      <point x="243" y="686"/>
      <point x="403" y="686" type="curve"/>
      <point x="403" y="722"/>
      <point x="403" y="686"/>
    </contour>
    <contour>
      <point x="403" y="686" type="curve"/>
      <point x="559" y="686"/>
      <point x="398" y="686"/>
      <point x="553" y="686" type="curve"/>
      <point x="553" y="722"/>
      <point x="553" y="686"/>
      <point x="553" y="722" type="curve"/>
      <point x="501" y="722"/>
      <point x="455" y="722"/>
      <point x="403" y="722" type="curve"/>
      <point x="403" y="686"/>
      <point x="403" y="722"/>
    </contour>
    <contour>
      <point x="27" y="43" type="curve"/>
      <point x="65" y="22"/>
      <point x="118" y="-2"/>
      <point x="181" y="-2" type="curve"/>
      <point x="332" y="-2"/>
      <point x="424" y="76"/>
      <point x="424" y="223" type="curve"/>
      <point x="424" y="390"/>
      <point x="424" y="554"/>
      <point x="424" y="722" type="curve"/>
      <point x="381" y="722"/>
      <point x="423" y="722"/>
      <point x="380" y="722" type="curve"/>
      <point x="380" y="554"/>
      <point x="380" y="390"/>
      <point x="380" y="223" type="curve"/>
      <point x="380" y="102"/>
      <point x="305" y="35"/>
      <point x="181" y="35" type="curve"/>
      <point x="128" y="35"/>
      <point x="92" y="51"/>
      <point x="47" y="71" type="curve"/>
      <point x="28" y="44"/>
      <point x="47" y="70"/>
    </contour>
  </outline>
</glyph>
<glyph name="K" format="1">
  <advance width="883"/>
  <unicode hex="004B"/>
  <outline>
    <contour>
      <point x="500" y="-4" type="move" name="bottom"/>
    </contour>
    <contour>
      <point x="688" y="722" type="curve"/>
      <point x="632" y="722"/>
      <point x="565" y="722"/>
      <point x="509" y="722" type="curve"/>
      <point x="509" y="686"/>
      <point x="509" y="722"/>
      <point x="509" y="686" type="curve"/>
      <point x="678" y="686"/>
      <point x="519" y="686"/>
      <point x="688" y="686" type="curve"/>
      <point x="688" y="722"/>
      <point x="688" y="686"/>
    </contour>
    <contour>
      <point x="718" y="0" type="curve"/>
      <point x="773" y="0"/>
      <point x="815" y="0"/>
      <point x="869" y="0" type="curve"/>
      <point x="869" y="36"/>
      <point x="869" y="0"/>
      <point x="869" y="36" type="curve"/>
      <point x="707" y="36"/>
      <point x="881" y="36"/>
      <point x="718" y="36" type="curve"/>
      <point x="718" y="0"/>
      <point x="718" y="36"/>
    </contour>
    <contour>
      <point x="688" y="686" type="curve"/>
      <point x="848" y="686"/>
      <point x="673" y="686"/>
      <point x="834" y="686" type="curve"/>
      <point x="834" y="722"/>
      <point x="834" y="686"/>
      <point x="834" y="722" type="curve"/>
      <point x="780" y="722"/>
      <point x="742" y="722"/>
      <point x="688" y="722" type="curve"/>
      <point x="688" y="686"/>
      <point x="688" y="722"/>
    </contour>
    <contour>
      <point x="205" y="722" type="curve"/>
      <point x="149" y="722"/>
      <point x="100" y="722"/>
      <point x="43" y="722" type="curve"/>
      <point x="43" y="686"/>
      <point x="43" y="722"/>
      <point x="43" y="686" type="curve"/>
      <point x="211" y="686"/>
      <point x="37" y="686"/>
      <point x="205" y="686" type="curve"/>
      <point x="205" y="722"/>
      <point x="205" y="686"/>
    </contour>
    <contour>
      <point x="205" y="686" type="curve"/>
      <point x="371" y="686"/>
      <point x="200" y="686"/>
      <point x="366" y="686" type="curve"/>
      <point x="366" y="722"/>
      <point x="366" y="686"/>
      <point x="366" y="722" type="curve"/>
      <point x="311" y="722"/>
      <point x="261" y="722"/>
      <point x="205" y="722" type="curve"/>
      <point x="205" y="686"/>
      <point x="205" y="722"/>
    </contour>
    <contour>
      <point x="205" y="0" type="curve"/>
      <point x="262" y="0"/>
      <point x="198" y="0"/>
      <point x="368" y="0" type="curve"/>
      <point x="368" y="36"/>
      <point x="368" y="0"/>
      <point x="368" y="36" type="curve"/>
      <point x="198" y="36"/>
      <point x="375" y="36"/>
      <point x="205" y="36" type="curve"/>
      <point x="205" y="0"/>
      <point x="205" y="36"/>
    </contour>
    <contour>
      <point x="205" y="36" type="curve"/>
      <point x="37" y="36"/>
      <point x="211" y="36"/>
      <point x="43" y="36" type="curve"/>
      <point x="43" y="0"/>
      <point x="43" y="36"/>
      <point x="43" y="0" type="curve"/>
      <point x="100" y="0"/>
      <point x="149" y="0"/>
      <point x="205" y="0" type="curve"/>
      <point x="205" y="36"/>
      <point x="205" y="0"/>
    </contour>
    <contour>
      <point x="680" y="722" type="curve"/>
      <point x="209" y="380" type="line"/>
      <point x="270" y="380"/>
      <point x="211" y="380"/>
      <point x="273" y="380" type="curve"/>
      <point x="736" y="715" type="line"/>
      <point x="671" y="715"/>
      <point x="746" y="722"/>
    </contour>
    <contour>
      <point x="228" y="0" type="curve"/>
      <point x="228" y="722" type="line"/>
      <point x="184" y="722"/>
      <point x="228" y="722"/>
      <point x="184" y="722" type="curve"/>
      <point x="184" y="481"/>
      <point x="184" y="241"/>
      <point x="184" y="0" type="curve"/>
      <point x="228" y="0"/>
      <point x="184" y="0"/>
    </contour>
    <contour>
      <point x="770" y="8" type="curve"/>
      <point x="273" y="380" type="line"/>
      <point x="211" y="380"/>
      <point x="270" y="380"/>
      <point x="209" y="380" type="curve"/>
      <point x="710" y="0" type="line"/>
      <point x="779" y="0"/>
      <point x="701" y="8"/>
    </contour>
  </outline>
</glyph>
<glyph name="N" format="1">
  <advance width="1086"/>
  <unicode hex="004E"/>
  <outline>
    <contour>
      <point x="547" y="818" type="move" name="top"/>
    </contour>
    <contour>
      <point x="570" y="-2" type="move" name="bottom"/>
    </contour>
    <contour>
      <point x="207" y="722" type="curve"/>
      <point x="151" y="722"/>
      <point x="101" y="722"/>
      <point x="44" y="722" type="curve"/>
      <point x="44" y="686"/>
      <point x="44" y="722"/>
      <point x="44" y="686" type="curve"/>
      <point x="213" y="686"/>
      <point x="39" y="686"/>
      <point x="207" y="686" type="curve"/>
      <point x="207" y="722"/>
      <point x="207" y="686"/>
    </contour>
    <contour>
      <point x="897" y="686" type="curve"/>
      <point x="1065" y="686"/>
      <point x="891" y="686"/>
      <point x="1059" y="686" type="curve"/>
      <point x="1059" y="722"/>
      <point x="1059" y="686"/>
      <point x="1059" y="722" type="curve"/>
      <point x="1003" y="722"/>
      <point x="953" y="722"/>
      <point x="897" y="722" type="curve"/>
      <point x="897" y="686"/>
      <point x="897" y="722"/>
    </contour>
    <contour>
      <point x="899" y="722" type="curve"/>
      <point x="843" y="722"/>
      <point x="792" y="722"/>
      <point x="737" y="722" type="curve"/>
      <point x="737" y="686"/>
      <point x="737" y="722"/>
      <point x="737" y="686" type="curve"/>
      <point x="905" y="686"/>
      <point x="731" y="686"/>
      <point x="899" y="686" type="curve"/>
      <point x="899" y="722"/>
      <point x="899" y="686"/>
    </contour>
    <contour>
      <point x="206" y="36" type="curve"/>
      <point x="38" y="36"/>
      <point x="212" y="36"/>
      <point x="43" y="36" type="curve"/>
      <point x="43" y="0"/>
      <point x="43" y="36"/>
      <point x="43" y="0" type="curve"/>
      <point x="100" y="0"/>
      <point x="149" y="0"/>
      <point x="206" y="0" type="curve"/>
      <point x="206" y="36"/>
      <point x="206" y="0"/>
    </contour>
    <contour>
      <point x="206" y="0" type="curve"/>
      <point x="262" y="0"/>
      <point x="200" y="0"/>
      <point x="369" y="0" type="curve"/>
      <point x="369" y="36"/>
      <point x="369" y="0"/>
      <point x="369" y="36" type="curve"/>
      <point x="200" y="36"/>
      <point x="374" y="36"/>
      <point x="206" y="36" type="curve"/>
      <point x="206" y="0"/>
      <point x="206" y="36"/>
    </contour>
    <contour>
      <point x="919" y="0" type="curve"/>
      <point x="691" y="241"/>
      <point x="463" y="481"/>
      <point x="236" y="722" type="curve"/>
      <point x="182" y="722"/>
      <point x="233" y="722"/>
      <point x="179" y="722" type="curve"/>
      <point x="407" y="481"/>
      <point x="635" y="241"/>
      <point x="863" y="0" type="curve"/>
      <point x="916" y="0"/>
      <point x="866" y="0"/>
    </contour>
    <contour>
      <point x="876" y="722" type="curve"/>
      <point x="876" y="481"/>
      <point x="876" y="241"/>
      <point x="876" y="0" type="curve"/>
      <point x="920" y="0"/>
      <point x="876" y="0"/>
      <point x="920" y="0" type="curve"/>
      <point x="920" y="241"/>
      <point x="920" y="481"/>
      <point x="920" y="722" type="curve"/>
      <point x="876" y="722"/>
      <point x="920" y="722"/>
    </contour>
    <contour>
      <point x="228" y="0" type="curve"/>
      <point x="228" y="241"/>
      <point x="228" y="481"/>
      <point x="228" y="722" type="curve"/>
      <point x="184" y="722"/>
      <point x="228" y="722"/>
      <point x="184" y="722" type="curve"/>
      <point x="184" y="481"/>
      <point x="184" y="241"/>
      <point x="184" y="0" type="curve"/>
      <point x="228" y="0"/>
      <point x="184" y="0"/>
    </contour>
  </outline>
</glyph>
<glyph name="P" format="1">
  <advance width="752"/>
  <unicode hex="0050"/>
  <outline>
    <contour>
      <point x="211" y="722" type="curve"/>
      <point x="156" y="722"/>
      <point x="103" y="722"/>
      <point x="48" y="722" type="curve"/>
      <point x="48" y="686"/>
      <point x="48" y="722"/>
      <point x="48" y="686" type="curve"/>
      <point x="212" y="686"/>
      <point x="46" y="686"/>
      <point x="211" y="686" type="curve"/>
      <point x="211" y="722"/>
      <point x="211" y="686"/>
    </contour>
    <contour>
      <point x="211" y="36" type="curve"/>
      <point x="46" y="36"/>
      <point x="212" y="36"/>
      <point x="48" y="36" type="curve"/>
      <point x="48" y="0"/>
      <point x="48" y="36"/>
      <point x="48" y="0" type="curve"/>
      <point x="103" y="0"/>
      <point x="156" y="0"/>
      <point x="211" y="0" type="curve"/>
      <point x="211" y="36"/>
      <point x="211" y="0"/>
    </contour>
    <contour>
      <point x="211" y="0" type="curve"/>
      <point x="265" y="0"/>
      <point x="209" y="0"/>
      <point x="373" y="0" type="curve"/>
      <point x="373" y="36"/>
      <point x="373" y="0"/>
      <point x="373" y="36" type="curve"/>
      <point x="209" y="36"/>
      <point x="374" y="36"/>
      <point x="211" y="36" type="curve"/>
      <point x="211" y="0"/>
      <point x="211" y="36"/>
    </contour>
    <contour>
      <point x="206" y="320" type="curve"/>
      <point x="273" y="294"/>
      <point x="339" y="275"/>
      <point x="412" y="275" type="curve"/>
      <point x="574" y="278"/>
      <point x="696" y="343"/>
      <point x="696" y="492" type="curve"/>
      <point x="696" y="651"/>
      <point x="556" y="722"/>
      <point x="379" y="722" type="curve"/>
      <point x="324" y="722"/>
      <point x="269" y="722"/>
      <point x="215" y="722" type="curve"/>
      <point x="215" y="686"/>
      <point x="215" y="722"/>
      <point x="215" y="686" type="curve"/>
      <point x="267" y="686"/>
      <point x="320" y="686"/>
      <point x="374" y="686" type="curve"/>
      <point x="528" y="686"/>
      <point x="652" y="630"/>
      <point x="652" y="492" type="curve"/>
      <point x="652" y="367"/>
      <point x="547" y="310"/>
      <point x="413" y="310" type="curve"/>
      <point x="339" y="310"/>
      <point x="287" y="326"/>
      <point x="220" y="353" type="curve"/>
      <point x="206" y="320"/>
      <point x="220" y="353"/>
    </contour>
    <contour>
      <point x="231" y="0" type="curve"/>
      <point x="231" y="241"/>
      <point x="231" y="481"/>
      <point x="231" y="722" type="curve"/>
      <point x="187" y="722"/>
      <point x="231" y="722"/>
      <point x="187" y="722" type="curve"/>
      <point x="187" y="481"/>
      <point x="187" y="241"/>
      <point x="187" y="0" type="curve"/>
      <point x="231" y="0"/>
      <point x="187" y="0"/>
    </contour>
  </outline>
</glyph>
<glyph name="Q" format="1">
  <advance width="979"/>
  <unicode hex="0051"/>
  <outline>
    <contour>
      <point x="451" y="8" type="curve"/>
      <point x="593" y="-189"/>
      <point x="747" y="-235"/>
      <point x="977" y="-235" type="curve"/>
      <point x="977" y="-198"/>
      <point x="977" y="-235"/>
      <point x="977" y="-198" type="curve"/>
      <point x="765" y="-198"/>
      <point x="622" y="-156"/>
      <point x="489" y="26" type="curve"/>
      <point x="451" y="8"/>
      <point x="489" y="26"/>
    </contour>
    <contour>
      <point x="113" y="360" type="curve"/>
      <point x="113" y="565"/>
      <point x="250" y="688"/>
      <point x="460" y="688" type="curve"/>
      <point x="669" y="688"/>
      <point x="807" y="567"/>
      <point x="807" y="363" type="curve"/>
      <point x="807" y="158"/>
      <point x="671" y="33"/>
      <point x="463" y="33" type="curve"/>
      <point x="251" y="33"/>
      <point x="113" y="155"/>
      <point x="113" y="360" type="curve"/>
      <point x="68" y="360"/>
      <point x="113" y="360"/>
      <point x="68" y="360" type="curve"/>
      <point x="68" y="130"/>
      <point x="226" y="-5"/>
      <point x="461" y="-5" type="curve"/>
      <point x="695" y="-5"/>
      <point x="852" y="133"/>
      <point x="852" y="364" type="curve"/>
      <point x="852" y="593"/>
      <point x="695" y="728"/>
      <point x="462" y="728" type="curve"/>
      <point x="226" y="728"/>
      <point x="68" y="590"/>
      <point x="68" y="360" type="curve"/>
      <point x="113" y="360"/>
      <point x="68" y="360"/>
    </contour>
  </outline>
</glyph>
<glyph name="V" format="1">
  <advance width="1011"/>
  <unicode hex="0056"/>
  <outline>
    <contour>
      <point x="832" y="722" type="curve"/>
      <point x="775" y="722"/>
      <point x="719" y="722"/>
      <point x="663" y="722" type="curve"/>
      <point x="663" y="686"/>
      <point x="663" y="722"/>
      <point x="663" y="686" type="curve"/>
      <point x="833" y="686"/>
      <point x="662" y="686"/>
      <point x="832" y="686" type="curve"/>
      <point x="832" y="722"/>
      <point x="832" y="686"/>
    </contour>
    <contour>
      <point x="144" y="722" type="curve"/>
      <point x="90" y="722"/>
      <point x="37" y="722"/>
      <point x="-16" y="722" type="curve"/>
      <point x="-16" y="686"/>
      <point x="-16" y="722"/>
      <point x="-16" y="686" type="curve"/>
      <point x="145" y="686"/>
      <point x="-17" y="686"/>
      <point x="144" y="686" type="curve"/>
      <point x="144" y="722"/>
      <point x="144" y="686"/>
    </contour>
    <contour>
      <point x="834" y="686" type="curve"/>
      <point x="995" y="686"/>
      <point x="834" y="686"/>
      <point x="995" y="686" type="curve"/>
      <point x="995" y="722"/>
      <point x="995" y="686"/>
      <point x="995" y="722" type="curve"/>
      <point x="941" y="722"/>
      <point x="888" y="722"/>
      <point x="834" y="722" type="curve"/>
      <point x="834" y="686"/>
      <point x="834" y="722"/>
    </contour>
    <contour>
      <point x="147" y="686" type="curve"/>
      <point x="318" y="686"/>
      <point x="146" y="686"/>
      <point x="317" y="686" type="curve"/>
      <point x="317" y="722"/>
      <point x="317" y="686"/>
      <point x="317" y="722" type="curve"/>
      <point x="260" y="722"/>
      <point x="204" y="722"/>
      <point x="147" y="722" type="curve"/>
      <point x="147" y="686"/>
      <point x="147" y="722"/>
    </contour>
    <contour>
      <point x="828" y="722" type="curve"/>
      <point x="709" y="481"/>
      <point x="591" y="241"/>
      <point x="473" y="0" type="curve"/>
      <point x="519" y="0"/>
      <point x="473" y="0"/>
      <point x="519" y="0" type="curve"/>
      <point x="638" y="241"/>
      <point x="756" y="481"/>
      <point x="875" y="722" type="curve"/>
      <point x="828" y="722"/>
      <point x="875" y="722"/>
    </contour>
    <contour>
      <point x="104" y="722" type="curve"/>
      <point x="225" y="481"/>
      <point x="345" y="241"/>
      <point x="465" y="0" type="curve"/>
      <point x="512" y="0"/>
      <point x="466" y="0"/>
      <point x="513" y="0" type="curve"/>
      <point x="392" y="241"/>
      <point x="272" y="481"/>
      <point x="153" y="722" type="curve"/>
      <point x="105" y="722"/>
      <point x="152" y="722"/>
    </contour>
  </outline>
</glyph>
<glyph name="W" format="1">
  <advance width="1270"/>
  <unicode hex="0057"/>
  <outline>
    <contour>
      <point x="158" y="686" type="curve"/>
      <point x="320" y="686"/>
      <point x="157" y="686"/>
      <point x="320" y="686" type="curve"/>
      <point x="320" y="722"/>
      <point x="320" y="686"/>
      <point x="320" y="722" type="curve"/>
      <point x="265" y="722"/>
      <point x="212" y="722"/>
      <point x="158" y="722" type="curve"/>
      <point x="158" y="686"/>
      <point x="158" y="722"/>
    </contour>
    <contour>
      <point x="158" y="722" type="curve"/>
      <point x="104" y="722"/>
      <point x="49" y="722"/>
      <point x="-5" y="722" type="curve"/>
      <point x="-5" y="686"/>
      <point x="-5" y="722"/>
      <point x="-5" y="686" type="curve"/>
      <point x="158" y="686"/>
      <point x="-6" y="686"/>
      <point x="158" y="686" type="curve"/>
      <point x="158" y="722"/>
      <point x="158" y="686"/>
    </contour>
    <contour>
      <point x="1095" y="722" type="curve"/>
      <point x="1040" y="722"/>
      <point x="987" y="722"/>
      <point x="933" y="722" type="curve"/>
      <point x="933" y="686"/>
      <point x="933" y="722"/>
      <point x="933" y="686" type="curve"/>
      <point x="1095" y="686"/>
      <point x="932" y="686"/>
      <point x="1095" y="686" type="curve"/>
      <point x="1095" y="722"/>
      <point x="1095" y="686"/>
    </contour>
    <contour>
      <point x="1095" y="686" type="curve"/>
      <point x="1258" y="686"/>
      <point x="1094" y="686"/>
      <point x="1257" y="686" type="curve"/>
      <point x="1257" y="722"/>
      <point x="1257" y="686"/>
      <point x="1257" y="722" type="curve"/>
      <point x="1203" y="722"/>
      <point x="1149" y="722"/>
      <point x="1095" y="722" type="curve"/>
      <point x="1095" y="686"/>
      <point x="1095" y="722"/>
    </contour>
    <contour>
      <point x="394" y="0" type="curve"/>
      <point x="479" y="241"/>
      <point x="564" y="481"/>
      <point x="650" y="722" type="curve"/>
      <point x="607" y="722"/>
      <point x="650" y="722"/>
      <point x="608" y="722" type="curve"/>
      <point x="524" y="481"/>
      <point x="439" y="241"/>
      <point x="355" y="0" type="curve"/>
      <point x="392" y="0"/>
      <point x="357" y="0"/>
    </contour>
    <contour>
      <point x="618" y="722" type="curve"/>
      <point x="695" y="481"/>
      <point x="771" y="241"/>
      <point x="848" y="0" type="curve"/>
      <point x="885" y="0"/>
      <point x="850" y="0"/>
      <point x="888" y="0" type="curve"/>
      <point x="813" y="241"/>
      <point x="737" y="481"/>
      <point x="659" y="722" type="curve"/>
      <point x="617" y="722"/>
      <point x="660" y="722"/>
    </contour>
    <contour>
      <point x="117" y="722" type="curve"/>
      <point x="194" y="481"/>
      <point x="272" y="241"/>
      <point x="350" y="0" type="curve"/>
      <point x="387" y="0"/>
      <point x="353" y="0"/>
      <point x="390" y="0" type="curve"/>
      <point x="314" y="240"/>
      <point x="237" y="482"/>
      <point x="162" y="722" type="curve"/>
      <point x="117" y="722"/>
      <point x="162" y="722"/>
    </contour>
    <contour>
      <point x="1091" y="722" type="curve"/>
      <point x="1011" y="481"/>
      <point x="932" y="241"/>
      <point x="854" y="0" type="curve"/>
      <point x="891" y="0"/>
      <point x="856" y="0"/>
      <point x="893" y="0" type="curve"/>
      <point x="974" y="241"/>
      <point x="1054" y="481"/>
      <point x="1135" y="722" type="curve"/>
      <point x="1091" y="722"/>
      <point x="1135" y="722"/>
    </contour>
  </outline>
</glyph>
<glyph name="X" format="1">
  <advance width="940"/>
  <unicode hex="0058"/>
  <outline>
    <contour>
      <point x="165" y="0" type="curve"/>
      <point x="222" y="0"/>
      <point x="164" y="0"/>
      <point x="332" y="0" type="curve"/>
      <point x="332" y="36"/>
      <point x="332" y="0"/>
      <point x="332" y="36" type="curve"/>
      <point x="164" y="36"/>
      <point x="333" y="36"/>
      <point x="165" y="36" type="curve"/>
      <point x="165" y="0"/>
      <point x="165" y="36"/>
    </contour>
    <contour>
      <point x="165" y="36" type="curve"/>
      <point x="0" y="36"/>
      <point x="166" y="36"/>
      <point x="1" y="36" type="curve"/>
      <point x="1" y="0"/>
      <point x="1" y="36"/>
      <point x="1" y="0" type="curve"/>
      <point x="56" y="0"/>
      <point x="111" y="0"/>
      <point x="165" y="0" type="curve"/>
      <point x="165" y="36"/>
      <point x="165" y="0"/>
    </contour>
    <contour>
      <point x="772" y="0" type="curve"/>
      <point x="826" y="0"/>
      <point x="882" y="0"/>
      <point x="936" y="0" type="curve"/>
      <point x="936" y="36"/>
      <point x="936" y="0"/>
      <point x="936" y="36" type="curve"/>
      <point x="771" y="36"/>
      <point x="937" y="36"/>
      <point x="772" y="36" type="curve"/>
      <point x="772" y="0"/>
      <point x="772" y="36"/>
    </contour>
    <contour>
      <point x="772" y="36" type="curve"/>
      <point x="604" y="36"/>
      <point x="773" y="36"/>
      <point x="605" y="36" type="curve"/>
      <point x="605" y="0"/>
      <point x="605" y="36"/>
      <point x="605" y="0" type="curve"/>
      <point x="661" y="0"/>
      <point x="716" y="0"/>
      <point x="772" y="0" type="curve"/>
      <point x="772" y="36"/>
      <point x="772" y="0"/>
    </contour>
    <contour>
      <point x="739" y="686" type="curve"/>
      <point x="904" y="686"/>
      <point x="738" y="686"/>
      <point x="903" y="686" type="curve"/>
      <point x="903" y="722"/>
      <point x="903" y="686"/>
      <point x="903" y="722" type="curve"/>
      <point x="848" y="722"/>
      <point x="793" y="722"/>
      <point x="739" y="722" type="curve"/>
      <point x="739" y="686"/>
      <point x="739" y="722"/>
    </contour>
    <contour>
      <point x="739" y="722" type="curve"/>
      <point x="683" y="722"/>
      <point x="628" y="722"/>
      <point x="572" y="722" type="curve"/>
      <point x="572" y="686"/>
      <point x="572" y="722"/>
      <point x="572" y="686" type="curve"/>
      <point x="739" y="686"/>
      <point x="571" y="686"/>
      <point x="739" y="686" type="curve"/>
      <point x="739" y="722"/>
      <point x="739" y="686"/>
    </contour>
    <contour>
      <point x="205" y="722" type="curve"/>
      <point x="151" y="722"/>
      <point x="95" y="722"/>
      <point x="41" y="722" type="curve"/>
      <point x="41" y="686"/>
      <point x="41" y="722"/>
      <point x="41" y="686" type="curve"/>
      <point x="206" y="686"/>
      <point x="40" y="686"/>
      <point x="205" y="686" type="curve"/>
      <point x="205" y="722"/>
      <point x="205" y="686"/>
    </contour>
    <contour>
      <point x="205" y="686" type="curve"/>
      <point x="373" y="686"/>
      <point x="204" y="686"/>
      <point x="372" y="686" type="curve"/>
      <point x="372" y="722"/>
      <point x="372" y="686"/>
      <point x="372" y="722" type="curve"/>
      <point x="316" y="722"/>
      <point x="261" y="722"/>
      <point x="205" y="722" type="curve"/>
      <point x="205" y="686"/>
      <point x="205" y="722"/>
    </contour>
    <contour>
      <point x="747" y="722" type="curve"/>
      <point x="536" y="483"/>
      <point x="324" y="246"/>
      <point x="114" y="7" type="curve"/>
      <point x="164" y="7"/>
      <point x="114" y="0"/>
      <point x="164" y="0" type="curve"/>
      <point x="373" y="239"/>
      <point x="582" y="477"/>
      <point x="793" y="716" type="curve"/>
      <point x="747" y="716"/>
      <point x="793" y="722"/>
    </contour>
    <contour>
      <point x="155" y="716" type="curve"/>
      <point x="363" y="477"/>
      <point x="570" y="239"/>
      <point x="779" y="0" type="curve"/>
      <point x="827" y="0"/>
      <point x="779" y="5"/>
      <point x="827" y="5" type="curve"/>
      <point x="618" y="244"/>
      <point x="409" y="482"/>
      <point x="200" y="722" type="curve"/>
      <point x="155" y="722"/>
      <point x="200" y="716"/>
    </contour>
  </outline>
</glyph>
<glyph name="bracketleft" format="1">
  <advance width="336"/>
  <unicode hex="005B"/>
  <outline>
    <contour>
      <point x="293" y="771" type="curve"/>
      <point x="228" y="771"/>
      <point x="163" y="771"/>
      <point x="97" y="771" type="curve"/>
      <point x="94" y="771"/>
      <point x="90" y="771"/>
      <point x="85" y="771" type="curve"/>
      <point x="85" y="767"/>
      <point x="85" y="761"/>
      <point x="85" y="757" type="curve"/>
      <point x="85" y="468"/>
      <point x="85" y="179"/>
      <point x="85" y="-111" type="curve"/>
      <point x="85" y="-114"/>
      <point x="85" y="-119"/>
      <point x="85" y="-122" type="curve"/>
      <point x="88" y="-122"/>
      <point x="92" y="-122"/>
      <point x="96" y="-122" type="curve"/>
      <point x="162" y="-122"/>
      <point x="227" y="-122"/>
      <point x="293" y="-122" type="curve"/>
      <point x="293" y="-83"/>
      <point x="293" y="-122"/>
      <point x="293" y="-83" type="curve"/>
      <point x="227" y="-83"/>
      <point x="162" y="-83"/>
      <point x="96" y="-83" type="curve"/>
      <point x="129" y="-83"/>
      <point x="96" y="-83"/>
      <point x="129" y="-83" type="curve"/>
      <point x="129" y="-111"/>
      <point x="129" y="-83"/>
      <point x="129" y="-111" type="curve"/>
      <point x="129" y="179"/>
      <point x="129" y="468"/>
      <point x="129" y="757" type="curve"/>
      <point x="129" y="732"/>
      <point x="129" y="757"/>
      <point x="129" y="732" type="curve"/>
      <point x="97" y="732"/>
      <point x="129" y="732"/>
      <point x="97" y="732" type="curve"/>
      <point x="163" y="732"/>
      <point x="228" y="732"/>
      <point x="293" y="732" type="curve"/>
      <point x="293" y="771"/>
      <point x="293" y="732"/>
    </contour>
  </outline>
</glyph>
<glyph name="backslash" format="1">
  <advance width="628"/>
  <unicode hex="005C"/>
  <outline>
    <contour>
      <point x="587" y="-68" type="curve"/>
      <point x="421" y="236"/>
      <point x="254" y="540"/>
      <point x="87" y="844" type="curve"/>
      <point x="41" y="844"/>
      <point x="87" y="844"/>
      <point x="41" y="844" type="curve"/>
      <point x="207" y="540"/>
      <point x="375" y="236"/>
      <point x="542" y="-68" type="curve"/>
      <point x="587" y="-68"/>
      <point x="542" y="-68"/>
    </contour>
  </outline>
</glyph>
<glyph name="asciicircum" format="1">
  <advance width="638"/>
  <unicode hex="005E"/>
  <outline>
    <contour>
      <point x="118" y="464" type="curve"/>
      <point x="192" y="577"/>
      <point x="267" y="688"/>
      <point x="340" y="801" type="curve"/>
      <point x="298" y="801"/>
      <point x="339" y="801"/>
      <point x="296" y="801" type="curve"/>
      <point x="222" y="688"/>
      <point x="148" y="577"/>
      <point x="74" y="464" type="curve"/>
      <point x="117" y="464"/>
      <point x="75" y="464"/>
    </contour>
    <contour>
      <point x="567" y="464" type="curve"/>
      <point x="493" y="573"/>
      <point x="415" y="692"/>
      <point x="342" y="801" type="curve"/>
      <point x="299" y="801"/>
      <point x="340" y="801"/>
      <point x="298" y="801" type="curve"/>
      <point x="370" y="692"/>
      <point x="450" y="573"/>
      <point x="523" y="464" type="curve"/>
      <point x="565" y="464"/>
      <point x="524" y="464"/>
    </contour>
  </outline>
</glyph>
<glyph name="underscore" format="1">
  <advance width="872"/>
  <unicode hex="005F"/>
  <outline>
    <contour>
      <point x="-1" y="-206" type="curve"/>
      <point x="290" y="-206"/>
      <point x="581" y="-206"/>
      <point x="871" y="-206" type="curve"/>
      <point x="871" y="-171"/>
      <point x="871" y="-206"/>
      <point x="871" y="-171" type="curve"/>
      <point x="581" y="-171"/>
      <point x="290" y="-171"/>
      <point x="-1" y="-171" type="curve"/>
      <point x="-1" y="-206"/>
      <point x="-1" y="-171"/>
    </contour>
  </outline>
</glyph>
<glyph name="grave" format="1">
  <advance width="468"/>
  <unicode hex="0060"/>
  <outline>
    <contour>
      <point x="266" y="583" type="move" name="_top"/>
    </contour>
    <contour>
      <point x="295" y="583" type="line"/>
      <point x="124" y="749" type="line"/>
      <point x="61" y="749" type="line"/>
      <point x="246" y="583" type="line"/>
    </contour>
  </outline>
</glyph>
<glyph name="b" format="1">
  <advance width="795"/>
  <unicode hex="0062"/>
  <outline>
    <contour>
      <point x="175" y="800" type="curve"/>
      <point x="119" y="800"/>
      <point x="68" y="800"/>
      <point x="12" y="800" type="curve"/>
      <point x="12" y="774"/>
      <point x="12" y="791"/>
      <point x="12" y="764" type="curve"/>
      <point x="162" y="764"/>
      <point x="24" y="764"/>
      <point x="175" y="764" type="curve"/>
      <point x="175" y="791"/>
      <point x="175" y="774"/>
    </contour>
    <contour>
      <point x="182" y="394" type="curve"/>
      <point x="239" y="449"/>
      <point x="333" y="502"/>
      <point x="443" y="502" type="curve"/>
      <point x="588" y="502"/>
      <point x="687" y="410"/>
      <point x="687" y="264" type="curve"/>
      <point x="687" y="122"/>
      <point x="586" y="30"/>
      <point x="442" y="31" type="curve"/>
      <point x="341" y="31"/>
      <point x="263" y="61"/>
      <point x="187" y="127" type="curve"/>
      <point x="167" y="112"/>
      <point x="180" y="120"/>
      <point x="159" y="105" type="curve"/>
      <point x="246" y="29"/>
      <point x="331" y="-5"/>
      <point x="448" y="-5" type="curve"/>
      <point x="616" y="-5"/>
      <point x="731" y="98"/>
      <point x="731" y="265" type="curve"/>
      <point x="731" y="433"/>
      <point x="617" y="538"/>
      <point x="449" y="538" type="curve"/>
      <point x="327" y="538"/>
      <point x="227" y="484"/>
      <point x="162" y="420" type="curve"/>
      <point x="177" y="401"/>
      <point x="167" y="412"/>
    </contour>
    <contour>
      <point x="194" y="0" type="curve"/>
      <point x="194" y="273"/>
      <point x="194" y="527"/>
      <point x="194" y="800" type="curve"/>
      <point x="164" y="800"/>
      <point x="181" y="800"/>
      <point x="151" y="800" type="curve"/>
      <point x="151" y="527"/>
      <point x="151" y="273"/>
      <point x="151" y="0" type="curve"/>
      <point x="181" y="0"/>
      <point x="164" y="0"/>
    </contour>
    <contour>
      <point x="175" y="36" type="curve"/>
      <point x="24" y="36"/>
      <point x="162" y="36"/>
      <point x="12" y="36" type="curve"/>
      <point x="12" y="9"/>
      <point x="12" y="26"/>
      <point x="12" y="0" type="curve"/>
      <point x="68" y="0"/>
      <point x="119" y="0"/>
      <point x="175" y="0" type="curve"/>
      <point x="175" y="26"/>
      <point x="175" y="9"/>
    </contour>
  </outline>
</glyph>
<glyph name="f" format="1">
  <advance width="598"/>
  <unicode hex="0066"/>
  <outline>
    <contour>
      <point x="551" y="772" type="curve"/>
      <point x="551" y="649"/>
      <point x="551" y="773"/>
      <point x="551" y="649" type="curve"/>
      <point x="587" y="649"/>
      <point x="551" y="649"/>
      <point x="587" y="649" type="curve"/>
      <point x="587" y="773"/>
      <point x="587" y="649"/>
      <point x="587" y="772" type="curve"/>
      <point x="551" y="772"/>
      <point x="587" y="772"/>
    </contour>
    <contour>
      <point x="272" y="0" type="curve"/>
      <point x="328" y="0"/>
      <point x="380" y="0"/>
      <point x="435" y="0" type="curve"/>
      <point x="435" y="36"/>
      <point x="435" y="0"/>
      <point x="435" y="36" type="curve"/>
      <point x="268" y="36"/>
      <point x="440" y="36"/>
      <point x="272" y="36" type="curve"/>
      <point x="272" y="0"/>
      <point x="272" y="36"/>
    </contour>
    <contour>
      <point x="272" y="36" type="curve"/>
      <point x="105" y="36"/>
      <point x="277" y="36"/>
      <point x="110" y="36" type="curve"/>
      <point x="110" y="0"/>
      <point x="110" y="36"/>
      <point x="110" y="0" type="curve"/>
      <point x="165" y="0"/>
      <point x="216" y="0"/>
      <point x="272" y="0" type="curve"/>
      <point x="272" y="36"/>
      <point x="272" y="0"/>
    </contour>
    <contour>
      <point x="38" y="497" type="curve"/>
      <point x="563" y="497" type="line"/>
      <point x="563" y="533"/>
      <point x="563" y="497"/>
      <point x="563" y="533" type="curve"/>
      <point x="38" y="533" type="line"/>
      <point x="38" y="497"/>
      <point x="38" y="533"/>
    </contour>
    <contour>
      <point x="294" y="0" type="curve"/>
      <point x="294" y="634" type="line"/>
      <point x="294" y="722"/>
      <point x="357" y="769"/>
      <point x="448" y="769" type="curve"/>
      <point x="490" y="769"/>
      <point x="532" y="757"/>
      <point x="569" y="744" type="curve"/>
      <point x="587" y="772"/>
      <point x="569" y="744"/>
      <point x="587" y="772" type="curve"/>
      <point x="543" y="788"/>
      <point x="495" y="804"/>
      <point x="448" y="804" type="curve"/>
      <point x="332" y="804"/>
      <point x="250" y="746"/>
      <point x="251" y="634" type="curve"/>
      <point x="251" y="0" type="line"/>
      <point x="294" y="0"/>
      <point x="251" y="0"/>
    </contour>
  </outline>
</glyph>
<glyph name="g" format="1">
  <advance width="673"/>
  <unicode hex="0067"/>
  <outline>
    <contour>
      <point x="344" y="662" type="move" name="top"/>
    </contour>
    <contour>
      <point x="461" y="491" type="curve"/>
      <point x="653" y="567" type="line"/>
      <point x="652" y="568"/>
      <point x="635" y="600"/>
      <point x="633" y="602" type="curve"/>
      <point x="439" y="517" type="line"/>
      <point x="461" y="491"/>
      <point x="439" y="517"/>
    </contour>
    <contour>
      <point x="142" y="355" type="curve"/>
      <point x="142" y="455"/>
      <point x="233" y="503"/>
      <point x="345" y="503" type="curve"/>
      <point x="455" y="503"/>
      <point x="541" y="457"/>
      <point x="541" y="357" type="curve"/>
      <point x="541" y="261"/>
      <point x="453" y="217"/>
      <point x="343" y="217" type="curve"/>
      <point x="234" y="217"/>
      <point x="142" y="257"/>
      <point x="142" y="355" type="curve"/>
      <point x="97" y="353"/>
      <point x="142" y="355"/>
      <point x="97" y="353" type="curve"/>
      <point x="97" y="234"/>
      <point x="206" y="182"/>
      <point x="339" y="182" type="curve"/>
      <point x="475" y="182"/>
      <point x="585" y="236"/>
      <point x="585" y="359" type="curve"/>
      <point x="585" y="481"/>
      <point x="478" y="538"/>
      <point x="345" y="538" type="curve"/>
      <point x="207" y="538"/>
      <point x="97" y="479"/>
      <point x="97" y="353" type="curve"/>
      <point x="142" y="355"/>
      <point x="97" y="353"/>
    </contour>
    <contour>
      <point x="205" y="230" type="curve"/>
      <point x="147" y="206"/>
      <point x="103" y="172"/>
      <point x="103" y="110" type="curve"/>
      <point x="103" y="5"/>
      <point x="216" y="-8"/>
      <point x="334" y="-16" type="curve"/>
      <point x="473" y="-25"/>
      <point x="614" y="-23"/>
      <point x="614" y="-140" type="curve"/>
      <point x="614" y="-250"/>
      <point x="480" y="-269"/>
      <point x="340" y="-269" type="curve"/>
      <point x="208" y="-269"/>
      <point x="88" y="-238"/>
      <point x="88" y="-129" type="curve"/>
      <point x="88" y="-53"/>
      <point x="147" y="-16"/>
      <point x="220" y="8" type="curve"/>
      <point x="198" y="30"/>
      <point x="220" y="8"/>
      <point x="198" y="30" type="curve"/>
      <point x="112" y="3"/>
      <point x="44" y="-41"/>
      <point x="44" y="-131" type="curve"/>
      <point x="44" y="-268"/>
      <point x="182" y="-304"/>
      <point x="338" y="-304" type="curve"/>
      <point x="503" y="-304"/>
      <point x="657" y="-282"/>
      <point x="653" y="-136" type="curve"/>
      <point x="653" y="5"/>
      <point x="499" y="8"/>
      <point x="342" y="18" type="curve"/>
      <point x="243" y="23"/>
      <point x="147" y="29"/>
      <point x="147" y="114" type="curve"/>
      <point x="147" y="162"/>
      <point x="180" y="188"/>
      <point x="225" y="209" type="curve"/>
      <point x="205" y="230"/>
      <point x="225" y="209"/>
    </contour>
  </outline>
</glyph>
<glyph name="h" format="1">
  <advance width="813"/>
  <unicode hex="0068"/>
  <outline>
    <contour>
      <point x="645" y="0" type="curve"/>
      <point x="701" y="0"/>
      <point x="752" y="0"/>
      <point x="808" y="0" type="curve"/>
      <point x="808" y="36"/>
      <point x="808" y="0"/>
      <point x="808" y="36" type="curve"/>
      <point x="640" y="36"/>
      <point x="812" y="36"/>
      <point x="645" y="36" type="curve"/>
      <point x="645" y="0"/>
      <point x="645" y="36"/>
    </contour>
    <contour>
      <point x="170" y="0" type="curve"/>
      <point x="222" y="0"/>
      <point x="166" y="0"/>
      <point x="320" y="0" type="curve"/>
      <point x="320" y="36"/>
      <point x="320" y="0"/>
      <point x="320" y="36" type="curve"/>
      <point x="166" y="36"/>
      <point x="325" y="36"/>
      <point x="170" y="36" type="curve"/>
      <point x="170" y="0"/>
      <point x="170" y="36"/>
    </contour>
    <contour>
      <point x="170" y="800" type="curve"/>
      <point x="115" y="800"/>
      <point x="62" y="800"/>
      <point x="7" y="800" type="curve"/>
      <point x="7" y="764"/>
      <point x="7" y="800"/>
      <point x="7" y="764" type="curve"/>
      <point x="175" y="764"/>
      <point x="2" y="764"/>
      <point x="170" y="764" type="curve"/>
      <point x="170" y="800"/>
      <point x="170" y="764"/>
    </contour>
    <contour>
      <point x="170" y="36" type="curve"/>
      <point x="2" y="36"/>
      <point x="175" y="36"/>
      <point x="7" y="36" type="curve"/>
      <point x="7" y="0"/>
      <point x="7" y="36"/>
      <point x="7" y="0" type="curve"/>
      <point x="62" y="0"/>
      <point x="115" y="0"/>
      <point x="170" y="0" type="curve"/>
      <point x="170" y="36"/>
      <point x="170" y="0"/>
    </contour>
    <contour>
      <point x="182" y="342" type="curve"/>
      <point x="228" y="442"/>
      <point x="330" y="502"/>
      <point x="438" y="502" type="curve"/>
      <point x="554" y="502"/>
      <point x="624" y="446"/>
      <point x="624" y="334" type="curve"/>
      <point x="624" y="223"/>
      <point x="624" y="112"/>
      <point x="624" y="0" type="curve"/>
      <point x="668" y="0"/>
      <point x="624" y="0"/>
      <point x="668" y="0" type="curve"/>
      <point x="668" y="114"/>
      <point x="668" y="226"/>
      <point x="668" y="340" type="curve"/>
      <point x="668" y="475"/>
      <point x="583" y="538"/>
      <point x="444" y="538" type="curve"/>
      <point x="322" y="538"/>
      <point x="207" y="476"/>
      <point x="161" y="360" type="curve"/>
      <point x="184" y="341"/>
      <point x="161" y="360"/>
    </contour>
    <contour>
      <point x="192" y="0" type="curve"/>
      <point x="192" y="267"/>
      <point x="192" y="533"/>
      <point x="192" y="800" type="curve"/>
      <point x="148" y="800"/>
      <point x="192" y="800"/>
      <point x="148" y="800" type="curve"/>
      <point x="148" y="533"/>
      <point x="148" y="267"/>
      <point x="148" y="0" type="curve"/>
      <point x="192" y="0"/>
      <point x="148" y="0"/>
    </contour>
  </outline>
</glyph>
<glyph name="k" format="1">
  <advance width="737"/>
  <unicode hex="006B"/>
  <outline>
    <contour>
      <point x="429" y="-5" type="move" name="bottom"/>
    </contour>
    <contour>
      <point x="170" y="36" type="curve"/>
      <point x="2" y="36"/>
      <point x="175" y="36"/>
      <point x="7" y="36" type="curve"/>
      <point x="7" y="0"/>
      <point x="7" y="36"/>
      <point x="7" y="0" type="curve"/>
      <point x="62" y="0"/>
      <point x="114" y="0"/>
      <point x="170" y="0" type="curve"/>
      <point x="170" y="36"/>
      <point x="170" y="0"/>
    </contour>
    <contour>
      <point x="557" y="0" type="curve"/>
      <point x="613" y="0"/>
      <point x="664" y="0"/>
      <point x="720" y="0" type="curve"/>
      <point x="720" y="36"/>
      <point x="720" y="0"/>
      <point x="720" y="36" type="curve"/>
      <point x="551" y="36"/>
      <point x="727" y="36"/>
      <point x="557" y="36" type="curve"/>
      <point x="557" y="0"/>
      <point x="557" y="36"/>
    </contour>
    <contour>
      <point x="530" y="497" type="curve"/>
      <point x="680" y="497"/>
      <point x="523" y="497"/>
      <point x="673" y="497" type="curve"/>
      <point x="673" y="533"/>
      <point x="673" y="497"/>
      <point x="673" y="533" type="curve"/>
      <point x="623" y="533"/>
      <point x="579" y="533"/>
      <point x="530" y="533" type="curve"/>
      <point x="530" y="497"/>
      <point x="530" y="533"/>
    </contour>
    <contour>
      <point x="170" y="0" type="curve"/>
      <point x="219" y="0"/>
      <point x="170" y="0"/>
      <point x="316" y="0" type="curve"/>
      <point x="316" y="36"/>
      <point x="316" y="0"/>
      <point x="316" y="36" type="curve"/>
      <point x="170" y="36"/>
      <point x="317" y="36"/>
      <point x="170" y="36" type="curve"/>
      <point x="170" y="0"/>
      <point x="170" y="36"/>
    </contour>
    <contour>
      <point x="533" y="533" type="curve"/>
      <point x="477" y="533"/>
      <point x="422" y="533"/>
      <point x="366" y="533" type="curve"/>
      <point x="366" y="497"/>
      <point x="366" y="533"/>
      <point x="366" y="497" type="curve"/>
      <point x="535" y="497"/>
      <point x="364" y="497"/>
      <point x="533" y="497" type="curve"/>
      <point x="533" y="533"/>
      <point x="533" y="497"/>
    </contour>
    <contour>
      <point x="173" y="800" type="curve"/>
      <point x="117" y="800"/>
      <point x="65" y="800"/>
      <point x="9" y="800" type="curve"/>
      <point x="9" y="764"/>
      <point x="9" y="800"/>
      <point x="9" y="764" type="curve"/>
      <point x="178" y="764"/>
      <point x="4" y="764"/>
      <point x="173" y="764" type="curve"/>
      <point x="173" y="800"/>
      <point x="173" y="764"/>
    </contour>
    <contour>
      <point x="193" y="0" type="curve"/>
      <point x="193" y="800" type="line"/>
      <point x="149" y="800"/>
      <point x="193" y="800"/>
      <point x="149" y="800" type="curve"/>
      <point x="149" y="533"/>
      <point x="149" y="267"/>
      <point x="149" y="0" type="curve"/>
      <point x="193" y="0"/>
      <point x="149" y="0"/>
    </contour>
    <contour>
      <point x="525" y="533" type="curve"/>
      <point x="177" y="275" type="line"/>
      <point x="241" y="275"/>
      <point x="177" y="275"/>
      <point x="241" y="275" type="curve"/>
      <point x="584" y="526" type="line"/>
      <point x="517" y="526"/>
      <point x="593" y="533"/>
    </contour>
    <contour>
      <point x="616" y="9" type="curve"/>
      <point x="241" y="275" type="line"/>
      <point x="177" y="275"/>
      <point x="241" y="275"/>
      <point x="177" y="275" type="curve"/>
      <point x="555" y="0" type="line"/>
      <point x="626" y="0"/>
      <point x="545" y="9"/>
    </contour>
  </outline>
</glyph>
<glyph name="l" format="1">
  <advance width="356"/>
  <unicode hex="006C"/>
  <outline>
    <contour>
      <point x="178" y="908" type="move" name="top"/>
    </contour>
    <contour>
      <point x="195" y="-2" type="move" name="bottom"/>
    </contour>
    <contour>
      <point x="178" y="36" type="curve"/>
      <point x="10" y="36"/>
      <point x="178" y="36"/>
      <point x="10" y="36" type="curve"/>
      <point x="10" y="0"/>
      <point x="10" y="36"/>
      <point x="10" y="0" type="curve"/>
      <point x="67" y="0"/>
      <point x="123" y="0"/>
      <point x="178" y="0" type="curve"/>
      <point x="178" y="36"/>
      <point x="178" y="0"/>
    </contour>
    <contour>
      <point x="181" y="800" type="curve"/>
      <point x="126" y="800"/>
      <point x="69" y="800"/>
      <point x="13" y="800" type="curve"/>
      <point x="13" y="764"/>
      <point x="13" y="800"/>
      <point x="13" y="764" type="curve"/>
      <point x="181" y="764"/>
      <point x="13" y="764"/>
      <point x="181" y="764" type="curve"/>
      <point x="181" y="800"/>
      <point x="181" y="764"/>
    </contour>
    <contour>
      <point x="178" y="0" type="curve"/>
      <point x="235" y="0"/>
      <point x="290" y="0"/>
      <point x="347" y="0" type="curve"/>
      <point x="347" y="36"/>
      <point x="347" y="0"/>
      <point x="347" y="36" type="curve"/>
      <point x="178" y="36"/>
      <point x="347" y="36"/>
      <point x="178" y="36" type="curve"/>
      <point x="178" y="0"/>
      <point x="178" y="36"/>
    </contour>
    <contour>
      <point x="199" y="0" type="curve"/>
      <point x="199" y="267"/>
      <point x="199" y="533"/>
      <point x="199" y="800" type="curve"/>
      <point x="155" y="800"/>
      <point x="199" y="800"/>
      <point x="155" y="800" type="curve"/>
      <point x="155" y="533"/>
      <point x="155" y="267"/>
      <point x="155" y="0" type="curve"/>
      <point x="199" y="0"/>
      <point x="155" y="0"/>
    </contour>
  </outline>
</glyph>
<glyph name="m" format="1">
  <advance width="1222"/>
  <unicode hex="006D"/>
  <outline>
    <contour>
      <point x="627" y="0" type="curve"/>
      <point x="764" y="0"/>
      <point x="627" y="0"/>
      <point x="764" y="0" type="curve"/>
      <point x="764" y="36"/>
      <point x="764" y="0"/>
      <point x="764" y="36" type="curve"/>
      <point x="627" y="36"/>
      <point x="764" y="36"/>
      <point x="627" y="36" type="curve"/>
      <point x="627" y="0"/>
      <point x="627" y="36"/>
    </contour>
    <contour>
      <point x="1053" y="0" type="curve"/>
      <point x="1106" y="0"/>
      <point x="1159" y="0"/>
      <point x="1212" y="0" type="curve"/>
      <point x="1212" y="36"/>
      <point x="1212" y="0"/>
      <point x="1212" y="36" type="curve"/>
      <point x="1052" y="36"/>
      <point x="1213" y="36"/>
      <point x="1053" y="36" type="curve"/>
      <point x="1053" y="0"/>
      <point x="1053" y="36"/>
    </contour>
    <contour>
      <point x="202" y="36" type="curve"/>
      <point x="39" y="36"/>
      <point x="203" y="36"/>
      <point x="40" y="36" type="curve"/>
      <point x="40" y="0"/>
      <point x="40" y="36"/>
      <point x="40" y="0" type="curve"/>
      <point x="93" y="0"/>
      <point x="148" y="0"/>
      <point x="202" y="0" type="curve"/>
      <point x="202" y="36"/>
      <point x="202" y="0"/>
    </contour>
    <contour>
      <point x="202" y="0" type="curve"/>
      <point x="248" y="0"/>
      <point x="201" y="0"/>
      <point x="339" y="0" type="curve"/>
      <point x="339" y="36"/>
      <point x="339" y="0"/>
      <point x="339" y="36" type="curve"/>
      <point x="201" y="36"/>
      <point x="341" y="36"/>
      <point x="202" y="36" type="curve"/>
      <point x="202" y="0"/>
      <point x="202" y="36"/>
    </contour>
    <contour>
      <point x="202" y="533" type="curve"/>
      <point x="148" y="533"/>
      <point x="93" y="533"/>
      <point x="40" y="533" type="curve"/>
      <point x="40" y="497"/>
      <point x="40" y="533"/>
      <point x="40" y="497" type="curve"/>
      <point x="203" y="497"/>
      <point x="39" y="497"/>
      <point x="202" y="497" type="curve"/>
      <point x="202" y="533"/>
      <point x="202" y="497"/>
    </contour>
    <contour>
      <point x="640" y="340" type="curve"/>
      <point x="686" y="441"/>
      <point x="763" y="502"/>
      <point x="866" y="502" type="curve"/>
      <point x="979" y="502"/>
      <point x="1030" y="450"/>
      <point x="1030" y="336" type="curve"/>
      <point x="1030" y="224"/>
      <point x="1030" y="112"/>
      <point x="1030" y="0" type="curve"/>
      <point x="1074" y="0"/>
      <point x="1030" y="0"/>
      <point x="1074" y="0" type="curve"/>
      <point x="1074" y="114"/>
      <point x="1074" y="226"/>
      <point x="1074" y="340" type="curve"/>
      <point x="1074" y="476"/>
      <point x="1012" y="538"/>
      <point x="876" y="538" type="curve"/>
      <point x="756" y="538"/>
      <point x="665" y="474"/>
      <point x="618" y="358" type="curve"/>
      <point x="640" y="340"/>
      <point x="618" y="358"/>
    </contour>
    <contour>
      <point x="215" y="341" type="curve"/>
      <point x="262" y="441"/>
      <point x="337" y="502"/>
      <point x="441" y="502" type="curve"/>
      <point x="553" y="502"/>
      <point x="605" y="450"/>
      <point x="605" y="336" type="curve"/>
      <point x="605" y="224"/>
      <point x="605" y="112"/>
      <point x="605" y="0" type="curve"/>
      <point x="649" y="0"/>
      <point x="605" y="0"/>
      <point x="649" y="0" type="curve"/>
      <point x="649" y="114"/>
      <point x="649" y="226"/>
      <point x="649" y="340" type="curve"/>
      <point x="649" y="476"/>
      <point x="587" y="538"/>
      <point x="452" y="538" type="curve"/>
      <point x="330" y="538"/>
      <point x="243" y="477"/>
      <point x="193" y="359" type="curve"/>
      <point x="215" y="341"/>
      <point x="193" y="359"/>
    </contour>
    <contour>
      <point x="224" y="0" type="curve"/>
      <point x="224" y="178"/>
      <point x="224" y="355"/>
      <point x="224" y="533" type="curve"/>
      <point x="180" y="533"/>
      <point x="224" y="533"/>
      <point x="180" y="533" type="curve"/>
      <point x="180" y="355"/>
      <point x="180" y="178"/>
      <point x="180" y="0" type="curve"/>
      <point x="224" y="0"/>
      <point x="180" y="0"/>
    </contour>
  </outline>
</glyph>
<glyph name="n" format="1">
  <advance width="840"/>
  <unicode hex="006E"/>
  <outline>
    <contour>
      <point x="442" y="660" type="move" name="top"/>
    </contour>
    <contour>
      <point x="476" y="-2" type="move" name="bottom"/>
    </contour>
    <contour>
      <point x="210" y="338" type="curve"/>
      <point x="255" y="440"/>
      <point x="353" y="502"/>
      <point x="463" y="502" type="curve"/>
      <point x="578" y="502"/>
      <point x="652" y="447"/>
      <point x="652" y="336" type="curve"/>
      <point x="652" y="223"/>
      <point x="652" y="113"/>
      <point x="652" y="0" type="curve"/>
      <point x="683" y="0"/>
      <point x="665" y="0"/>
      <point x="696" y="0" type="curve"/>
      <point x="696" y="115"/>
      <point x="696" y="225"/>
      <point x="696" y="340" type="curve"/>
      <point x="696" y="474"/>
      <point x="611" y="538"/>
      <point x="472" y="538" type="curve"/>
      <point x="347" y="538"/>
      <point x="233" y="475"/>
      <point x="188" y="355" type="curve"/>
      <point x="203" y="341"/>
      <point x="196" y="351"/>
    </contour>
    <contour>
      <point x="673" y="0" type="curve"/>
      <point x="728" y="0"/>
      <point x="780" y="0"/>
      <point x="835" y="0" type="curve"/>
      <point x="835" y="36"/>
      <point x="835" y="0"/>
      <point x="835" y="36" type="curve"/>
      <point x="668" y="36"/>
      <point x="840" y="36"/>
      <point x="673" y="36" type="curve"/>
      <point x="673" y="0"/>
      <point x="673" y="36"/>
    </contour>
    <contour>
      <point x="198" y="36" type="curve"/>
      <point x="30" y="36"/>
      <point x="203" y="36"/>
      <point x="35" y="36" type="curve"/>
      <point x="35" y="0"/>
      <point x="35" y="36"/>
      <point x="35" y="0" type="curve"/>
      <point x="91" y="0"/>
      <point x="143" y="0"/>
      <point x="198" y="0" type="curve"/>
      <point x="198" y="36"/>
      <point x="198" y="0"/>
    </contour>
    <contour>
      <point x="198" y="0" type="curve"/>
      <point x="249" y="0"/>
      <point x="193" y="0"/>
      <point x="347" y="0" type="curve"/>
      <point x="347" y="36"/>
      <point x="347" y="0"/>
      <point x="347" y="36" type="curve"/>
      <point x="193" y="36"/>
      <point x="352" y="36"/>
      <point x="198" y="36" type="curve"/>
      <point x="198" y="0"/>
      <point x="198" y="36"/>
    </contour>
    <contour>
      <point x="220" y="0" type="curve"/>
      <point x="220" y="178"/>
      <point x="220" y="355"/>
      <point x="220" y="533" type="curve"/>
      <point x="176" y="533"/>
      <point x="220" y="533"/>
      <point x="176" y="533" type="curve"/>
      <point x="176" y="355"/>
      <point x="176" y="178"/>
      <point x="176" y="0" type="curve"/>
      <point x="220" y="0"/>
      <point x="176" y="0"/>
    </contour>
    <contour>
      <point x="198" y="533" type="curve"/>
      <point x="143" y="533"/>
      <point x="91" y="533"/>
      <point x="35" y="533" type="curve"/>
      <point x="35" y="497"/>
      <point x="35" y="533"/>
      <point x="35" y="497" type="curve"/>
      <point x="203" y="497"/>
      <point x="30" y="497"/>
      <point x="198" y="497" type="curve"/>
      <point x="198" y="533"/>
      <point x="198" y="497"/>
    </contour>
  </outline>
</glyph>
<glyph name="o" format="1">
  <advance width="719"/>
  <unicode hex="006F"/>
  <outline>
    <contour>
      <point x="356" y="662" type="move" name="top"/>
    </contour>
    <contour>
      <point x="107" y="268" type="curve"/>
      <point x="107" y="419"/>
      <point x="203" y="503"/>
      <point x="355" y="503" type="curve"/>
      <point x="512" y="503"/>
      <point x="612" y="418"/>
      <point x="612" y="266" type="curve"/>
      <point x="612" y="115"/>
      <point x="513" y="31"/>
      <point x="361" y="31" type="curve"/>
      <point x="205" y="31"/>
      <point x="107" y="117"/>
      <point x="107" y="268" type="curve"/>
      <point x="66" y="268"/>
      <point x="105" y="268"/>
      <point x="64" y="268" type="curve"/>
      <point x="64" y="93"/>
      <point x="179" y="-5"/>
      <point x="359" y="-5" type="curve"/>
      <point x="540" y="-5"/>
      <point x="656" y="91"/>
      <point x="656" y="266" type="curve"/>
      <point x="656" y="441"/>
      <point x="539" y="538"/>
      <point x="357" y="538" type="curve"/>
      <point x="178" y="538"/>
      <point x="64" y="440"/>
      <point x="64" y="268" type="curve"/>
      <point x="105" y="268"/>
      <point x="66" y="268"/>
    </contour>
  </outline>
</glyph>
<glyph name="p" format="1">
  <advance width="799"/>
  <unicode hex="0070"/>
  <outline>
    <contour>
      <point x="177" y="-264" type="curve"/>
      <point x="1" y="-264"/>
      <point x="181" y="-264"/>
      <point x="6" y="-264" type="curve"/>
      <point x="6" y="-299"/>
      <point x="6" y="-264"/>
      <point x="6" y="-299" type="curve"/>
      <point x="66" y="-299"/>
      <point x="119" y="-299"/>
      <point x="177" y="-299" type="curve"/>
      <point x="177" y="-264"/>
      <point x="177" y="-299"/>
    </contour>
    <contour>
      <point x="177" y="-300" type="curve"/>
      <point x="232" y="-300"/>
      <point x="281" y="-300"/>
      <point x="335" y="-300" type="curve"/>
      <point x="335" y="-264"/>
      <point x="335" y="-300"/>
      <point x="335" y="-264" type="curve"/>
      <point x="172" y="-265"/>
      <point x="340" y="-264"/>
      <point x="177" y="-265" type="curve"/>
      <point x="177" y="-300"/>
      <point x="177" y="-265"/>
    </contour>
    <contour>
      <point x="178" y="533" type="curve"/>
      <point x="120" y="533"/>
      <point x="67" y="533"/>
      <point x="8" y="533" type="curve"/>
      <point x="8" y="497"/>
      <point x="8" y="533"/>
      <point x="8" y="497" type="curve"/>
      <point x="183" y="498"/>
      <point x="3" y="497"/>
      <point x="178" y="498" type="curve"/>
      <point x="178" y="533"/>
      <point x="178" y="498"/>
    </contour>
    <contour>
      <point x="185" y="401" type="curve"/>
      <point x="241" y="459"/>
      <point x="338" y="503"/>
      <point x="448" y="503" type="curve"/>
      <point x="593" y="503"/>
      <point x="692" y="416"/>
      <point x="692" y="274" type="curve"/>
      <point x="696" y="125"/>
      <point x="596" y="29"/>
      <point x="448" y="31" type="curve"/>
      <point x="345" y="31"/>
      <point x="269" y="68"/>
      <point x="187" y="133" type="curve"/>
      <point x="169" y="119"/>
      <point x="182" y="125"/>
      <point x="164" y="112" type="curve"/>
      <point x="249" y="36"/>
      <point x="335" y="-5"/>
      <point x="451" y="-5" type="curve"/>
      <point x="623" y="-5"/>
      <point x="736" y="106"/>
      <point x="735" y="276" type="curve"/>
      <point x="735" y="438"/>
      <point x="620" y="538"/>
      <point x="453" y="538" type="curve"/>
      <point x="333" y="538"/>
      <point x="228" y="491"/>
      <point x="166" y="426" type="curve"/>
      <point x="182" y="408"/>
      <point x="171" y="419"/>
    </contour>
    <contour>
      <point x="199" y="-300" type="curve"/>
      <point x="199" y="-22"/>
      <point x="199" y="255"/>
      <point x="199" y="533" type="curve"/>
      <point x="156" y="533"/>
      <point x="199" y="533"/>
      <point x="156" y="533" type="curve"/>
      <point x="156" y="255"/>
      <point x="156" y="-22"/>
      <point x="156" y="-300" type="curve"/>
      <point x="199" y="-300"/>
      <point x="156" y="-300"/>
    </contour>
  </outline>
</glyph>
<glyph name="q" format="1">
  <advance width="790"/>
  <unicode hex="0071"/>
  <outline>
    <contour>
      <point x="627" y="497" type="curve"/>
      <point x="767" y="497"/>
      <point x="638" y="497"/>
      <point x="777" y="497" type="curve"/>
      <point x="777" y="523"/>
      <point x="777" y="507"/>
      <point x="777" y="533" type="curve"/>
      <point x="726" y="533"/>
      <point x="680" y="533"/>
      <point x="627" y="533" type="curve"/>
      <point x="627" y="507"/>
      <point x="627" y="523"/>
    </contour>
    <contour>
      <point x="627" y="-265" type="curve"/>
      <point x="476" y="-264"/>
      <point x="616" y="-265"/>
      <point x="465" y="-264" type="curve"/>
      <point x="465" y="-290"/>
      <point x="465" y="-274"/>
      <point x="465" y="-300" type="curve"/>
      <point x="522" y="-300"/>
      <point x="571" y="-300"/>
      <point x="627" y="-300" type="curve"/>
      <point x="627" y="-275"/>
      <point x="627" y="-290"/>
    </contour>
    <contour>
      <point x="627" y="-300" type="curve"/>
      <point x="680" y="-300"/>
      <point x="726" y="-300"/>
      <point x="777" y="-300" type="curve"/>
      <point x="777" y="-274"/>
      <point x="777" y="-290"/>
      <point x="777" y="-264" type="curve"/>
      <point x="638" y="-265"/>
      <point x="767" y="-264"/>
      <point x="627" y="-265" type="curve"/>
      <point x="627" y="-290"/>
      <point x="627" y="-275"/>
    </contour>
    <contour>
      <point x="637" y="433" type="curve"/>
      <point x="559" y="499"/>
      <point x="455" y="538"/>
      <point x="350" y="538" type="curve"/>
      <point x="176" y="538"/>
      <point x="62" y="434"/>
      <point x="62" y="264" type="curve"/>
      <point x="62" y="94"/>
      <point x="180" y="-5"/>
      <point x="354" y="-5" type="curve"/>
      <point x="465" y="-5"/>
      <point x="567" y="45"/>
      <point x="640" y="126" type="curve"/>
      <point x="621" y="143"/>
      <point x="636" y="136"/>
      <point x="618" y="152" type="curve"/>
      <point x="550" y="74"/>
      <point x="458" y="31"/>
      <point x="357" y="31" type="curve"/>
      <point x="209" y="31"/>
      <point x="107" y="118"/>
      <point x="107" y="265" type="curve"/>
      <point x="107" y="413"/>
      <point x="205" y="502"/>
      <point x="354" y="502" type="curve"/>
      <point x="451" y="502"/>
      <point x="546" y="465"/>
      <point x="620" y="407" type="curve"/>
      <point x="636" y="425"/>
      <point x="622" y="416"/>
    </contour>
    <contour>
      <point x="649" y="-300" type="curve"/>
      <point x="649" y="-18"/>
      <point x="649" y="251"/>
      <point x="649" y="533" type="curve"/>
      <point x="617" y="533"/>
      <point x="635" y="533"/>
      <point x="603" y="533" type="curve"/>
      <point x="603" y="251"/>
      <point x="603" y="-18"/>
      <point x="603" y="-300" type="curve"/>
      <point x="635" y="-300"/>
      <point x="617" y="-300"/>
    </contour>
  </outline>
</glyph>
<glyph name="s" format="1">
  <advance width="585"/>
  <unicode hex="0073"/>
  <outline>
    <contour>
      <point x="286" y="662" type="move" name="top"/>
    </contour>
    <contour>
      <point x="323" y="-6" type="move" name="bottom"/>
    </contour>
    <contour>
      <point x="66" y="50" type="curve"/>
      <point x="147" y="18"/>
      <point x="219" y="-5"/>
      <point x="304" y="-5" type="curve"/>
      <point x="429" y="-5"/>
      <point x="522" y="30"/>
      <point x="522" y="143" type="curve"/>
      <point x="521" y="255"/>
      <point x="416" y="265"/>
      <point x="299" y="293" type="curve" smooth="yes"/>
      <point x="209" y="315"/>
      <point x="132" y="335"/>
      <point x="132" y="411" type="curve"/>
      <point x="132" y="482"/>
      <point x="197" y="502"/>
      <point x="282" y="502" type="curve"/>
      <point x="345" y="502"/>
      <point x="419" y="482"/>
      <point x="463" y="459" type="curve"/>
      <point x="482" y="490"/>
      <point x="463" y="460"/>
      <point x="482" y="490" type="curve"/>
      <point x="434" y="515"/>
      <point x="353" y="538"/>
      <point x="283" y="538" type="curve"/>
      <point x="173" y="538"/>
      <point x="92" y="508"/>
      <point x="92" y="411" type="curve"/>
      <point x="92" y="310"/>
      <point x="177" y="285"/>
      <point x="285" y="259" type="curve" smooth="yes"/>
      <point x="383" y="233"/>
      <point x="480" y="229"/>
      <point x="480" y="142" type="curve"/>
      <point x="480" y="57"/>
      <point x="405" y="31"/>
      <point x="310" y="31" type="curve"/>
      <point x="230" y="31"/>
      <point x="164" y="53"/>
      <point x="87" y="84" type="curve"/>
      <point x="65" y="51"/>
      <point x="88" y="83"/>
    </contour>
    <contour>
      <point x="446" y="490" type="curve"/>
      <point x="446" y="370"/>
      <point x="446" y="489"/>
      <point x="446" y="369" type="curve"/>
      <point x="482" y="369"/>
      <point x="446" y="369"/>
      <point x="482" y="369" type="curve"/>
      <point x="482" y="489"/>
      <point x="482" y="370"/>
      <point x="482" y="490" type="curve"/>
      <point x="447" y="490"/>
      <point x="481" y="490"/>
    </contour>
    <contour>
      <point x="100" y="50" type="curve"/>
      <point x="100" y="171"/>
      <point x="100" y="53"/>
      <point x="100" y="173" type="curve"/>
      <point x="64" y="173"/>
      <point x="100" y="173"/>
      <point x="64" y="173" type="curve"/>
      <point x="64" y="53"/>
      <point x="64" y="171"/>
      <point x="64" y="50" type="curve"/>
      <point x="100" y="50"/>
      <point x="64" y="50"/>
    </contour>
  </outline>
</glyph>
<glyph name="v" format="1">
  <advance width="843"/>
  <unicode hex="0076"/>
  <outline>
    <contour>
      <point x="163" y="533" type="curve"/>
      <point x="110" y="533"/>
      <point x="57" y="533"/>
      <point x="5" y="533" type="curve"/>
      <point x="5" y="497"/>
      <point x="5" y="533"/>
      <point x="5" y="497" type="curve"/>
      <point x="164" y="497"/>
      <point x="4" y="497"/>
      <point x="163" y="497" type="curve"/>
      <point x="163" y="533"/>
      <point x="163" y="497"/>
    </contour>
    <contour>
      <point x="163" y="497" type="curve"/>
      <point x="325" y="497"/>
      <point x="163" y="497"/>
      <point x="324" y="497" type="curve"/>
      <point x="324" y="533"/>
      <point x="324" y="497"/>
      <point x="324" y="533" type="curve"/>
      <point x="270" y="533"/>
      <point x="218" y="533"/>
      <point x="163" y="533" type="curve"/>
      <point x="163" y="497"/>
      <point x="163" y="533"/>
    </contour>
    <contour>
      <point x="681" y="533" type="curve"/>
      <point x="627" y="533"/>
      <point x="574" y="533"/>
      <point x="520" y="533" type="curve"/>
      <point x="520" y="497"/>
      <point x="520" y="533"/>
      <point x="520" y="497" type="curve"/>
      <point x="682" y="497"/>
      <point x="519" y="497"/>
      <point x="681" y="497" type="curve"/>
      <point x="681" y="533"/>
      <point x="681" y="497"/>
    </contour>
    <contour>
      <point x="681" y="497" type="curve"/>
      <point x="841" y="497"/>
      <point x="680" y="497"/>
      <point x="840" y="497" type="curve"/>
      <point x="840" y="533"/>
      <point x="840" y="497"/>
      <point x="840" y="533" type="curve"/>
      <point x="787" y="533"/>
      <point x="735" y="533"/>
      <point x="681" y="533" type="curve"/>
      <point x="681" y="497"/>
      <point x="681" y="533"/>
    </contour>
    <contour>
      <point x="125" y="533" type="curve"/>
      <point x="214" y="355"/>
      <point x="302" y="178"/>
      <point x="391" y="0" type="curve"/>
      <point x="435" y="0"/>
      <point x="391" y="0"/>
      <point x="435" y="0" type="curve"/>
      <point x="347" y="178"/>
      <point x="259" y="355"/>
      <point x="172" y="533" type="curve"/>
      <point x="125" y="533"/>
      <point x="172" y="533"/>
    </contour>
    <contour>
      <point x="675" y="533" type="curve"/>
      <point x="397" y="0" type="line"/>
      <point x="441" y="0"/>
      <point x="397" y="0"/>
      <point x="441" y="0" type="curve"/>
      <point x="535" y="178"/>
      <point x="627" y="355"/>
      <point x="720" y="533" type="curve"/>
      <point x="675" y="533"/>
      <point x="720" y="533"/>
    </contour>
  </outline>
</glyph>
<glyph name="x" format="1">
  <advance width="851"/>
  <unicode hex="0078"/>
  <outline>
    <contour>
      <point x="164" y="36" type="curve"/>
      <point x="0" y="36"/>
      <point x="170" y="36"/>
      <point x="7" y="36" type="curve"/>
      <point x="7" y="0"/>
      <point x="7" y="36"/>
      <point x="7" y="0" type="curve"/>
      <point x="61" y="0"/>
      <point x="109" y="0"/>
      <point x="164" y="0" type="curve"/>
      <point x="164" y="36"/>
      <point x="164" y="0"/>
    </contour>
    <contour>
      <point x="687" y="36" type="curve"/>
      <point x="515" y="36"/>
      <point x="691" y="36"/>
      <point x="519" y="36" type="curve"/>
      <point x="519" y="0"/>
      <point x="519" y="36"/>
      <point x="519" y="0" type="curve"/>
      <point x="576" y="0"/>
      <point x="630" y="0"/>
      <point x="687" y="0" type="curve"/>
      <point x="687" y="36"/>
      <point x="687" y="0"/>
    </contour>
    <contour>
      <point x="687" y="0" type="curve"/>
      <point x="741" y="0"/>
      <point x="790" y="0"/>
      <point x="844" y="0" type="curve"/>
      <point x="844" y="36"/>
      <point x="844" y="0"/>
      <point x="844" y="36" type="curve"/>
      <point x="681" y="36"/>
      <point x="850" y="36"/>
      <point x="687" y="36" type="curve"/>
      <point x="687" y="0"/>
      <point x="687" y="36"/>
    </contour>
    <contour>
      <point x="164" y="0" type="curve"/>
      <point x="221" y="0"/>
      <point x="161" y="0"/>
      <point x="333" y="0" type="curve"/>
      <point x="333" y="36"/>
      <point x="333" y="0"/>
      <point x="333" y="36" type="curve"/>
      <point x="161" y="36"/>
      <point x="336" y="36"/>
      <point x="164" y="36" type="curve"/>
      <point x="164" y="0"/>
      <point x="164" y="36"/>
    </contour>
    <contour>
      <point x="664" y="497" type="curve"/>
      <point x="828" y="497"/>
      <point x="658" y="497"/>
      <point x="822" y="497" type="curve"/>
      <point x="822" y="533"/>
      <point x="822" y="497"/>
      <point x="822" y="533" type="curve"/>
      <point x="768" y="533"/>
      <point x="719" y="533"/>
      <point x="664" y="533" type="curve"/>
      <point x="664" y="497"/>
      <point x="664" y="533"/>
    </contour>
    <contour>
      <point x="192" y="533" type="curve"/>
      <point x="137" y="533"/>
      <point x="88" y="533"/>
      <point x="34" y="533" type="curve"/>
      <point x="34" y="497"/>
      <point x="34" y="533"/>
      <point x="34" y="497" type="curve"/>
      <point x="198" y="497"/>
      <point x="28" y="497"/>
      <point x="192" y="497" type="curve"/>
      <point x="192" y="533"/>
      <point x="192" y="497"/>
    </contour>
    <contour>
      <point x="188" y="497" type="curve"/>
      <point x="358" y="497"/>
      <point x="182" y="497"/>
      <point x="352" y="497" type="curve"/>
      <point x="352" y="533"/>
      <point x="352" y="497"/>
      <point x="352" y="533" type="curve"/>
      <point x="294" y="533"/>
      <point x="244" y="533"/>
      <point x="188" y="533" type="curve"/>
      <point x="188" y="497"/>
      <point x="188" y="533"/>
    </contour>
    <contour>
      <point x="664" y="533" type="curve"/>
      <point x="609" y="533"/>
      <point x="558" y="533"/>
      <point x="503" y="533" type="curve"/>
      <point x="503" y="497"/>
      <point x="503" y="533"/>
      <point x="503" y="497" type="curve"/>
      <point x="670" y="497"/>
      <point x="497" y="497"/>
      <point x="664" y="497" type="curve"/>
      <point x="664" y="533"/>
      <point x="664" y="497"/>
    </contour>
    <contour>
      <point x="725" y="8" type="curve"/>
      <point x="572" y="160"/>
      <point x="345" y="381"/>
      <point x="192" y="533" type="curve"/>
      <point x="143" y="533"/>
      <point x="200" y="525"/>
      <point x="150" y="525" type="curve"/>
      <point x="302" y="373"/>
      <point x="528" y="152"/>
      <point x="679" y="0" type="curve"/>
      <point x="733" y="0"/>
      <point x="671" y="8"/>
    </contour>
    <contour>
      <point x="666" y="533" type="curve"/>
      <point x="512" y="381"/>
      <point x="280" y="160"/>
      <point x="125" y="8" type="curve"/>
      <point x="180" y="8"/>
      <point x="118" y="0"/>
      <point x="173" y="0" type="curve"/>
      <point x="326" y="152"/>
      <point x="553" y="372"/>
      <point x="706" y="524" type="curve"/>
      <point x="657" y="524"/>
      <point x="715" y="533"/>
    </contour>
  </outline>
</glyph>
<glyph name="braceleft" format="1">
  <advance width="387"/>
  <unicode hex="007B"/>
  <outline>
    <contour>
      <point x="337" y="-86" type="curve"/>
      <point x="259" y="-86"/>
      <point x="207" y="-44"/>
      <point x="207" y="32" type="curve"/>
      <point x="207" y="90"/>
      <point x="207" y="148"/>
      <point x="207" y="205" type="curve"/>
      <point x="207" y="302"/>
      <point x="140" y="358"/>
      <point x="41" y="358" type="curve"/>
      <point x="41" y="321"/>
      <point x="41" y="358"/>
      <point x="41" y="321" type="curve"/>
      <point x="116" y="321"/>
      <point x="168" y="283"/>
      <point x="168" y="209" type="curve"/>
      <point x="168" y="151"/>
      <point x="168" y="92"/>
      <point x="168" y="34" type="curve"/>
      <point x="168" y="-65"/>
      <point x="235" y="-121"/>
      <point x="337" y="-121" type="curve"/>
      <point x="337" y="-86"/>
      <point x="337" y="-121"/>
    </contour>
    <contour>
      <point x="337" y="798" type="curve"/>
      <point x="234" y="798"/>
      <point x="168" y="744"/>
      <point x="168" y="644" type="curve"/>
      <point x="168" y="585"/>
      <point x="168" y="526"/>
      <point x="168" y="467" type="curve"/>
      <point x="168" y="394"/>
      <point x="116" y="358"/>
      <point x="41" y="358" type="curve"/>
      <point x="41" y="321"/>
      <point x="41" y="358"/>
      <point x="41" y="321" type="curve"/>
      <point x="140" y="321"/>
      <point x="207" y="375"/>
      <point x="207" y="472" type="curve"/>
      <point x="207" y="529"/>
      <point x="207" y="587"/>
      <point x="207" y="644" type="curve"/>
      <point x="207" y="720"/>
      <point x="258" y="764"/>
      <point x="337" y="764" type="curve"/>
      <point x="337" y="798"/>
      <point x="337" y="764"/>
    </contour>
  </outline>
</glyph>
<glyph name="bar" format="1">
  <advance width="213"/>
  <unicode hex="007C"/>
  <outline>
    <contour>
      <point x="128" y="-300" type="curve"/>
      <point x="128" y="67"/>
      <point x="128" y="433"/>
      <point x="128" y="800" type="curve"/>
      <point x="86" y="800"/>
      <point x="128" y="800"/>
      <point x="86" y="800" type="curve"/>
      <point x="86" y="433"/>
      <point x="86" y="67"/>
      <point x="86" y="-300" type="curve"/>
      <point x="128" y="-300"/>
      <point x="86" y="-300"/>
    </contour>
  </outline>
</glyph>
<glyph name="braceright" format="1">
  <advance width="387"/>
  <unicode hex="007D"/>
  <outline>
    <contour>
      <point x="50" y="-122" type="curve"/>
      <point x="152" y="-122"/>
      <point x="217" y="-66"/>
      <point x="217" y="34" type="curve"/>
      <point x="217" y="92"/>
      <point x="217" y="151"/>
      <point x="217" y="209" type="curve"/>
      <point x="217" y="282"/>
      <point x="271" y="320"/>
      <point x="346" y="320" type="curve"/>
      <point x="346" y="357"/>
      <point x="346" y="320"/>
      <point x="346" y="357" type="curve"/>
      <point x="246" y="357"/>
      <point x="178" y="301"/>
      <point x="178" y="205" type="curve"/>
      <point x="178" y="148"/>
      <point x="178" y="90"/>
      <point x="178" y="32" type="curve"/>
      <point x="178" y="-44"/>
      <point x="128" y="-87"/>
      <point x="50" y="-87" type="curve"/>
      <point x="50" y="-122"/>
      <point x="50" y="-87"/>
    </contour>
    <contour>
      <point x="50" y="763" type="curve"/>
      <point x="128" y="763"/>
      <point x="178" y="720"/>
      <point x="178" y="644" type="curve"/>
      <point x="178" y="587"/>
      <point x="178" y="529"/>
      <point x="178" y="472" type="curve"/>
      <point x="178" y="374"/>
      <point x="246" y="320"/>
      <point x="346" y="320" type="curve"/>
      <point x="346" y="357"/>
      <point x="346" y="320"/>
      <point x="346" y="357" type="curve"/>
      <point x="270" y="357"/>
      <point x="217" y="394"/>
      <point x="217" y="467" type="curve"/>
      <point x="217" y="526"/>
      <point x="217" y="585"/>
      <point x="217" y="644" type="curve"/>
      <point x="217" y="743"/>
      <point x="151" y="798"/>
      <point x="50" y="798" type="curve"/>
      <point x="50" y="763"/>
      <point x="50" y="798"/>
    </contour>
  </outline>
</glyph>
<glyph name="asciitilde" format="1">
  <advance width="822"/>
  <unicode hex="007E"/>
  <outline>
    <contour>
      <point x="699" y="349" type="curve"/>
      <point x="674" y="297"/>
      <point x="639" y="250"/>
      <point x="571" y="250" type="curve"/>
      <point x="512" y="250"/>
      <point x="471" y="264"/>
      <point x="421" y="297" type="curve"/>
      <point x="368" y="333"/>
      <point x="326" y="352"/>
      <point x="263" y="352" type="curve"/>
      <point x="168" y="352"/>
      <point x="118" y="313"/>
      <point x="89" y="230" type="curve"/>
      <point x="111" y="220"/>
      <point x="99" y="226"/>
      <point x="121" y="216" type="curve"/>
      <point x="143" y="279"/>
      <point x="185" y="317"/>
      <point x="260" y="317" type="curve"/>
      <point x="312" y="317"/>
      <point x="347" y="304"/>
      <point x="390" y="275" type="curve"/>
      <point x="451" y="236"/>
      <point x="496" y="217"/>
      <point x="567" y="216" type="curve"/>
      <point x="656" y="216"/>
      <point x="701" y="263"/>
      <point x="733" y="336" type="curve"/>
      <point x="710" y="345"/>
      <point x="723" y="341"/>
    </contour>
  </outline>
</glyph>
<glyph name="exclamdown" format="1">
  <advance width="238"/>
  <unicode hex="00A1"/>
  <outline>
    <contour>
      <point x="99" y="314" type="line"/>
      <point x="93" y="-179" type="line"/>
      <point x="144" y="-179" type="line"/>
      <point x="138" y="314" type="line"/>
    </contour>
    <contour>
      <point x="88" y="523" type="curve"/>
      <point x="88" y="507"/>
      <point x="101" y="497"/>
      <point x="118" y="497" type="curve"/>
      <point x="136" y="497"/>
      <point x="147" y="507"/>
      <point x="147" y="523" type="curve"/>
      <point x="106" y="523"/>
      <point x="129" y="523"/>
      <point x="88" y="523" type="curve"/>
      <point x="88" y="540"/>
      <point x="101" y="550"/>
      <point x="119" y="550" type="curve"/>
      <point x="136" y="550"/>
      <point x="147" y="540"/>
      <point x="147" y="523" type="curve"/>
      <point x="106" y="523"/>
      <point x="129" y="523"/>
    </contour>
  </outline>
</glyph>
<glyph name="cent" format="1">
  <advance width="777"/>
  <unicode hex="00A2"/>
  <outline>
    <contour>
      <point x="426" y="-53" type="curve"/>
      <point x="426" y="-13"/>
      <point x="426" y="27"/>
      <point x="426" y="67" type="curve"/>
      <point x="383" y="67"/>
      <point x="426" y="67"/>
      <point x="383" y="67" type="curve"/>
      <point x="383" y="27"/>
      <point x="383" y="-13"/>
      <point x="383" y="-53" type="curve"/>
      <point x="426" y="-53"/>
      <point x="383" y="-53"/>
    </contour>
    <contour>
      <point x="409" y="778" type="curve"/>
      <point x="409" y="742"/>
      <point x="409" y="706"/>
      <point x="409" y="670" type="curve"/>
      <point x="452" y="670"/>
      <point x="409" y="670"/>
      <point x="452" y="670" type="curve"/>
      <point x="452" y="706"/>
      <point x="452" y="742"/>
      <point x="452" y="778" type="curve"/>
      <point x="409" y="778"/>
      <point x="452" y="778"/>
    </contour>
    <contour>
      <point x="713" y="610" type="curve"/>
      <point x="620" y="661"/>
      <point x="544" y="680"/>
      <point x="437" y="680" type="curve"/>
      <point x="218" y="680"/>
      <point x="62" y="573"/>
      <point x="62" y="366" type="curve"/>
      <point x="62" y="168"/>
      <point x="197" y="53"/>
      <point x="401" y="53" type="curve"/>
      <point x="522" y="53"/>
      <point x="608" y="81"/>
      <point x="712" y="144" type="curve"/>
      <point x="686" y="174"/>
      <point x="712" y="144"/>
      <point x="686" y="174" type="curve"/>
      <point x="592" y="114"/>
      <point x="515" y="89"/>
      <point x="405" y="89" type="curve"/>
      <point x="224" y="89"/>
      <point x="105" y="192"/>
      <point x="105" y="367" type="curve"/>
      <point x="105" y="550"/>
      <point x="241" y="644"/>
      <point x="433" y="644" type="curve"/>
      <point x="533" y="644"/>
      <point x="603" y="627"/>
      <point x="692" y="579" type="curve"/>
      <point x="713" y="610"/>
      <point x="692" y="579"/>
    </contour>
    <contour>
      <point x="677" y="610" type="curve"/>
      <point x="677" y="489"/>
      <point x="677" y="605"/>
      <point x="677" y="484" type="curve"/>
      <point x="713" y="484"/>
      <point x="677" y="484"/>
      <point x="713" y="484" type="curve"/>
      <point x="713" y="605"/>
      <point x="713" y="489"/>
      <point x="713" y="610" type="curve"/>
      <point x="677" y="610"/>
      <point x="713" y="610"/>
    </contour>
  </outline>
</glyph>
<glyph name="sterling" format="1">
  <advance width="638"/>
  <unicode hex="00A3"/>
  <outline>
    <contour>
      <point x="565" y="36" type="curve"/>
      <point x="392" y="36"/>
      <point x="221" y="36"/>
      <point x="49" y="36" type="curve"/>
      <point x="49" y="1"/>
      <point x="49" y="36"/>
      <point x="49" y="1" type="curve"/>
      <point x="221" y="1"/>
      <point x="392" y="1"/>
      <point x="565" y="1" type="curve"/>
      <point x="565" y="36"/>
      <point x="565" y="1"/>
    </contour>
    <contour>
      <point x="504" y="395" type="curve"/>
      <point x="368" y="395"/>
      <point x="230" y="395"/>
      <point x="94" y="395" type="curve"/>
      <point x="94" y="360"/>
      <point x="94" y="395"/>
      <point x="94" y="360" type="curve"/>
      <point x="230" y="360"/>
      <point x="368" y="360"/>
      <point x="504" y="360" type="curve"/>
      <point x="504" y="395"/>
      <point x="504" y="360"/>
    </contour>
    <contour>
      <point x="580" y="672" type="curve"/>
      <point x="521" y="707"/>
      <point x="474" y="722"/>
      <point x="406" y="722" type="curve"/>
      <point x="237" y="722"/>
      <point x="157" y="565"/>
      <point x="208" y="373" type="curve"/>
      <point x="255" y="192"/>
      <point x="198" y="36"/>
      <point x="49" y="36" type="curve"/>
      <point x="49" y="1"/>
      <point x="49" y="36"/>
      <point x="49" y="1" type="curve"/>
      <point x="233" y="1"/>
      <point x="304" y="175"/>
      <point x="251" y="380" type="curve"/>
      <point x="207" y="547"/>
      <point x="272" y="689"/>
      <point x="404" y="689" type="curve"/>
      <point x="465" y="689"/>
      <point x="507" y="677"/>
      <point x="559" y="645" type="curve"/>
      <point x="580" y="672"/>
      <point x="559" y="645"/>
    </contour>
  </outline>
</glyph>
<glyph name="currency" format="1">
  <advance width="726"/>
  <unicode hex="00A4"/>
  <outline>
    <contour>
      <point x="196" y="311" type="curve"/>
      <point x="196" y="402"/>
      <point x="267" y="449"/>
      <point x="365" y="449" type="curve"/>
      <point x="462" y="449"/>
      <point x="529" y="401"/>
      <point x="529" y="311" type="curve"/>
      <point x="529" y="220"/>
      <point x="463" y="167"/>
      <point x="369" y="167" type="curve"/>
      <point x="267" y="167"/>
      <point x="196" y="216"/>
      <point x="196" y="311" type="curve"/>
      <point x="153" y="311"/>
      <point x="196" y="311"/>
      <point x="153" y="311" type="curve"/>
      <point x="153" y="193"/>
      <point x="243" y="132"/>
      <point x="367" y="132" type="curve"/>
      <point x="488" y="132"/>
      <point x="572" y="198"/>
      <point x="572" y="312" type="curve"/>
      <point x="572" y="425"/>
      <point x="487" y="484"/>
      <point x="368" y="484" type="curve"/>
      <point x="243" y="484"/>
      <point x="153" y="427"/>
      <point x="153" y="311" type="curve"/>
      <point x="196" y="311"/>
      <point x="153" y="311"/>
    </contour>
    <contour>
      <point x="517" y="392" type="line"/>
      <point x="657" y="526" type="line"/>
      <point x="621" y="563" type="line"/>
      <point x="486" y="423" type="line"/>
    </contour>
    <contour>
      <point x="485" y="199" type="line"/>
      <point x="620" y="58" type="line"/>
      <point x="657" y="95" type="line"/>
      <point x="516" y="229" type="line"/>
    </contour>
    <contour>
      <point x="207" y="230" type="line"/>
      <point x="67" y="95" type="line"/>
      <point x="103" y="58" type="line"/>
      <point x="238" y="199" type="line"/>
    </contour>
    <contour>
      <point x="238" y="423" type="line"/>
      <point x="103" y="563" type="line"/>
      <point x="67" y="527" type="line"/>
      <point x="207" y="392" type="line"/>
    </contour>
  </outline>
</glyph>
<glyph name="yen" format="1">
  <advance width="1010"/>
  <unicode hex="00A5"/>
  <outline>
    <contour>
      <point x="787" y="383" type="curve"/>
      <point x="696" y="383"/>
      <point x="607" y="383"/>
      <point x="516" y="383" type="curve"/>
      <point x="516" y="344"/>
      <point x="516" y="383"/>
      <point x="516" y="344" type="curve"/>
      <point x="607" y="344"/>
      <point x="696" y="344"/>
      <point x="787" y="344" type="curve"/>
      <point x="787" y="383"/>
      <point x="787" y="344"/>
    </contour>
    <contour>
      <point x="479" y="383" type="curve"/>
      <point x="391" y="383"/>
      <point x="302" y="383"/>
      <point x="214" y="383" type="curve"/>
      <point x="214" y="344"/>
      <point x="214" y="383"/>
      <point x="214" y="344" type="curve"/>
      <point x="302" y="344"/>
      <point x="391" y="344"/>
      <point x="479" y="344" type="curve"/>
      <point x="479" y="383"/>
      <point x="479" y="344"/>
    </contour>
    <contour>
      <point x="787" y="256" type="curve"/>
      <point x="596" y="256"/>
      <point x="405" y="256"/>
      <point x="214" y="256" type="curve"/>
      <point x="214" y="218"/>
      <point x="214" y="256"/>
      <point x="214" y="218" type="curve"/>
      <point x="405" y="218"/>
      <point x="596" y="218"/>
      <point x="787" y="218" type="curve"/>
      <point x="787" y="256"/>
      <point x="787" y="218"/>
    </contour>
    <contour>
      <point x="497" y="36" type="curve"/>
      <point x="310" y="36"/>
      <point x="498" y="36"/>
      <point x="311" y="36" type="curve"/>
      <point x="311" y="1"/>
      <point x="311" y="36"/>
      <point x="311" y="1" type="curve"/>
      <point x="373" y="1"/>
      <point x="435" y="1"/>
      <point x="497" y="1" type="curve"/>
      <point x="497" y="36"/>
      <point x="497" y="1"/>
    </contour>
    <contour>
      <point x="497" y="0" type="curve"/>
      <point x="559" y="0"/>
      <point x="621" y="0"/>
      <point x="683" y="0" type="curve"/>
      <point x="683" y="36"/>
      <point x="683" y="0"/>
      <point x="683" y="36" type="curve"/>
      <point x="497" y="35"/>
      <point x="684" y="36"/>
      <point x="497" y="35" type="curve"/>
      <point x="497" y="0"/>
      <point x="497" y="35"/>
    </contour>
    <contour>
      <point x="790" y="722" type="curve"/>
      <point x="728" y="722"/>
      <point x="666" y="722"/>
      <point x="605" y="722" type="curve"/>
      <point x="605" y="687"/>
      <point x="605" y="722"/>
      <point x="605" y="687" type="curve"/>
      <point x="791" y="687"/>
      <point x="604" y="687"/>
      <point x="790" y="687" type="curve"/>
      <point x="790" y="722"/>
      <point x="790" y="687"/>
    </contour>
    <contour>
      <point x="220" y="722" type="curve"/>
      <point x="159" y="722"/>
      <point x="98" y="722"/>
      <point x="37" y="722" type="curve"/>
      <point x="37" y="687"/>
      <point x="37" y="722"/>
      <point x="37" y="687" type="curve"/>
      <point x="220" y="687"/>
      <point x="36" y="687"/>
      <point x="220" y="687" type="curve"/>
      <point x="220" y="722"/>
      <point x="220" y="687"/>
    </contour>
    <contour>
      <point x="220" y="687" type="curve"/>
      <point x="406" y="687"/>
      <point x="219" y="687"/>
      <point x="405" y="687" type="curve"/>
      <point x="405" y="722"/>
      <point x="405" y="687"/>
      <point x="405" y="722" type="curve"/>
      <point x="344" y="722"/>
      <point x="282" y="722"/>
      <point x="220" y="722" type="curve"/>
      <point x="220" y="687"/>
      <point x="220" y="722"/>
    </contour>
    <contour>
      <point x="791" y="687" type="curve"/>
      <point x="974" y="687"/>
      <point x="790" y="687"/>
      <point x="974" y="687" type="curve"/>
      <point x="974" y="722"/>
      <point x="974" y="687"/>
      <point x="974" y="722" type="curve"/>
      <point x="912" y="722"/>
      <point x="852" y="722"/>
      <point x="791" y="722" type="curve"/>
      <point x="791" y="687"/>
      <point x="791" y="722"/>
    </contour>
    <contour>
      <point x="178" y="716" type="curve"/>
      <point x="277" y="589"/>
      <point x="376" y="462"/>
      <point x="475" y="335" type="curve"/>
      <point x="518" y="335"/>
      <point x="475" y="335"/>
      <point x="518" y="335" type="curve"/>
      <point x="418" y="464"/>
      <point x="318" y="593"/>
      <point x="219" y="722" type="curve"/>
      <point x="178" y="722"/>
      <point x="219" y="716"/>
    </contour>
    <contour>
      <point x="791" y="721" type="curve"/>
      <point x="686" y="592"/>
      <point x="580" y="464"/>
      <point x="476" y="335" type="curve"/>
      <point x="519" y="335"/>
      <point x="475" y="335"/>
      <point x="518" y="335" type="curve"/>
      <point x="623" y="463"/>
      <point x="728" y="590"/>
      <point x="832" y="716" type="curve"/>
      <point x="791" y="716"/>
      <point x="832" y="721"/>
    </contour>
    <contour>
      <point x="519" y="0" type="curve"/>
      <point x="519" y="112"/>
      <point x="519" y="225"/>
      <point x="519" y="337" type="curve"/>
      <point x="474" y="337"/>
      <point x="519" y="337"/>
      <point x="474" y="337" type="curve"/>
      <point x="474" y="225"/>
      <point x="474" y="112"/>
      <point x="474" y="0" type="curve"/>
      <point x="519" y="0"/>
      <point x="474" y="0"/>
    </contour>
  </outline>
</glyph>
<glyph name="section" format="1">
  <advance width="595"/>
  <unicode hex="00A7"/>
  <outline>
    <contour>
      <point x="489" y="708" type="curve"/>
      <point x="422" y="737"/>
      <point x="372" y="751"/>
      <point x="299" y="751" type="curve"/>
      <point x="192" y="751"/>
      <point x="113" y="713"/>
      <point x="113" y="622" type="curve"/>
      <point x="113" y="534"/>
      <point x="184" y="501"/>
      <point x="274" y="476" type="curve"/>
      <point x="376" y="448"/>
      <point x="487" y="451"/>
      <point x="487" y="360" type="curve"/>
      <point x="487" y="284"/>
      <point x="420" y="250"/>
      <point x="332" y="236" type="curve"/>
      <point x="358" y="208"/>
      <point x="332" y="236"/>
      <point x="358" y="208" type="curve"/>
      <point x="457" y="227"/>
      <point x="531" y="267"/>
      <point x="531" y="361" type="curve"/>
      <point x="530" y="475"/>
      <point x="414" y="481"/>
      <point x="296" y="509" type="curve"/>
      <point x="221" y="529"/>
      <point x="155" y="552"/>
      <point x="155" y="622" type="curve"/>
      <point x="155" y="690"/>
      <point x="215" y="717"/>
      <point x="295" y="717" type="curve"/>
      <point x="362" y="717"/>
      <point x="408" y="705"/>
      <point x="471" y="678" type="curve"/>
      <point x="489" y="708"/>
      <point x="471" y="678"/>
    </contour>
    <contour>
      <point x="233" y="515" type="curve"/>
      <point x="141" y="493"/>
      <point x="69" y="457"/>
      <point x="69" y="367" type="curve"/>
      <point x="69" y="259"/>
      <point x="173" y="244"/>
      <point x="285" y="216" type="curve"/>
      <point x="368" y="193"/>
      <point x="450" y="179"/>
      <point x="450" y="104" type="curve"/>
      <point x="450" y="36"/>
      <point x="384" y="6"/>
      <point x="301" y="6" type="curve"/>
      <point x="226" y="6"/>
      <point x="174" y="21"/>
      <point x="106" y="56" type="curve"/>
      <point x="84" y="29"/>
      <point x="106" y="56"/>
      <point x="84" y="29" type="curve"/>
      <point x="157" y="-12"/>
      <point x="216" y="-29"/>
      <point x="299" y="-29" type="curve"/>
      <point x="407" y="-29"/>
      <point x="493" y="7"/>
      <point x="493" y="105" type="curve"/>
      <point x="492" y="198"/>
      <point x="409" y="225"/>
      <point x="311" y="248" type="curve"/>
      <point x="213" y="274"/>
      <point x="113" y="282"/>
      <point x="113" y="369" type="curve"/>
      <point x="113" y="443"/>
      <point x="175" y="470"/>
      <point x="254" y="490" type="curve"/>
      <point x="233" y="515"/>
      <point x="254" y="490"/>
    </contour>
    <contour>
      <point x="121" y="29" type="curve"/>
      <point x="121" y="149"/>
      <point x="121" y="30"/>
      <point x="121" y="150" type="curve"/>
      <point x="84" y="150"/>
      <point x="121" y="150"/>
      <point x="84" y="150" type="curve"/>
      <point x="84" y="30"/>
      <point x="84" y="149"/>
      <point x="84" y="29" type="curve"/>
      <point x="121" y="29"/>
      <point x="84" y="29"/>
    </contour>
    <contour>
      <point x="489" y="587" type="curve"/>
      <point x="489" y="707"/>
      <point x="489" y="588"/>
      <point x="489" y="708" type="curve"/>
      <point x="452" y="708"/>
      <point x="489" y="708"/>
      <point x="452" y="708" type="curve"/>
      <point x="452" y="588"/>
      <point x="452" y="707"/>
      <point x="452" y="587" type="curve"/>
      <point x="489" y="587"/>
      <point x="452" y="587"/>
    </contour>
  </outline>
</glyph>
<glyph name="dieresis" format="1">
  <advance width="415"/>
  <unicode hex="00A8"/>
  <outline>
    <contour>
      <point x="165" y="630" type="move" name="_top"/>
    </contour>
    <contour>
      <point x="110" y="656" type="curve"/>
      <point x="110" y="673"/>
      <point x="99" y="682"/>
      <point x="80" y="682" type="curve"/>
      <point x="63" y="682"/>
      <point x="52" y="672"/>
      <point x="52" y="656" type="curve"/>
      <point x="92" y="656"/>
      <point x="70" y="656"/>
      <point x="110" y="656" type="curve"/>
      <point x="110" y="639"/>
      <point x="99" y="630"/>
      <point x="80" y="630" type="curve"/>
      <point x="63" y="630"/>
      <point x="52" y="639"/>
      <point x="52" y="656" type="curve"/>
      <point x="92" y="656"/>
      <point x="70" y="656"/>
    </contour>
    <contour>
      <point x="277" y="656" type="curve"/>
      <point x="277" y="673"/>
      <point x="265" y="682"/>
      <point x="247" y="682" type="curve"/>
      <point x="229" y="682"/>
      <point x="218" y="672"/>
      <point x="218" y="656" type="curve"/>
      <point x="259" y="656"/>
      <point x="237" y="656"/>
      <point x="277" y="656" type="curve"/>
      <point x="277" y="639"/>
      <point x="265" y="630"/>
      <point x="246" y="630" type="curve"/>
      <point x="229" y="630"/>
      <point x="218" y="639"/>
      <point x="218" y="656" type="curve"/>
      <point x="259" y="656"/>
      <point x="237" y="656"/>
    </contour>
  </outline>
</glyph>
<glyph name="copyright" format="1">
  <advance width="945"/>
  <unicode hex="00A9"/>
  <outline>
    <contour>
      <point x="105" y="320" type="curve"/>
      <point x="105" y="513"/>
      <point x="270" y="614"/>
      <point x="477" y="614" type="curve"/>
      <point x="679" y="614"/>
      <point x="840" y="510"/>
      <point x="840" y="319" type="curve"/>
      <point x="840" y="133"/>
      <point x="683" y="29"/>
      <point x="485" y="29" type="curve"/>
      <point x="276" y="29"/>
      <point x="105" y="126"/>
      <point x="105" y="320" type="curve"/>
      <point x="67" y="320"/>
      <point x="105" y="320"/>
      <point x="67" y="320" type="curve"/>
      <point x="67" y="108"/>
      <point x="252" y="-2"/>
      <point x="484" y="-2" type="curve"/>
      <point x="705" y="-2"/>
      <point x="878" y="113"/>
      <point x="878" y="320" type="curve"/>
      <point x="878" y="530"/>
      <point x="701" y="645"/>
      <point x="477" y="645" type="curve"/>
      <point x="250" y="645"/>
      <point x="67" y="533"/>
      <point x="67" y="320" type="curve"/>
      <point x="105" y="320"/>
      <point x="67" y="320"/>
    </contour>
    <contour>
      <point x="596" y="446" type="curve"/>
      <point x="596" y="425"/>
      <point x="596" y="403"/>
      <point x="596" y="380" type="curve"/>
      <point x="631" y="380"/>
      <point x="597" y="380"/>
      <point x="632" y="380" type="curve"/>
      <point x="632" y="409"/>
      <point x="632" y="437"/>
      <point x="632" y="465" type="curve"/>
      <point x="597" y="447"/>
      <point x="631" y="464"/>
    </contour>
    <contour>
      <point x="632" y="465" type="curve"/>
      <point x="583" y="490"/>
      <point x="541" y="499"/>
      <point x="485" y="499" type="curve"/>
      <point x="359" y="499"/>
      <point x="270" y="437"/>
      <point x="270" y="320" type="curve"/>
      <point x="270" y="207"/>
      <point x="351" y="145"/>
      <point x="468" y="145" type="curve"/>
      <point x="538" y="145"/>
      <point x="588" y="155"/>
      <point x="647" y="192" type="curve"/>
      <point x="626" y="217"/>
      <point x="647" y="192"/>
      <point x="626" y="217" type="curve"/>
      <point x="572" y="185"/>
      <point x="529" y="175"/>
      <point x="470" y="175" type="curve"/>
      <point x="374" y="175"/>
      <point x="309" y="228"/>
      <point x="309" y="321" type="curve"/>
      <point x="309" y="417"/>
      <point x="379" y="467"/>
      <point x="483" y="467" type="curve"/>
      <point x="530" y="467"/>
      <point x="561" y="461"/>
      <point x="597" y="447" type="curve"/>
      <point x="632" y="464"/>
      <point x="598" y="448"/>
    </contour>
  </outline>
</glyph>
<glyph name="logicalnot" format="1">
  <advance width="808"/>
  <unicode hex="00AC"/>
  <outline>
    <contour>
      <point x="110" y="290" type="curve"/>
      <point x="718" y="290" type="line"/>
      <point x="718" y="329"/>
      <point x="718" y="290"/>
      <point x="718" y="329" type="curve"/>
      <point x="110" y="329" type="line"/>
      <point x="110" y="290"/>
      <point x="110" y="329"/>
    </contour>
    <contour>
      <point x="718" y="151" type="curve"/>
      <point x="718" y="329" type="line"/>
      <point x="675" y="329"/>
      <point x="720" y="329"/>
      <point x="676" y="329" type="curve"/>
      <point x="676" y="151" type="line"/>
      <point x="720" y="151"/>
      <point x="675" y="151"/>
    </contour>
  </outline>
</glyph>
<glyph name="macron" format="1">
  <advance width="416"/>
  <unicode hex="00AF"/>
  <outline>
    <contour>
      <point x="173" y="642" type="move" name="_top"/>
    </contour>
    <contour>
      <point x="313" y="677" type="curve"/>
      <point x="217" y="677"/>
      <point x="121" y="677"/>
      <point x="25" y="677" type="curve"/>
      <point x="25" y="642"/>
      <point x="25" y="677"/>
      <point x="25" y="642" type="curve"/>
      <point x="121" y="642"/>
      <point x="217" y="642"/>
      <point x="313" y="642" type="curve"/>
      <point x="313" y="677"/>
      <point x="313" y="642"/>
    </contour>
  </outline>
</glyph>
<glyph name="twosuperior" format="1">
  <advance width="581"/>
  <unicode hex="00B2"/>
  <outline>
    <contour>
      <point x="307" y="709" type="move" name="_top"/>
    </contour>
    <contour>
      <point x="281" y="290" type="move" name="_bottom"/>
    </contour>
    <contour>
      <point x="494" y="290" type="curve"/>
      <point x="494" y="327"/>
      <point x="494" y="361"/>
      <point x="494" y="397" type="curve"/>
      <point x="460" y="397"/>
      <point x="495" y="397"/>
      <point x="460" y="397" type="curve"/>
      <point x="460" y="372"/>
      <point x="460" y="350"/>
      <point x="460" y="325" type="curve"/>
      <point x="496" y="292"/>
      <point x="458" y="323"/>
    </contour>
    <contour>
      <point x="82" y="290" type="curve"/>
      <point x="231" y="290"/>
      <point x="362" y="290"/>
      <point x="494" y="290" type="curve"/>
      <point x="458" y="323"/>
      <point x="496" y="292"/>
      <point x="460" y="325" type="curve"/>
      <point x="335" y="325"/>
      <point x="208" y="325"/>
      <point x="82" y="325" type="curve"/>
      <point x="82" y="291"/>
      <point x="82" y="325"/>
    </contour>
    <contour>
      <point x="145" y="605" type="curve"/>
      <point x="184" y="653"/>
      <point x="229" y="676"/>
      <point x="295" y="676" type="curve"/>
      <point x="369" y="676"/>
      <point x="426" y="651"/>
      <point x="426" y="586" type="curve"/>
      <point x="426" y="529"/>
      <point x="379" y="508"/>
      <point x="331" y="474" type="curve"/>
      <point x="247" y="425"/>
      <point x="164" y="374"/>
      <point x="82" y="325" type="curve"/>
      <point x="90" y="292"/>
      <point x="83" y="325"/>
      <point x="91" y="292" type="curve"/>
      <point x="183" y="345"/>
      <point x="270" y="396"/>
      <point x="355" y="447" type="curve"/>
      <point x="414" y="489"/>
      <point x="467" y="517"/>
      <point x="467" y="588" type="curve"/>
      <point x="467" y="674"/>
      <point x="394" y="710"/>
      <point x="299" y="710" type="curve"/>
      <point x="218" y="710"/>
      <point x="157" y="687"/>
      <point x="114" y="625" type="curve"/>
      <point x="145" y="605"/>
      <point x="114" y="625"/>
    </contour>
  </outline>
</glyph>
<glyph name="acute" format="1">
  <advance width="333"/>
  <unicode hex="00B4"/>
  <outline>
    <contour>
      <point x="40" y="591" type="move" name="_top"/>
    </contour>
    <contour>
      <point x="61" y="590" type="line"/>
      <point x="247" y="756" type="line"/>
      <point x="184" y="756" type="line"/>
      <point x="14" y="590" type="line"/>
    </contour>
  </outline>
</glyph>
<glyph name="paragraph" format="1">
  <advance width="843"/>
  <unicode hex="00B6"/>
  <outline>
    <contour>
      <point x="532" y="686" type="curve"/>
      <point x="724" y="686"/>
      <point x="532" y="686"/>
      <point x="724" y="686" type="curve"/>
      <point x="724" y="722"/>
      <point x="724" y="686"/>
      <point x="724" y="722" type="curve"/>
      <point x="660" y="722"/>
      <point x="596" y="722"/>
      <point x="532" y="722" type="curve"/>
      <point x="532" y="686"/>
      <point x="532" y="722"/>
    </contour>
    <contour>
      <point x="532" y="0" type="curve"/>
      <point x="596" y="0"/>
      <point x="660" y="0"/>
      <point x="724" y="0" type="curve"/>
      <point x="724" y="36"/>
      <point x="724" y="0"/>
      <point x="724" y="36" type="curve"/>
      <point x="532" y="36"/>
      <point x="724" y="36"/>
      <point x="532" y="36" type="curve"/>
      <point x="532" y="0"/>
      <point x="532" y="36"/>
    </contour>
    <contour>
      <point x="532" y="36" type="curve"/>
      <point x="343" y="36"/>
      <point x="532" y="36"/>
      <point x="343" y="36" type="curve"/>
      <point x="343" y="0"/>
      <point x="343" y="36"/>
      <point x="343" y="0" type="curve"/>
      <point x="532" y="0"/>
      <point x="469" y="0"/>
      <point x="532" y="0" type="curve"/>
      <point x="532" y="36"/>
      <point x="532" y="0"/>
    </contour>
    <contour>
      <point x="523" y="353" type="curve"/>
      <point x="456" y="326"/>
      <point x="403" y="310"/>
      <point x="331" y="310" type="curve"/>
      <point x="197" y="310"/>
      <point x="92" y="367"/>
      <point x="92" y="490" type="curve"/>
      <point x="92" y="630"/>
      <point x="215" y="686"/>
      <point x="370" y="686" type="curve"/>
      <point x="422" y="686"/>
      <point x="475" y="686"/>
      <point x="528" y="686" type="curve"/>
      <point x="528" y="722"/>
      <point x="528" y="686"/>
      <point x="528" y="722" type="curve"/>
      <point x="473" y="722"/>
      <point x="418" y="722"/>
      <point x="364" y="722" type="curve"/>
      <point x="188" y="722"/>
      <point x="47" y="651"/>
      <point x="47" y="492" type="curve"/>
      <point x="47" y="343"/>
      <point x="173" y="278"/>
      <point x="334" y="275" type="curve"/>
      <point x="408" y="275"/>
      <point x="469" y="294"/>
      <point x="537" y="320" type="curve"/>
      <point x="523" y="353"/>
      <point x="537" y="320"/>
    </contour>
    <contour>
      <point x="555" y="0" type="curve"/>
      <point x="555" y="241"/>
      <point x="555" y="481"/>
      <point x="555" y="722" type="curve"/>
      <point x="511" y="722"/>
      <point x="555" y="722"/>
      <point x="511" y="722" type="curve"/>
      <point x="511" y="481"/>
      <point x="511" y="241"/>
      <point x="511" y="0" type="curve"/>
      <point x="555" y="0"/>
      <point x="511" y="0"/>
    </contour>
    <contour>
      <point x="755" y="0" type="curve"/>
      <point x="755" y="241"/>
      <point x="755" y="481"/>
      <point x="755" y="722" type="curve"/>
      <point x="711" y="722"/>
      <point x="755" y="722"/>
      <point x="711" y="722" type="curve"/>
      <point x="711" y="481"/>
      <point x="711" y="241"/>
      <point x="711" y="0" type="curve"/>
      <point x="755" y="0"/>
      <point x="711" y="0"/>
    </contour>
  </outline>
</glyph>
<glyph name="onesuperior" format="1">
  <advance width="449"/>
  <unicode hex="00B9"/>
  <outline>
    <contour>
      <point x="262" y="701" type="move" name="_top"/>
    </contour>
    <contour>
      <point x="263" y="291" type="move" name="_bottom"/>
    </contour>
    <contour>
      <point x="241" y="290" type="curve"/>
      <point x="287" y="290"/>
      <point x="332" y="290"/>
      <point x="379" y="290" type="curve"/>
      <point x="379" y="325"/>
      <point x="379" y="289"/>
      <point x="379" y="324" type="curve"/>
      <point x="346" y="324"/>
      <point x="316" y="324"/>
      <point x="284" y="324" type="curve"/>
      <point x="241" y="289"/>
      <point x="284" y="325"/>
    </contour>
    <contour>
      <point x="284" y="324" type="curve"/>
      <point x="236" y="324"/>
      <point x="189" y="324"/>
      <point x="140" y="324" type="curve"/>
      <point x="140" y="289"/>
      <point x="140" y="325"/>
      <point x="140" y="290" type="curve"/>
      <point x="175" y="290"/>
      <point x="208" y="290"/>
      <point x="241" y="290" type="curve"/>
      <point x="284" y="325"/>
      <point x="241" y="289"/>
    </contour>
    <contour>
      <point x="96" y="567" type="line"/>
      <point x="284" y="695" type="line"/>
      <point x="241" y="704" type="line"/>
      <point x="78" y="595" type="line"/>
    </contour>
    <contour>
      <point x="284" y="324" type="curve"/>
      <point x="284" y="704" type="line"/>
      <point x="241" y="704" type="line"/>
      <point x="241" y="290" type="line"/>
      <point x="284" y="325"/>
      <point x="241" y="289"/>
    </contour>
  </outline>
</glyph>
<glyph name="ordmasculine" format="1">
  <advance width="542"/>
  <unicode hex="00BA"/>
  <outline>
    <contour>
      <point x="113" y="601" type="curve"/>
      <point x="113" y="692"/>
      <point x="176" y="742"/>
      <point x="270" y="742" type="curve"/>
      <point x="365" y="742"/>
      <point x="428" y="690"/>
      <point x="428" y="599" type="curve"/>
      <point x="428" y="505"/>
      <point x="369" y="448"/>
      <point x="276" y="448" type="curve"/>
      <point x="178" y="448"/>
      <point x="113" y="504"/>
      <point x="113" y="601" type="curve"/>
      <point x="89" y="601"/>
      <point x="100" y="601"/>
      <point x="77" y="601" type="curve"/>
      <point x="77" y="484"/>
      <point x="155" y="418"/>
      <point x="274" y="418" type="curve"/>
      <point x="390" y="418"/>
      <point x="465" y="485"/>
      <point x="465" y="599" type="curve"/>
      <point x="465" y="710"/>
      <point x="388" y="772"/>
      <point x="272" y="772" type="curve"/>
      <point x="155" y="772"/>
      <point x="77" y="711"/>
      <point x="77" y="601" type="curve"/>
      <point x="100" y="601"/>
      <point x="89" y="601"/>
    </contour>
  </outline>
</glyph>
<glyph name="onequarter" format="1">
  <advance width="1225"/>
  <unicode hex="00BC"/>
  <outline>
    <contour>
      <point x="393" y="-84" type="line"/>
      <point x="939" y="749" type="line"/>
      <point x="895" y="749" type="line"/>
      <point x="349" y="-84" type="line"/>
    </contour>
    <contour>
      <point x="209" y="340" type="curve"/>
      <point x="256" y="340"/>
      <point x="300" y="340"/>
      <point x="347" y="340" type="curve"/>
      <point x="347" y="374"/>
      <point x="347" y="338"/>
      <point x="347" y="373" type="curve"/>
      <point x="314" y="373"/>
      <point x="284" y="373"/>
      <point x="251" y="373" type="curve"/>
      <point x="209" y="338"/>
      <point x="251" y="374"/>
    </contour>
    <contour>
      <point x="252" y="373" type="curve"/>
      <point x="203" y="373"/>
      <point x="157" y="373"/>
      <point x="108" y="373" type="curve"/>
      <point x="108" y="338"/>
      <point x="108" y="374"/>
      <point x="108" y="340" type="curve"/>
      <point x="142" y="340"/>
      <point x="175" y="340"/>
      <point x="210" y="340" type="curve"/>
      <point x="252" y="374"/>
      <point x="210" y="338"/>
    </contour>
    <contour>
      <point x="65" y="616" type="line"/>
      <point x="252" y="743" type="line"/>
      <point x="210" y="752" type="line"/>
      <point x="45" y="643" type="line"/>
    </contour>
    <contour>
      <point x="252" y="373" type="curve"/>
      <point x="252" y="752" type="line"/>
      <point x="210" y="752" type="line"/>
      <point x="210" y="340" type="line"/>
      <point x="252" y="374"/>
      <point x="210" y="338"/>
    </contour>
    <contour>
      <point x="1198" y="59" type="line"/>
      <point x="742" y="59" type="line"/>
      <point x="742" y="26" type="line"/>
      <point x="1198" y="26" type="line"/>
    </contour>
    <contour>
      <point x="758" y="30" type="line"/>
      <point x="1069" y="332" type="line"/>
      <point x="1032" y="342" type="line"/>
      <point x="742" y="59" type="line"/>
    </contour>
    <contour>
      <point x="1074" y="-96" type="line"/>
      <point x="1074" y="342" type="line"/>
      <point x="1032" y="342" type="line"/>
      <point x="1032" y="-96" type="line"/>
    </contour>
    <contour>
      <point x="1053" y="-63" type="line"/>
      <point x="935" y="-63" type="line"/>
      <point x="935" y="-96" type="line"/>
      <point x="1053" y="-96" type="line"/>
    </contour>
    <contour>
      <point x="1053" y="-96" type="line"/>
      <point x="1163" y="-96" type="line"/>
      <point x="1163" y="-63" type="line"/>
      <point x="1053" y="-63" type="line"/>
    </contour>
  </outline>
</glyph>
<glyph name="onehalf" format="1">
  <advance width="1293"/>
  <unicode hex="00BD"/>
  <outline>
    <contour>
      <point x="392" y="-84" type="line"/>
      <point x="938" y="749" type="line"/>
      <point x="894" y="749" type="line"/>
      <point x="348" y="-84" type="line"/>
    </contour>
    <contour>
      <point x="206" y="340" type="curve"/>
      <point x="253" y="340"/>
      <point x="297" y="340"/>
      <point x="344" y="340" type="curve"/>
      <point x="344" y="374"/>
      <point x="344" y="338"/>
      <point x="344" y="373" type="curve"/>
      <point x="311" y="373"/>
      <point x="281" y="373"/>
      <point x="249" y="373" type="curve"/>
      <point x="206" y="338"/>
      <point x="249" y="374"/>
    </contour>
    <contour>
      <point x="250" y="373" type="curve"/>
      <point x="201" y="373"/>
      <point x="154" y="373"/>
      <point x="105" y="373" type="curve"/>
      <point x="105" y="338"/>
      <point x="105" y="374"/>
      <point x="105" y="340" type="curve"/>
      <point x="140" y="340"/>
      <point x="173" y="340"/>
      <point x="207" y="340" type="curve"/>
      <point x="250" y="374"/>
      <point x="207" y="338"/>
    </contour>
    <contour>
      <point x="62" y="616" type="line"/>
      <point x="250" y="743" type="line"/>
      <point x="207" y="752" type="line"/>
      <point x="43" y="643" type="line"/>
    </contour>
    <contour>
      <point x="250" y="373" type="curve"/>
      <point x="250" y="752" type="line"/>
      <point x="207" y="752" type="line"/>
      <point x="207" y="340" type="line"/>
      <point x="250" y="374"/>
      <point x="207" y="338"/>
    </contour>
    <contour>
      <point x="1249" y="-88" type="curve"/>
      <point x="1249" y="-53"/>
      <point x="1249" y="-19"/>
      <point x="1249" y="18" type="curve"/>
      <point x="1214" y="18"/>
      <point x="1249" y="18"/>
      <point x="1214" y="18" type="curve"/>
      <point x="1214" y="-7"/>
      <point x="1214" y="-30"/>
      <point x="1214" y="-54" type="curve"/>
      <point x="1251" y="-86"/>
      <point x="1212" y="-56"/>
    </contour>
    <contour>
      <point x="836" y="-88" type="curve"/>
      <point x="986" y="-88"/>
      <point x="1117" y="-88"/>
      <point x="1249" y="-88" type="curve"/>
      <point x="1212" y="-56"/>
      <point x="1251" y="-86"/>
      <point x="1214" y="-54" type="curve"/>
      <point x="1089" y="-54"/>
      <point x="962" y="-54"/>
      <point x="836" y="-54" type="curve"/>
      <point x="836" y="-88"/>
      <point x="836" y="-54"/>
    </contour>
    <contour>
      <point x="899" y="226" type="curve"/>
      <point x="938" y="274"/>
      <point x="984" y="297"/>
      <point x="1049" y="297" type="curve"/>
      <point x="1123" y="297"/>
      <point x="1180" y="272"/>
      <point x="1180" y="208" type="curve"/>
      <point x="1180" y="150"/>
      <point x="1133" y="128"/>
      <point x="1085" y="96" type="curve"/>
      <point x="1001" y="46"/>
      <point x="918" y="-4"/>
      <point x="836" y="-54" type="curve"/>
      <point x="845" y="-88"/>
      <point x="837" y="-54"/>
      <point x="845" y="-88" type="curve"/>
      <point x="937" y="-33"/>
      <point x="1024" y="17"/>
      <point x="1110" y="68" type="curve"/>
      <point x="1168" y="109"/>
      <point x="1222" y="139"/>
      <point x="1222" y="209" type="curve"/>
      <point x="1222" y="295"/>
      <point x="1148" y="331"/>
      <point x="1053" y="331" type="curve"/>
      <point x="972" y="331"/>
      <point x="911" y="308"/>
      <point x="869" y="245" type="curve"/>
      <point x="899" y="226"/>
      <point x="869" y="245"/>
    </contour>
  </outline>
</glyph>
<glyph name="threequarters" format="1">
  <advance width="1216"/>
  <unicode hex="00BE"/>
  <outline>
    <contour>
      <point x="386" y="-84" type="line"/>
      <point x="932" y="749" type="line"/>
      <point x="888" y="749" type="line"/>
      <point x="342" y="-84" type="line"/>
    </contour>
    <contour>
      <point x="79" y="672" type="curve"/>
      <point x="117" y="701"/>
      <point x="160" y="717"/>
      <point x="205" y="717" type="curve"/>
      <point x="279" y="717"/>
      <point x="340" y="702"/>
      <point x="340" y="639" type="curve"/>
      <point x="340" y="561"/>
      <point x="243" y="563"/>
      <point x="149" y="557" type="curve"/>
      <point x="149" y="528"/>
      <point x="149" y="557"/>
      <point x="149" y="528" type="curve"/>
      <point x="271" y="529"/>
      <point x="382" y="538"/>
      <point x="382" y="641" type="curve"/>
      <point x="382" y="726"/>
      <point x="306" y="750"/>
      <point x="210" y="750" type="curve"/>
      <point x="153" y="750"/>
      <point x="99" y="731"/>
      <point x="57" y="696" type="curve"/>
      <point x="79" y="672"/>
      <point x="57" y="696"/>
    </contour>
    <contour>
      <point x="50" y="360" type="curve"/>
      <point x="97" y="337"/>
      <point x="144" y="326"/>
      <point x="196" y="326" type="curve"/>
      <point x="311" y="323"/>
      <point x="404" y="346"/>
      <point x="402" y="443" type="curve"/>
      <point x="402" y="557"/>
      <point x="279" y="548"/>
      <point x="149" y="550" type="curve"/>
      <point x="149" y="525"/>
      <point x="149" y="550"/>
      <point x="149" y="525" type="curve"/>
      <point x="258" y="520"/>
      <point x="360" y="526"/>
      <point x="360" y="442" type="curve"/>
      <point x="359" y="370"/>
      <point x="287" y="357"/>
      <point x="200" y="359" type="curve"/>
      <point x="155" y="359"/>
      <point x="112" y="367"/>
      <point x="69" y="386" type="curve"/>
      <point x="50" y="360"/>
      <point x="69" y="386"/>
    </contour>
    <contour>
      <point x="1188" y="59" type="line"/>
      <point x="732" y="59" type="line"/>
      <point x="732" y="26" type="line"/>
      <point x="1188" y="26" type="line"/>
    </contour>
    <contour>
      <point x="749" y="30" type="line"/>
      <point x="1060" y="332" type="line"/>
      <point x="1022" y="342" type="line"/>
      <point x="732" y="59" type="line"/>
    </contour>
    <contour>
      <point x="1065" y="-96" type="line"/>
      <point x="1065" y="342" type="line"/>
      <point x="1022" y="342" type="line"/>
      <point x="1022" y="-96" type="line"/>
    </contour>
    <contour>
      <point x="1043" y="-63" type="line"/>
      <point x="926" y="-63" type="line"/>
      <point x="926" y="-96" type="line"/>
      <point x="1043" y="-96" type="line"/>
    </contour>
    <contour>
      <point x="1043" y="-96" type="line"/>
      <point x="1154" y="-96" type="line"/>
      <point x="1154" y="-63" type="line"/>
      <point x="1043" y="-63" type="line"/>
    </contour>
  </outline>
</glyph>
<glyph name="questiondown" format="1">
  <advance width="577"/>
  <unicode hex="00BF"/>
  <outline>
    <contour>
      <point x="356" y="366" type="curve"/>
      <point x="356" y="403"/>
      <point x="356" y="449"/>
      <point x="356" y="486" type="curve"/>
      <point x="312" y="486"/>
      <point x="356" y="486"/>
      <point x="312" y="486" type="curve"/>
      <point x="312" y="449"/>
      <point x="312" y="403"/>
      <point x="312" y="366" type="curve"/>
      <point x="356" y="366"/>
      <point x="312" y="366"/>
    </contour>
    <contour>
      <point x="491" y="88" type="line"/>
      <point x="450" y="55"/>
      <point x="388" y="27"/>
      <point x="319" y="27" type="curve"/>
      <point x="200" y="27"/>
      <point x="107" y="77"/>
      <point x="107" y="188" type="curve"/>
      <point x="107" y="311"/>
      <point x="215" y="366"/>
      <point x="353" y="366" type="curve"/>
      <point x="353" y="381"/>
      <point x="353" y="389"/>
      <point x="353" y="403" type="curve"/>
      <point x="191" y="403"/>
      <point x="65" y="334"/>
      <point x="65" y="188" type="curve"/>
      <point x="65" y="55"/>
      <point x="174" y="-9"/>
      <point x="316" y="-9" type="curve"/>
      <point x="397" y="-9"/>
      <point x="464" y="19"/>
      <point x="516" y="61" type="curve"/>
    </contour>
    <contour>
      <point x="308" y="695" type="curve"/>
      <point x="308" y="680"/>
      <point x="318" y="672"/>
      <point x="333" y="672" type="curve"/>
      <point x="350" y="672"/>
      <point x="359" y="681"/>
      <point x="359" y="695" type="curve"/>
      <point x="308" y="695"/>
      <point x="359" y="695"/>
      <point x="308" y="695" type="curve"/>
      <point x="308" y="710"/>
      <point x="318" y="717"/>
      <point x="333" y="717" type="curve"/>
      <point x="350" y="717"/>
      <point x="359" y="709"/>
      <point x="359" y="695" type="curve"/>
      <point x="308" y="695"/>
      <point x="359" y="695"/>
    </contour>
  </outline>
</glyph>
<glyph name="Adieresis" format="1">
  <advance width="996"/>
  <unicode hex="00C4"/>
  <outline>
    <contour>
      <point x="130" y="36" type="curve"/>
      <point x="-23" y="36"/>
      <point x="132" y="36"/>
      <point x="-21" y="36" type="curve"/>
      <point x="-21" y="0"/>
      <point x="-21" y="36"/>
      <point x="-21" y="0" type="curve"/>
      <point x="30" y="0"/>
      <point x="79" y="0"/>
      <point x="130" y="0" type="curve"/>
      <point x="130" y="36"/>
      <point x="130" y="0"/>
    </contour>
    <contour>
      <point x="130" y="0" type="curve"/>
      <point x="186" y="0"/>
      <point x="128" y="0"/>
      <point x="295" y="0" type="curve"/>
      <point x="295" y="36"/>
      <point x="295" y="0"/>
      <point x="295" y="36" type="curve"/>
      <point x="128" y="36"/>
      <point x="297" y="36"/>
      <point x="130" y="36" type="curve"/>
      <point x="130" y="0"/>
      <point x="130" y="36"/>
    </contour>
    <contour>
      <point x="830" y="0" type="curve"/>
      <point x="881" y="0"/>
      <point x="930" y="0"/>
      <point x="981" y="0" type="curve"/>
      <point x="981" y="36"/>
      <point x="981" y="0"/>
      <point x="981" y="36" type="curve"/>
      <point x="828" y="36"/>
      <point x="983" y="36"/>
      <point x="830" y="36" type="curve"/>
      <point x="830" y="0"/>
      <point x="830" y="36"/>
    </contour>
    <contour>
      <point x="830" y="36" type="curve"/>
      <point x="663" y="36"/>
      <point x="831" y="36"/>
      <point x="665" y="36" type="curve"/>
      <point x="665" y="0"/>
      <point x="665" y="36"/>
      <point x="665" y="0" type="curve"/>
      <point x="721" y="0"/>
      <point x="774" y="0"/>
      <point x="830" y="0" type="curve"/>
      <point x="830" y="36"/>
      <point x="830" y="0"/>
    </contour>
    <contour>
      <point x="712" y="283" type="curve"/>
      <point x="564" y="283"/>
      <point x="416" y="283"/>
      <point x="269" y="283" type="curve"/>
      <point x="251" y="245"/>
      <point x="269" y="283"/>
      <point x="251" y="245" type="curve"/>
      <point x="409" y="245"/>
      <point x="568" y="245"/>
      <point x="726" y="245" type="curve"/>
      <point x="712" y="283"/>
      <point x="726" y="245"/>
    </contour>
    <contour>
      <point x="868" y="0" type="curve"/>
      <point x="752" y="241"/>
      <point x="637" y="481"/>
      <point x="521" y="722" type="curve"/>
      <point x="481" y="722"/>
      <point x="521" y="722"/>
      <point x="481" y="722" type="curve"/>
      <point x="595" y="481"/>
      <point x="708" y="241"/>
      <point x="821" y="0" type="curve"/>
      <point x="868" y="0"/>
      <point x="821" y="0"/>
    </contour>
    <contour>
      <point x="139" y="0" type="curve"/>
      <point x="266" y="241"/>
      <point x="391" y="481"/>
      <point x="519" y="722" type="curve"/>
      <point x="479" y="722"/>
      <point x="519" y="722"/>
      <point x="479" y="722" type="curve"/>
      <point x="350" y="481"/>
      <point x="220" y="241"/>
      <point x="91" y="0" type="curve"/>
      <point x="139" y="0"/>
      <point x="91" y="0"/>
    </contour>
    <contour>
      <point x="445" y="844" type="curve"/>
      <point x="445" y="861"/>
      <point x="432" y="871"/>
      <point x="414" y="871" type="curve"/>
      <point x="397" y="871"/>
      <point x="386" y="861"/>
      <point x="386" y="844" type="curve"/>
      <point x="426" y="844"/>
      <point x="404" y="844"/>
      <point x="445" y="844" type="curve"/>
      <point x="445" y="827"/>
      <point x="432" y="818"/>
      <point x="414" y="818" type="curve"/>
      <point x="397" y="818"/>
      <point x="386" y="828"/>
      <point x="386" y="844" type="curve"/>
      <point x="426" y="844"/>
      <point x="404" y="844"/>
    </contour>
    <contour>
      <point x="611" y="844" type="curve"/>
      <point x="611" y="861"/>
      <point x="598" y="871"/>
      <point x="580" y="871" type="curve"/>
      <point x="563" y="871"/>
      <point x="552" y="861"/>
      <point x="552" y="844" type="curve"/>
      <point x="592" y="844"/>
      <point x="570" y="844"/>
      <point x="611" y="844" type="curve"/>
      <point x="611" y="827"/>
      <point x="598" y="818"/>
      <point x="580" y="818" type="curve"/>
      <point x="563" y="818"/>
      <point x="552" y="828"/>
      <point x="552" y="844" type="curve"/>
      <point x="592" y="844"/>
      <point x="570" y="844"/>
    </contour>
  </outline>
</glyph>
<glyph name="AE" format="1">
  <advance width="1206"/>
  <unicode hex="00C6"/>
  <outline>
    <contour>
      <point x="138" y="36" type="curve"/>
      <point x="-18" y="36"/>
      <point x="139" y="36"/>
      <point x="-17" y="36" type="curve"/>
      <point x="-17" y="0"/>
      <point x="-17" y="36"/>
      <point x="-17" y="0" type="curve"/>
      <point x="35" y="0"/>
      <point x="87" y="0"/>
      <point x="138" y="0" type="curve"/>
      <point x="138" y="36"/>
      <point x="138" y="0"/>
    </contour>
    <contour>
      <point x="138" y="0" type="curve"/>
      <point x="197" y="0"/>
      <point x="137" y="0"/>
      <point x="315" y="0" type="curve"/>
      <point x="315" y="36"/>
      <point x="315" y="0"/>
      <point x="315" y="36" type="curve"/>
      <point x="137" y="36"/>
      <point x="316" y="36"/>
      <point x="138" y="36" type="curve"/>
      <point x="138" y="0"/>
      <point x="138" y="36"/>
    </contour>
    <contour>
      <point x="603" y="249" type="curve"/>
      <point x="454" y="249"/>
      <point x="428" y="249"/>
      <point x="280" y="249" type="curve"/>
      <point x="262" y="211"/>
      <point x="280" y="249"/>
      <point x="262" y="211" type="curve"/>
      <point x="421" y="211"/>
      <point x="458" y="211"/>
      <point x="616" y="211" type="curve"/>
      <point x="603" y="249"/>
      <point x="616" y="211"/>
    </contour>
    <contour>
      <point x="147" y="0" type="curve"/>
      <point x="637" y="722" type="line"/>
      <point x="597" y="722"/>
      <point x="632" y="722"/>
      <point x="592" y="722" type="curve"/>
      <point x="97" y="0" type="line"/>
      <point x="145" y="0"/>
      <point x="99" y="0"/>
    </contour>
    <contour>
      <point x="1156" y="18" type="curve"/>
      <point x="1156" y="138"/>
      <point x="1156" y="17"/>
      <point x="1156" y="137" type="curve"/>
      <point x="1119" y="137"/>
      <point x="1156" y="137"/>
      <point x="1119" y="137" type="curve"/>
      <point x="1119" y="17"/>
      <point x="1119" y="138"/>
      <point x="1119" y="18" type="curve"/>
      <point x="1156" y="18"/>
      <point x="1119" y="18"/>
    </contour>
    <contour>
      <point x="1077" y="704" type="curve"/>
      <point x="1077" y="584"/>
      <point x="1077" y="705"/>
      <point x="1077" y="585" type="curve"/>
      <point x="1113" y="585"/>
      <point x="1077" y="585"/>
      <point x="1113" y="585" type="curve"/>
      <point x="1113" y="705"/>
      <point x="1113" y="584"/>
      <point x="1113" y="704" type="curve"/>
      <point x="1077" y="704"/>
      <point x="1113" y="704"/>
    </contour>
    <contour>
      <point x="609" y="36" type="curve"/>
      <point x="444" y="36"/>
      <point x="610" y="36"/>
      <point x="446" y="36" type="curve"/>
      <point x="446" y="0"/>
      <point x="446" y="36"/>
      <point x="446" y="0" type="curve"/>
      <point x="501" y="0"/>
      <point x="554" y="0"/>
      <point x="609" y="0" type="curve"/>
      <point x="609" y="36"/>
      <point x="609" y="0"/>
    </contour>
    <contour>
      <point x="609" y="722" type="curve"/>
      <point x="554" y="722"/>
      <point x="501" y="722"/>
      <point x="446" y="722" type="curve"/>
      <point x="446" y="686"/>
      <point x="446" y="722"/>
      <point x="446" y="686" type="curve"/>
      <point x="610" y="686"/>
      <point x="444" y="686"/>
      <point x="609" y="686" type="curve"/>
      <point x="609" y="722"/>
      <point x="609" y="686"/>
    </contour>
    <contour>
      <point x="613" y="356" type="curve"/>
      <point x="752" y="356"/>
      <point x="892" y="356"/>
      <point x="1033" y="356" type="curve"/>
      <point x="1033" y="392"/>
      <point x="1033" y="356"/>
      <point x="1033" y="392" type="curve"/>
      <point x="892" y="392"/>
      <point x="752" y="392"/>
      <point x="613" y="392" type="curve"/>
      <point x="613" y="356"/>
      <point x="613" y="392"/>
    </contour>
    <contour>
      <point x="593" y="686" type="curve"/>
      <point x="766" y="686"/>
      <point x="939" y="686"/>
      <point x="1113" y="686" type="curve"/>
      <point x="1113" y="722"/>
      <point x="1113" y="686"/>
      <point x="1113" y="722" type="curve"/>
      <point x="939" y="722"/>
      <point x="766" y="722"/>
      <point x="593" y="722" type="curve"/>
      <point x="593" y="686"/>
      <point x="593" y="722"/>
    </contour>
    <contour>
      <point x="629" y="0" type="curve"/>
      <point x="629" y="722" type="line"/>
      <point x="585" y="722"/>
      <point x="629" y="722"/>
      <point x="585" y="722" type="curve"/>
      <point x="585" y="481"/>
      <point x="585" y="241"/>
      <point x="585" y="0" type="curve"/>
      <point x="629" y="0"/>
      <point x="585" y="0"/>
    </contour>
    <contour>
      <point x="593" y="0" type="curve"/>
      <point x="781" y="0"/>
      <point x="968" y="0"/>
      <point x="1156" y="0" type="curve"/>
      <point x="1156" y="36"/>
      <point x="1156" y="0"/>
      <point x="1156" y="36" type="curve"/>
      <point x="968" y="36"/>
      <point x="781" y="36"/>
      <point x="593" y="36" type="curve"/>
      <point x="593" y="0"/>
      <point x="593" y="36"/>
    </contour>
  </outline>
</glyph>
<glyph name="Ccedilla" format="1">
  <advance width="849"/>
  <unicode hex="00C7"/>
  <outline>
    <contour>
      <point x="742" y="655" type="curve"/>
      <point x="742" y="535"/>
      <point x="742" y="648"/>
      <point x="742" y="528" type="curve"/>
      <point x="778" y="528"/>
      <point x="742" y="528"/>
      <point x="778" y="528" type="curve"/>
      <point x="778" y="648"/>
      <point x="778" y="535"/>
      <point x="778" y="655" type="curve"/>
      <point x="742" y="655"/>
      <point x="778" y="655"/>
    </contour>
    <contour>
      <point x="778" y="655" type="curve"/>
      <point x="689" y="697"/>
      <point x="594" y="727"/>
      <point x="488" y="727" type="curve"/>
      <point x="233" y="727"/>
      <point x="68" y="592"/>
      <point x="68" y="344" type="curve"/>
      <point x="68" y="115"/>
      <point x="222" y="-5"/>
      <point x="460" y="-5" type="curve"/>
      <point x="598" y="-5"/>
      <point x="688" y="26"/>
      <point x="799" y="95" type="curve"/>
      <point x="777" y="124"/>
      <point x="799" y="95"/>
      <point x="777" y="124" type="curve"/>
      <point x="673" y="57"/>
      <point x="586" y="33"/>
      <point x="462" y="33" type="curve"/>
      <point x="250" y="33"/>
      <point x="112" y="142"/>
      <point x="112" y="346" type="curve"/>
      <point x="112" y="566"/>
      <point x="259" y="690"/>
      <point x="486" y="690" type="curve"/>
      <point x="584" y="690"/>
      <point x="673" y="666"/>
      <point x="755" y="627" type="curve"/>
      <point x="778" y="655"/>
      <point x="755" y="627"/>
    </contour>
    <contour>
      <point x="433" y="32" type="curve"/>
      <point x="414" y="6"/>
      <point x="386" y="-32"/>
      <point x="368" y="-58" type="curve"/>
      <point x="397" y="-87"/>
      <point x="368" y="-58"/>
      <point x="397" y="-87" type="curve"/>
      <point x="416" y="-59"/>
      <point x="446" y="-19"/>
      <point x="465" y="9" type="curve"/>
      <point x="433" y="32"/>
      <point x="465" y="9"/>
    </contour>
    <contour>
      <point x="397" y="-87" type="curve"/>
      <point x="416" y="-78"/>
      <point x="431" y="-75"/>
      <point x="452" y="-75" type="curve"/>
      <point x="488" y="-75"/>
      <point x="514" y="-91"/>
      <point x="514" y="-125" type="curve"/>
      <point x="514" y="-163"/>
      <point x="479" y="-174"/>
      <point x="436" y="-174" type="curve"/>
      <point x="402" y="-174"/>
      <point x="377" y="-171"/>
      <point x="345" y="-156" type="curve"/>
      <point x="331" y="-184"/>
      <point x="345" y="-156"/>
      <point x="331" y="-184" type="curve"/>
      <point x="366" y="-199"/>
      <point x="395" y="-207"/>
      <point x="434" y="-207" type="curve"/>
      <point x="501" y="-207"/>
      <point x="556" y="-186"/>
      <point x="556" y="-124" type="curve"/>
      <point x="556" y="-69"/>
      <point x="513" y="-41"/>
      <point x="455" y="-41" type="curve"/>
      <point x="422" y="-41"/>
      <point x="399" y="-47"/>
      <point x="369" y="-59" type="curve"/>
      <point x="397" y="-87"/>
      <point x="369" y="-59"/>
    </contour>
  </outline>
</glyph>
<glyph name="Edieresis" format="1">
  <advance width="807"/>
  <unicode hex="00CB"/>
  <outline>
    <contour>
      <point x="756" y="18" type="curve"/>
      <point x="756" y="138"/>
      <point x="756" y="17"/>
      <point x="756" y="137" type="curve"/>
      <point x="721" y="137"/>
      <point x="756" y="137"/>
      <point x="721" y="137" type="curve"/>
      <point x="721" y="17"/>
      <point x="721" y="138"/>
      <point x="721" y="18" type="curve"/>
      <point x="756" y="18"/>
      <point x="721" y="18"/>
    </contour>
    <contour>
      <point x="678" y="704" type="curve"/>
      <point x="678" y="584"/>
      <point x="678" y="705"/>
      <point x="678" y="585" type="curve"/>
      <point x="714" y="585"/>
      <point x="678" y="585"/>
      <point x="714" y="585" type="curve"/>
      <point x="714" y="705"/>
      <point x="714" y="584"/>
      <point x="714" y="704" type="curve"/>
      <point x="678" y="704"/>
      <point x="714" y="704"/>
    </contour>
    <contour>
      <point x="210" y="36" type="curve"/>
      <point x="45" y="36"/>
      <point x="212" y="36"/>
      <point x="47" y="36" type="curve"/>
      <point x="47" y="0"/>
      <point x="47" y="36"/>
      <point x="47" y="0" type="curve"/>
      <point x="102" y="0"/>
      <point x="154" y="0"/>
      <point x="210" y="0" type="curve"/>
      <point x="210" y="36"/>
      <point x="210" y="0"/>
    </contour>
    <contour>
      <point x="210" y="722" type="curve"/>
      <point x="154" y="722"/>
      <point x="102" y="722"/>
      <point x="47" y="722" type="curve"/>
      <point x="47" y="686"/>
      <point x="47" y="722"/>
      <point x="47" y="686" type="curve"/>
      <point x="212" y="686"/>
      <point x="45" y="686"/>
      <point x="210" y="686" type="curve"/>
      <point x="210" y="722"/>
      <point x="210" y="686"/>
    </contour>
    <contour>
      <point x="214" y="356" type="curve"/>
      <point x="353" y="356"/>
      <point x="494" y="356"/>
      <point x="634" y="356" type="curve"/>
      <point x="634" y="392"/>
      <point x="634" y="356"/>
      <point x="634" y="392" type="curve"/>
      <point x="494" y="392"/>
      <point x="353" y="392"/>
      <point x="214" y="392" type="curve"/>
      <point x="214" y="356"/>
      <point x="214" y="392"/>
    </contour>
    <contour>
      <point x="194" y="686" type="curve"/>
      <point x="367" y="686"/>
      <point x="541" y="686"/>
      <point x="714" y="686" type="curve"/>
      <point x="714" y="722"/>
      <point x="714" y="686"/>
      <point x="714" y="722" type="curve"/>
      <point x="541" y="722"/>
      <point x="367" y="722"/>
      <point x="194" y="722" type="curve"/>
      <point x="194" y="686"/>
      <point x="194" y="722"/>
    </contour>
    <contour>
      <point x="230" y="0" type="curve"/>
      <point x="230" y="722" type="line"/>
      <point x="186" y="722"/>
      <point x="230" y="722"/>
      <point x="186" y="722" type="curve"/>
      <point x="186" y="481"/>
      <point x="186" y="241"/>
      <point x="186" y="0" type="curve"/>
      <point x="230" y="0"/>
      <point x="186" y="0"/>
    </contour>
    <contour>
      <point x="194" y="0" type="curve"/>
      <point x="382" y="0"/>
      <point x="569" y="0"/>
      <point x="756" y="0" type="curve"/>
      <point x="756" y="36"/>
      <point x="756" y="0"/>
      <point x="756" y="36" type="curve"/>
      <point x="569" y="36"/>
      <point x="382" y="36"/>
      <point x="194" y="36" type="curve"/>
      <point x="194" y="0"/>
      <point x="194" y="36"/>
    </contour>
    <contour>
      <point x="367" y="844" type="curve"/>
      <point x="367" y="861"/>
      <point x="354" y="871"/>
      <point x="336" y="871" type="curve"/>
      <point x="319" y="871"/>
      <point x="308" y="861"/>
      <point x="308" y="844" type="curve"/>
      <point x="348" y="844"/>
      <point x="326" y="844"/>
      <point x="367" y="844" type="curve"/>
      <point x="367" y="827"/>
      <point x="354" y="818"/>
      <point x="336" y="818" type="curve"/>
      <point x="319" y="818"/>
      <point x="308" y="828"/>
      <point x="308" y="844" type="curve"/>
      <point x="348" y="844"/>
      <point x="326" y="844"/>
    </contour>
    <contour>
      <point x="533" y="844" type="curve"/>
      <point x="533" y="861"/>
      <point x="521" y="871"/>
      <point x="502" y="871" type="curve"/>
      <point x="485" y="871"/>
      <point x="474" y="861"/>
      <point x="474" y="844" type="curve"/>
      <point x="514" y="844"/>
      <point x="493" y="844"/>
      <point x="533" y="844" type="curve"/>
      <point x="533" y="827"/>
      <point x="521" y="818"/>
      <point x="502" y="818" type="curve"/>
      <point x="485" y="818"/>
      <point x="474" y="828"/>
      <point x="474" y="844" type="curve"/>
      <point x="514" y="844"/>
      <point x="493" y="844"/>
    </contour>
  </outline>
</glyph>
<glyph name="Igrave" format="1">
  <advance width="427"/>
  <unicode hex="00CC"/>
  <outline>
    <contour>
      <point x="223" y="722" type="curve"/>
      <point x="166" y="722"/>
      <point x="115" y="722"/>
      <point x="60" y="722" type="curve"/>
      <point x="60" y="686"/>
      <point x="60" y="722"/>
      <point x="60" y="686" type="curve"/>
      <point x="228" y="686"/>
      <point x="54" y="686"/>
      <point x="223" y="686" type="curve"/>
      <point x="223" y="722"/>
      <point x="223" y="686"/>
    </contour>
    <contour>
      <point x="223" y="686" type="curve"/>
      <point x="391" y="686"/>
      <point x="217" y="686"/>
      <point x="386" y="686" type="curve"/>
      <point x="386" y="722"/>
      <point x="386" y="686"/>
      <point x="386" y="722" type="curve"/>
      <point x="329" y="722"/>
      <point x="279" y="722"/>
      <point x="223" y="722" type="curve"/>
      <point x="223" y="686"/>
      <point x="223" y="722"/>
    </contour>
    <contour>
      <point x="223" y="0" type="curve"/>
      <point x="279" y="0"/>
      <point x="329" y="0"/>
      <point x="386" y="0" type="curve"/>
      <point x="386" y="36"/>
      <point x="386" y="0"/>
      <point x="386" y="36" type="curve"/>
      <point x="217" y="36"/>
      <point x="391" y="36"/>
      <point x="223" y="36" type="curve"/>
      <point x="223" y="0"/>
      <point x="223" y="36"/>
    </contour>
    <contour>
      <point x="223" y="36" type="curve"/>
      <point x="54" y="36"/>
      <point x="228" y="36"/>
      <point x="60" y="36" type="curve"/>
      <point x="60" y="0"/>
      <point x="60" y="36"/>
      <point x="60" y="0" type="curve"/>
      <point x="115" y="0"/>
      <point x="166" y="0"/>
      <point x="223" y="0" type="curve"/>
      <point x="223" y="36"/>
      <point x="223" y="0"/>
    </contour>
    <contour>
      <point x="243" y="0" type="curve"/>
      <point x="243" y="241"/>
      <point x="243" y="481"/>
      <point x="243" y="722" type="curve"/>
      <point x="199" y="722"/>
      <point x="243" y="722"/>
      <point x="199" y="722" type="curve"/>
      <point x="199" y="481"/>
      <point x="199" y="241"/>
      <point x="199" y="0" type="curve"/>
      <point x="243" y="0"/>
      <point x="199" y="0"/>
    </contour>
    <contour>
      <point x="250" y="818" type="line"/>
      <point x="79" y="984" type="line"/>
      <point x="16" y="984" type="line"/>
      <point x="201" y="818" type="line"/>
    </contour>
  </outline>
</glyph>
<glyph name="Icircumflex" format="1">
  <advance width="429"/>
  <unicode hex="00CE"/>
  <outline>
    <contour>
      <point x="212" y="722" type="curve"/>
      <point x="155" y="722"/>
      <point x="106" y="722"/>
      <point x="50" y="722" type="curve"/>
      <point x="50" y="686"/>
      <point x="50" y="722"/>
      <point x="50" y="686" type="curve"/>
      <point x="218" y="686"/>
      <point x="44" y="686"/>
      <point x="212" y="686" type="curve"/>
      <point x="212" y="722"/>
      <point x="212" y="686"/>
    </contour>
    <contour>
      <point x="212" y="686" type="curve"/>
      <point x="381" y="686"/>
      <point x="207" y="686"/>
      <point x="376" y="686" type="curve"/>
      <point x="376" y="722"/>
      <point x="376" y="686"/>
      <point x="376" y="722" type="curve"/>
      <point x="319" y="722"/>
      <point x="268" y="722"/>
      <point x="212" y="722" type="curve"/>
      <point x="212" y="686"/>
      <point x="212" y="722"/>
    </contour>
    <contour>
      <point x="212" y="0" type="curve"/>
      <point x="268" y="0"/>
      <point x="319" y="0"/>
      <point x="376" y="0" type="curve"/>
      <point x="376" y="36"/>
      <point x="376" y="0"/>
      <point x="376" y="36" type="curve"/>
      <point x="207" y="36"/>
      <point x="381" y="36"/>
      <point x="212" y="36" type="curve"/>
      <point x="212" y="0"/>
      <point x="212" y="36"/>
    </contour>
    <contour>
      <point x="212" y="36" type="curve"/>
      <point x="44" y="36"/>
      <point x="218" y="36"/>
      <point x="50" y="36" type="curve"/>
      <point x="50" y="0"/>
      <point x="50" y="36"/>
      <point x="50" y="0" type="curve"/>
      <point x="106" y="0"/>
      <point x="155" y="0"/>
      <point x="212" y="0" type="curve"/>
      <point x="212" y="36"/>
      <point x="212" y="0"/>
    </contour>
    <contour>
      <point x="232" y="0" type="curve"/>
      <point x="232" y="241"/>
      <point x="232" y="481"/>
      <point x="232" y="722" type="curve"/>
      <point x="188" y="722"/>
      <point x="232" y="722"/>
      <point x="188" y="722" type="curve"/>
      <point x="188" y="481"/>
      <point x="188" y="241"/>
      <point x="188" y="0" type="curve"/>
      <point x="232" y="0"/>
      <point x="188" y="0"/>
    </contour>
    <contour>
      <point x="49" y="819" type="line"/>
      <point x="235" y="985" type="line"/>
      <point x="172" y="985" type="line"/>
      <point x="1" y="819" type="line"/>
    </contour>
    <contour>
      <point x="422" y="819" type="line"/>
      <point x="251" y="985" type="line"/>
      <point x="188" y="985" type="line"/>
      <point x="373" y="819" type="line"/>
    </contour>
  </outline>
</glyph>
<glyph name="Idieresis" format="1">
  <advance width="412"/>
  <unicode hex="00CF"/>
  <outline>
    <contour>
      <point x="207" y="722" type="curve"/>
      <point x="150" y="722"/>
      <point x="100" y="722"/>
      <point x="44" y="722" type="curve"/>
      <point x="44" y="686"/>
      <point x="44" y="722"/>
      <point x="44" y="686" type="curve"/>
      <point x="212" y="686"/>
      <point x="38" y="686"/>
      <point x="207" y="686" type="curve"/>
      <point x="207" y="722"/>
      <point x="207" y="686"/>
    </contour>
    <contour>
      <point x="207" y="686" type="curve"/>
      <point x="376" y="686"/>
      <point x="201" y="686"/>
      <point x="370" y="686" type="curve"/>
      <point x="370" y="722"/>
      <point x="370" y="686"/>
      <point x="370" y="722" type="curve"/>
      <point x="313" y="722"/>
      <point x="263" y="722"/>
      <point x="207" y="722" type="curve"/>
      <point x="207" y="686"/>
      <point x="207" y="722"/>
    </contour>
    <contour>
      <point x="207" y="0" type="curve"/>
      <point x="263" y="0"/>
      <point x="313" y="0"/>
      <point x="370" y="0" type="curve"/>
      <point x="370" y="36"/>
      <point x="370" y="0"/>
      <point x="370" y="36" type="curve"/>
      <point x="201" y="36"/>
      <point x="376" y="36"/>
      <point x="207" y="36" type="curve"/>
      <point x="207" y="0"/>
      <point x="207" y="36"/>
    </contour>
    <contour>
      <point x="207" y="36" type="curve"/>
      <point x="38" y="36"/>
      <point x="212" y="36"/>
      <point x="44" y="36" type="curve"/>
      <point x="44" y="0"/>
      <point x="44" y="36"/>
      <point x="44" y="0" type="curve"/>
      <point x="100" y="0"/>
      <point x="150" y="0"/>
      <point x="207" y="0" type="curve"/>
      <point x="207" y="36"/>
      <point x="207" y="0"/>
    </contour>
    <contour>
      <point x="227" y="0" type="curve"/>
      <point x="227" y="241"/>
      <point x="227" y="481"/>
      <point x="227" y="722" type="curve"/>
      <point x="183" y="722"/>
      <point x="227" y="722"/>
      <point x="183" y="722" type="curve"/>
      <point x="183" y="481"/>
      <point x="183" y="241"/>
      <point x="183" y="0" type="curve"/>
      <point x="227" y="0"/>
      <point x="183" y="0"/>
    </contour>
    <contour>
      <point x="151" y="844" type="curve"/>
      <point x="151" y="861"/>
      <point x="139" y="871"/>
      <point x="120" y="871" type="curve"/>
      <point x="103" y="871"/>
      <point x="92" y="861"/>
      <point x="92" y="844" type="curve"/>
      <point x="133" y="844"/>
      <point x="111" y="844"/>
      <point x="151" y="844" type="curve"/>
      <point x="151" y="827"/>
      <point x="139" y="818"/>
      <point x="120" y="818" type="curve"/>
      <point x="103" y="818"/>
      <point x="92" y="828"/>
      <point x="92" y="844" type="curve"/>
      <point x="133" y="844"/>
      <point x="111" y="844"/>
    </contour>
    <contour>
      <point x="317" y="844" type="curve"/>
      <point x="317" y="861"/>
      <point x="305" y="871"/>
      <point x="287" y="871" type="curve"/>
      <point x="270" y="871"/>
      <point x="259" y="861"/>
      <point x="259" y="844" type="curve"/>
      <point x="299" y="844"/>
      <point x="277" y="844"/>
      <point x="317" y="844" type="curve"/>
      <point x="317" y="827"/>
      <point x="305" y="818"/>
      <point x="287" y="818" type="curve"/>
      <point x="270" y="818"/>
      <point x="259" y="828"/>
      <point x="259" y="844" type="curve"/>
      <point x="299" y="844"/>
      <point x="277" y="844"/>
    </contour>
  </outline>
</glyph>
<glyph name="Ograve" format="1">
  <advance width="918"/>
  <unicode hex="00D2"/>
  <outline>
    <contour>
      <point x="112" y="360" type="curve"/>
      <point x="112" y="565"/>
      <point x="247" y="690"/>
      <point x="456" y="690" type="curve"/>
      <point x="666" y="690"/>
      <point x="804" y="567"/>
      <point x="804" y="363" type="curve"/>
      <point x="804" y="159"/>
      <point x="669" y="33"/>
      <point x="461" y="33" type="curve"/>
      <point x="250" y="33"/>
      <point x="112" y="155"/>
      <point x="112" y="360" type="curve"/>
      <point x="68" y="360"/>
      <point x="112" y="360"/>
      <point x="68" y="360" type="curve"/>
      <point x="68" y="130"/>
      <point x="224" y="-5"/>
      <point x="459" y="-5" type="curve"/>
      <point x="693" y="-5"/>
      <point x="849" y="132"/>
      <point x="849" y="363" type="curve"/>
      <point x="849" y="592"/>
      <point x="693" y="727"/>
      <point x="459" y="727" type="curve"/>
      <point x="223" y="727"/>
      <point x="68" y="590"/>
      <point x="68" y="360" type="curve"/>
      <point x="112" y="360"/>
      <point x="68" y="360"/>
    </contour>
    <contour>
      <point x="487" y="818" type="line"/>
      <point x="316" y="984" type="line"/>
      <point x="253" y="984" type="line"/>
      <point x="438" y="818" type="line"/>
    </contour>
  </outline>
</glyph>
<glyph name="Otilde" format="1">
  <advance width="918"/>
  <unicode hex="00D5"/>
  <outline>
    <contour>
      <point x="112" y="360" type="curve"/>
      <point x="112" y="565"/>
      <point x="247" y="690"/>
      <point x="456" y="690" type="curve"/>
      <point x="666" y="690"/>
      <point x="804" y="567"/>
      <point x="804" y="363" type="curve"/>
      <point x="804" y="159"/>
      <point x="669" y="33"/>
      <point x="461" y="33" type="curve"/>
      <point x="250" y="33"/>
      <point x="112" y="155"/>
      <point x="112" y="360" type="curve"/>
      <point x="68" y="360"/>
      <point x="112" y="360"/>
      <point x="68" y="360" type="curve"/>
      <point x="68" y="130"/>
      <point x="224" y="-5"/>
      <point x="459" y="-5" type="curve"/>
      <point x="693" y="-5"/>
      <point x="849" y="132"/>
      <point x="849" y="363" type="curve"/>
      <point x="849" y="592"/>
      <point x="693" y="727"/>
      <point x="459" y="727" type="curve"/>
      <point x="223" y="727"/>
      <point x="68" y="590"/>
      <point x="68" y="360" type="curve"/>
      <point x="112" y="360"/>
      <point x="68" y="360"/>
    </contour>
    <contour>
      <point x="668" y="950" type="curve"/>
      <point x="651" y="897"/>
      <point x="628" y="852"/>
      <point x="576" y="852" type="curve"/>
      <point x="530" y="852"/>
      <point x="500" y="868"/>
      <point x="466" y="898" type="curve"/>
      <point x="427" y="932"/>
      <point x="395" y="952"/>
      <point x="345" y="952" type="curve"/>
      <point x="271" y="952"/>
      <point x="230" y="905"/>
      <point x="209" y="830" type="curve"/>
      <point x="242" y="817"/>
      <point x="209" y="830"/>
      <point x="243" y="817" type="curve"/>
      <point x="260" y="876"/>
      <point x="289" y="916"/>
      <point x="346" y="916" type="curve"/>
      <point x="387" y="916"/>
      <point x="412" y="898"/>
      <point x="443" y="870" type="curve"/>
      <point x="485" y="835"/>
      <point x="521" y="816"/>
      <point x="575" y="816" type="curve"/>
      <point x="647" y="816"/>
      <point x="679" y="868"/>
      <point x="703" y="938" type="curve"/>
      <point x="668" y="950"/>
      <point x="703" y="938"/>
    </contour>
  </outline>
</glyph>
<glyph name="Odieresis" format="1">
  <advance width="918"/>
  <unicode hex="00D6"/>
  <outline>
    <contour>
      <point x="112" y="360" type="curve"/>
      <point x="112" y="565"/>
      <point x="247" y="690"/>
      <point x="456" y="690" type="curve"/>
      <point x="666" y="690"/>
      <point x="804" y="567"/>
      <point x="804" y="363" type="curve"/>
      <point x="804" y="159"/>
      <point x="669" y="33"/>
      <point x="461" y="33" type="curve"/>
      <point x="250" y="33"/>
      <point x="112" y="155"/>
      <point x="112" y="360" type="curve"/>
      <point x="68" y="360"/>
      <point x="112" y="360"/>
      <point x="68" y="360" type="curve"/>
      <point x="68" y="130"/>
      <point x="224" y="-5"/>
      <point x="459" y="-5" type="curve"/>
      <point x="693" y="-5"/>
      <point x="849" y="132"/>
      <point x="849" y="363" type="curve"/>
      <point x="849" y="592"/>
      <point x="693" y="727"/>
      <point x="459" y="727" type="curve"/>
      <point x="223" y="727"/>
      <point x="68" y="590"/>
      <point x="68" y="360" type="curve"/>
      <point x="112" y="360"/>
      <point x="68" y="360"/>
    </contour>
    <contour>
      <point x="404" y="844" type="curve"/>
      <point x="404" y="861"/>
      <point x="391" y="871"/>
      <point x="373" y="871" type="curve"/>
      <point x="356" y="871"/>
      <point x="344" y="861"/>
      <point x="344" y="844" type="curve"/>
      <point x="385" y="844"/>
      <point x="363" y="844"/>
      <point x="404" y="844" type="curve"/>
      <point x="404" y="827"/>
      <point x="391" y="818"/>
      <point x="373" y="818" type="curve"/>
      <point x="356" y="818"/>
      <point x="344" y="828"/>
      <point x="344" y="844" type="curve"/>
      <point x="385" y="844"/>
      <point x="363" y="844"/>
    </contour>
    <contour>
      <point x="570" y="844" type="curve"/>
      <point x="570" y="861"/>
      <point x="557" y="871"/>
      <point x="539" y="871" type="curve"/>
      <point x="522" y="871"/>
      <point x="511" y="861"/>
      <point x="511" y="844" type="curve"/>
      <point x="551" y="844"/>
      <point x="529" y="844"/>
      <point x="570" y="844" type="curve"/>
      <point x="570" y="827"/>
      <point x="557" y="818"/>
      <point x="539" y="818" type="curve"/>
      <point x="522" y="818"/>
      <point x="511" y="828"/>
      <point x="511" y="844" type="curve"/>
      <point x="551" y="844"/>
      <point x="529" y="844"/>
    </contour>
  </outline>
</glyph>
<glyph name="multiply" format="1">
  <advance width="582"/>
  <unicode hex="00D7"/>
  <outline>
    <contour>
      <point x="107" y="98" type="line"/>
      <point x="499" y="491" type="line"/>
      <point x="471" y="519" type="line"/>
      <point x="79" y="126" type="line"/>
    </contour>
    <contour>
      <point x="504" y="123" type="line"/>
      <point x="108" y="521" type="line"/>
      <point x="80" y="493" type="line"/>
      <point x="476" y="95" type="line"/>
    </contour>
  </outline>
</glyph>
<glyph name="Oslash" format="1">
  <advance width="918"/>
  <unicode hex="00D8"/>
  <outline>
    <contour>
      <point x="202" y="-76" type="line"/>
      <point x="749" y="760" type="line"/>
      <point x="718" y="778" type="line"/>
      <point x="173" y="-56" type="line"/>
    </contour>
    <contour>
      <point x="112" y="360" type="curve"/>
      <point x="112" y="565"/>
      <point x="247" y="690"/>
      <point x="456" y="690" type="curve"/>
      <point x="666" y="690"/>
      <point x="804" y="567"/>
      <point x="804" y="363" type="curve"/>
      <point x="804" y="159"/>
      <point x="669" y="33"/>
      <point x="461" y="33" type="curve"/>
      <point x="250" y="33"/>
      <point x="112" y="155"/>
      <point x="112" y="360" type="curve"/>
      <point x="68" y="360"/>
      <point x="112" y="360"/>
      <point x="68" y="360" type="curve"/>
      <point x="68" y="130"/>
      <point x="224" y="-5"/>
      <point x="459" y="-5" type="curve"/>
      <point x="693" y="-5"/>
      <point x="849" y="132"/>
      <point x="849" y="363" type="curve"/>
      <point x="849" y="592"/>
      <point x="693" y="727"/>
      <point x="459" y="727" type="curve"/>
      <point x="223" y="727"/>
      <point x="68" y="590"/>
      <point x="68" y="360" type="curve"/>
      <point x="112" y="360"/>
      <point x="68" y="360"/>
    </contour>
  </outline>
</glyph>
